<svg xmlns="http://www.w3.org/2000/svg" xmlns:xlink="http://www.w3.org/1999/xlink" viewBox="0 0 623.26 387.16" xmlns:v="https://vecta.io/nano"><style><![CDATA[.G{isolation:isolate}.Y{stroke-miterlimit:10}.Z{fill:none}.a{stroke:#000}.b{fill:#7ac943}.c{stroke:#999}.d{fill:#f2f2f2}.e{stroke-width:2}.f{fill:#3fa9f5}]]></style><g class="d"><ellipse cx="868.08" cy="678.24" rx="81.27" ry="14.73" transform="matrix(.951057 -.309017 .309017 .951057 -940.17 -18.4)"/><ellipse cx="375.3" cy="347.46" rx="214.91" ry="8.18"/></g><circle cx="228.15" cy="174.76" r="174.76" fill="#f4f9fd"/><path d="M6.15 346.47a3.52 3.52 0 0 0-1.94 1.94.91.91 0 0 1-1.19.5.93.93 0 0 1-.51-.5 3.52 3.52 0 0 0-1.94-1.94.93.93 0 0 1-.51-1.2 1 1 0 0 1 .51-.51 3.55 3.55 0 0 0 1.94-1.94.92.92 0 0 1 1.2-.5.88.88 0 0 1 .5.5 3.55 3.55 0 0 0 1.94 1.94 1 1 0 0 1 .41 1.3 1.15 1.15 0 0 1-.41.41zM331.93 14.99a4.34 4.34 0 0 0-2.37 2.37 1.09 1.09 0 0 1-1.45.56h0a1.22 1.22 0 0 1-.55-.55 4.31 4.31 0 0 0-2.37-2.37 1.11 1.11 0 0 1-.56-1.46h0a1.22 1.22 0 0 1 .55-.55 4.31 4.31 0 0 0 2.37-2.37 1.11 1.11 0 0 1 1.46-.57h0a1.24 1.24 0 0 1 .55.56 4.34 4.34 0 0 0 2.37 2.37 1.1 1.1 0 0 1 .56 1.45h0 0a1.11 1.11 0 0 1-.56.53zM91.47 91.27a3.59 3.59 0 1 1 3.58-3.59h0a3.6 3.6 0 0 1-3.58 3.59zm0-5.34a1.76 1.76 0 1 0 1.76 1.77h0a1.77 1.77 0 0 0-1.76-1.77zM619.68 52.1a3.59 3.59 0 1 1 3.58-3.59h0a3.6 3.6 0 0 1-3.58 3.59zm0-5.35a1.77 1.77 0 1 0 1.75 1.77h0a1.77 1.77 0 0 0-1.75-1.76z" fill="#414042"/><path d="M527.63 327.76l20.5-4.22m-20.04 7.35l20.5-4.22m-19.83 7.46l8.13-1.67" stroke="#fff" stroke-linecap="round" class="Y Z e"/><path d="M182.5 113.23a3.55 3.55 0 0 0-1.94 1.94.92.92 0 0 1-1.2.45h0a.86.86 0 0 1-.43-.46 3.55 3.55 0 0 0-2-1.95.91.91 0 0 1-.45-1.21 1 1 0 0 1 .45-.46 3.57 3.57 0 0 0 2-1.94.92.92 0 0 1 1.2-.45h0a.94.94 0 0 1 .44.44 3.54 3.54 0 0 0 1.94 1.95.92.92 0 0 1 0 1.67z" fill="#414042"/><g class="Y a"><g fill="#fff"><rect x="158.41" y="66.8" width="394.38" height="255.58" rx="21.21"/><path d="M550.14 345.22H161.27l-.11-.19a27 27 0 0 1-15.43-12.22 24.82 24.82 0 0 1-2.75-15.94l.09.09h424.86l-.18.12a24.89 24.89 0 0 1-2.76 15.94 27 27 0 0 1-15.42 12.22"/></g><path d="M390.48 323.69H316.7h0a5.33 5.33 0 0 1-2.92-2.81 6.81 6.81 0 0 1-.55-3.67h80.6 0a6.79 6.79 0 0 1-.52 3.67 5.31 5.31 0 0 1-2.93 2.81" class="d"/></g><path class="G d" d="M171.08 81.67h368.49V304.2H171.08z" opacity=".58"/><path d="M370.42 156.43c-1.77-.15-3-1.1-3.07-2.76h2a1.22 1.22 0 0 0 1 1.19v-2.61c-1.41-.36-3.07-.76-3.07-2.77 0-1.62 1.29-2.67 3.07-2.81v-1.11h.87v1.11a2.9 2.9 0 0 1 3 2.68h-2.08a1.25 1.25 0 0 0-.92-1.1v2.59c1.43.37 3.11.74 3.11 2.76a3 3 0 0 1-3.11 2.84v1.1h-.87zm0-5.85v-2.37a1.11 1.11 0 0 0-1.07 1.14h0c0 .68.44 1.01 1.07 1.23zm.87 1.94v2.39a1.23 1.23 0 0 0 1.11-1.22c0-.64-.45-.95-1.1-1.17zm11.74-6.17v1.68h-4.42v2.35a2.62 2.62 0 0 1 2-.82 3 3 0 0 1 3.13 2.88 3.93 3.93 0 0 1-2.91 3.93 3.37 3.37 0 0 1-.55 0c-2.16 0-3.39-1.19-3.56-2.82h1.87a1.56 1.56 0 0 0 1.66 1.2 1.63 1.63 0 0 0 1.68-1.59 1 1 0 0 0 0-.25 1.55 1.55 0 0 0-1.33-1.74 1.82 1.82 0 0 0-.33 0 1.51 1.51 0 0 0-1.51 1.06h-1.83v-5.86zm2.47 7.9h2l-1.7 4.09h-1.25zm8.32-5.38a1.32 1.32 0 0 0-1.44-1.15c-1.25 0-1.83.93-1.86 3.23a2.65 2.65 0 0 1 2.34-1.16 2.92 2.92 0 0 1 3 2.81 3.38 3.38 0 0 1 0 .45 3.12 3.12 0 0 1-2.87 3.34h-.45c-3 0-3.7-2.08-3.7-5.18 0-3.26 1.06-5.07 3.59-5.07a2.93 2.93 0 0 1 3.15 2.7h0zm-3.11 4.14a1.6 1.6 0 0 0 1.44 1.75h.31a1.52 1.52 0 0 0 1.61-1.43 1.77 1.77 0 0 0 0-.23 1.54 1.54 0 0 0-1.35-1.72 1.51 1.51 0 0 0-.3 0 1.59 1.59 0 0 0-1.7 1.47v.18zm6.59 1.79c2.26-1.91 4.63-3.68 4.63-5.52 0-.89-.4-1.5-1.35-1.5s-1.41.66-1.43 1.72h-1.86a3.12 3.12 0 0 1 2.91-3.34h.4a2.87 2.87 0 0 1 3.22 2.51 2.79 2.79 0 0 1 0 .5c0 2.32-2.21 4.13-3.82 5.47h4v1.59h-6.77zm10.19-1.25a1.42 1.42 0 0 0 1.55 1.25c1.11 0 1.62-.84 1.62-3.08a2.59 2.59 0 0 1-2.11.93 3 3 0 0 1-3.12-2.8v-.39a3.11 3.11 0 0 1 2.88-3.32h.49c2.71 0 3.55 1.84 3.55 5 0 3.4-.75 5.24-3.39 5.24a3 3 0 0 1-3.25-2.7v-.12zm3-4.08a1.61 1.61 0 1 0-1.59 1.62h0a1.48 1.48 0 0 0 1.55-1.4 1.7 1.7 0 0 0 .04-.22zm35.79 6.96c-1.77-.15-3-1.1-3.07-2.76h2.06a1.21 1.21 0 0 0 1 1.19v-2.61c-1.41-.36-3.07-.76-3.07-2.77 0-1.62 1.29-2.67 3.07-2.81v-1.11h.88v1.11a2.89 2.89 0 0 1 3 2.68h-2.08a1.25 1.25 0 0 0-.91-1.1v2.59c1.42.37 3.1.74 3.1 2.76a3 3 0 0 1-3.1 2.84v1.1h-.88zm0-5.85v-2.37a1.11 1.11 0 0 0-1.07 1.14h0c0 .68.44 1.01 1.07 1.23zm.88 1.94v2.39a1.23 1.23 0 0 0 1.1-1.22c0-.64-.47-.95-1.1-1.17zm4.9 2.28c2.26-1.91 4.63-3.68 4.63-5.52 0-.89-.39-1.5-1.34-1.5s-1.42.66-1.44 1.72h-1.86a3.13 3.13 0 0 1 2.88-3.34h.41a2.87 2.87 0 0 1 3.21 2.51 2.1 2.1 0 0 1 0 .5c0 2.32-2.21 4.13-3.82 5.47h4.07v1.59h-6.77zm8.34-.55h2l-1.71 4.09h-1.24zm9.85-7.9v1.68h-4.42v2.35a2.58 2.58 0 0 1 2-.82 3 3 0 0 1 3.14 2.89 3.1 3.1 0 0 1 0 .43 3.21 3.21 0 0 1-2.9 3.49 3.37 3.37 0 0 1-.55 0c-2.15 0-3.38-1.19-3.55-2.82h1.86a1.56 1.56 0 0 0 1.66 1.2 1.63 1.63 0 0 0 1.67-1.6 2.09 2.09 0 0 0 0-.25 1.55 1.55 0 0 0-1.33-1.74 1.82 1.82 0 0 0-.33 0 1.49 1.49 0 0 0-1.51 1.06h-1.83v-5.86zm2 8.45c2.26-1.91 4.63-3.68 4.63-5.52 0-.89-.39-1.5-1.34-1.5s-1.42.66-1.44 1.72h-1.86a3.13 3.13 0 0 1 2.92-3.34h.39a2.89 2.89 0 0 1 3.22 2.51 4.18 4.18 0 0 1 0 .5c0 2.32-2.22 4.13-3.83 5.47h4v1.59h-6.77zm14.68-8.45v1.68h-4.42v2.35a2.62 2.62 0 0 1 2-.82 3 3 0 0 1 3.13 2.88 3.93 3.93 0 0 1-2.91 3.93 3.49 3.49 0 0 1-.56 0c-2.15 0-3.38-1.19-3.55-2.82h1.87a1.56 1.56 0 0 0 1.66 1.2 1.63 1.63 0 0 0 1.67-1.6 1 1 0 0 0 0-.25 1.55 1.55 0 0 0-1.33-1.74 1.82 1.82 0 0 0-.33 0 1.51 1.51 0 0 0-1.51 1.06h-1.83v-5.86z" fill="#4d4d4d"/><path d="M415.13 152.95l4.26-4.93 3.41 4.93zm74.86.42l4.25-4.93 3.41 4.93z" class="b"/><g class="Y Z"><path d="M187.93 230.33v57.15h141.74" class="c"/><path d="M187.93 278.4c49.9 3 102-5.38 142.3-21.93" stroke="#7ac943"/></g><circle cx="328.75" cy="256.97" r="2.06" class="b c"/><g class="a"><circle cx="472.6" cy="213.59" r="1.12" class="f"/><path d="M472.67 223.99h24.49m-24.49-24.49v24.49" class="Y Z"/><path d="M472.66 223.96l-17.3-17.27h0a24.42 24.42 0 0 1 17.32-7.18" class="Y b"/><path d="M497.16 224a24.49 24.49 0 0 0-24.49-24.49h0v24.45" fill="#fff" class="Y"/><path d="M463.23 246.6a24.52 24.52 0 0 0 33.93-22.61h-24.49l-9.45 22.66" fill="#e5ffd4" class="Y"/><path d="M455.35 206.67l17.3 17.3" class="Y Z"/><g class="f"><path d="M455.36 206.69l17.3 17.29-9.39 22.62a24.48 24.48 0 0 1-7.88-39.92" class="Y"/><circle cx="384.56" cy="220.15" r="1.12"/></g><path d="M394.23 223.96l9.14-22.72m-31.86 13.59l22.72 9.13" class="Y Z"/><path d="M394.18 223.95l-22.47 9.61h0a24.4 24.4 0 0 1-.2-18.74" fill="#e5ffd4" class="Y"/><path d="M403.36 201.25c-12.542-5.04-26.796 1.039-31.84 13.58l22.66 9.12" fill="#eef9ff"/><g class="Y"><path d="M411.67 241.16a24.51 24.51 0 0 0-8.29-39.92l-9.2 22.7 17.5 17.22" class="b"/><path d="M371.7 233.57l22.5-9.6" class="Z"/><path d="M371.71 233.57l22.47-9.59 17.49 17.18a24.49 24.49 0 0 1-40-7.59" fill="#fff"/></g></g><g class="Z"><path d="M371.7 260.88h43.95m-44.1 3.5h43.95m35.11-4.17h43.95m-44.1 3.5h28.9" stroke="#ccc" class="e"/><g class="Y"><path d="M187.76 101.16v57.14h141.75" class="c"/><path d="M187.75 133.77c49.9 3 102-5.39 142.32-21.93" stroke="#7ac943"/></g></g><g class="b c"><circle cx="208.08" cy="134.18" r="2.06"/><circle cx="266.56" cy="129.61" r="2.06"/><circle cx="329.15" cy="111.8" r="2.06"/></g><path d="M270.97 186.15h43.95m-44.11 3.5h43.95m-43.79 17.97h43.95m-44.11 3.5h43.95m-51.18 3.73h43.95" stroke="#ccc" class="Z e"/><path d="M34.93 163.8l79.28-25.5 82.39 25.5 76.09-25.5v212l-76.86 27.38-81.62-28.25-79.28 28.25z" fill="#fff" class="Y a"/><g class="c d"><path d="M77.54 213.49a4.57 4.57 0 0 0-1.55-.63 7.59 7.59 0 0 1-2.36-.4c-.49-.23-1.5-1.55-.27-1.47.83.06 2.47 0 3-.55 1.47-1.55 3.38 2.21 5 1.79.85-.22 1.1-1.3 2-.79a6.63 6.63 0 0 1 1.6 1.34c.62.73.21 1.14-.68 1.26a19.39 19.39 0 0 1-2.41 0c-.76 0-1.52.07-2.27.14a3.66 3.66 0 0 1-2.11-.73zm8.75-4.77s.44 1.66 1 1.88.87.49 1.26-.25-.49-1.06-1.14-1.65-1.63-1.99-1.12.02zm-.48 11.44s1 1.49 1-.32-2.34-2.45-1.5-3.45 1.45-1.76 2.4-.31 1 2.18 1.14 1.18.42-2-.19-2.45-1.15-.37-1.24-1.22-.23-1.91.29-1.82a5.45 5.45 0 0 1 2.8 2.18c1.23 1.54 1 2.31.38 3s-.48 1.18 0 2.14a10.11 10.11 0 0 0 1.32 2s1.66 2.13 1.52-.27-1.66-3.17-1-3.94.55-1.59 1.8-1.5 5.47-.55 6.56.76.55 1.27 2.62 2 3.89 3.78 3.89 3.78 1.62 2-1 1.89-1.75.56-1.56.86 2.66 1.73-.24 1.5-2.8.05-3-.9-.85-1.23 0-1.41 1.37-.68.33-1.11-3 .76-2.81-.77-.71-2.14-1.57-1.36 0 2.36-1.85 2.4-1.8.13-1.8 1 .18.82 1.18.82 1.38-.23 1.35.49-1.66 1.91-1.66 1.91a1.37 1.37 0 0 1-1.93.16l-.16-.16c-1-1.13-2.09-.5-2.76-.32s-2.62.23-2.66 1.23-.47 3.17.85 3.26a3.87 3.87 0 0 1 3.14 1.82c.44.95.48 1 1.57 1.13s1.52 0 1.57.91.24 2 1.14 1.1 2.42-2.67 2.14-4a7.71 7.71 0 0 1-.43-3.62c.29-1.42.09-1.5 1-1.46s3.31-.27 3.65.68 1.11 1.66.95 2.36-.18 1.82.77.68 2.21-2.86 2.62-1.81.14 2.13 1 2.86 5.52 7.07 3.61 7a10 10 0 0 0-4 .4c-.67.32-2.57.45-1.43 1.05s3.66.55 2.57 1.31-1.8 2.63-3.71 2.77-1.8-.33-2.89.72-8.36 8.21-8 10.43.55 4.59-1 2.27l-1.57-2.32s-1.14-1.58-2.09-.63a3.82 3.82 0 0 1-3.37 1.5c-1.42-.23-1.77-.68-2.81.18s-1.11 1.66-.9 3.18.9 3.35 2.52 3.62 2.21 0 2.42-.63.14-.9.9-.86 1.42.13 1.28 1a2.52 2.52 0 0 0 1.05 2.64 2.64 2.64 0 0 1 1.62 2.21c.18 1.18.75 2.44 1.51 2.54a15.66 15.66 0 0 0 3.49 0c.65-.18 1.27-2 2.64-1.66s.62.36 2.14.77 3.87-.18 5 .56 3.85 3.12 4.7 3.12 1.57 0 2 .73a7 7 0 0 1 1.19 3.22c-.09.91 1.18.77 1.42.77a12.94 12.94 0 0 1 4.94 1.45c1.8 1.14 4.85 1.32 4.47 2.86s-.34 3-1.29 3.72a3.56 3.56 0 0 0-1 2.73 8.34 8.34 0 0 1-2.57 4.35c-1.42 1-3.94 3.27-3.86 4.08a4.33 4.33 0 0 1-.67 2.95c-.67.74-8.79 8.62-8.79 8.62s-1.47.64-1.47 1.91.37 1.81 0 2.53-1.48 1.37-1.48 2.55-.28 2.76.1 3.39 2.89 3.27-.55 1.5-4.51-2.58-4.51-3.26l.09-9.48a5.29 5.29 0 0 1 .56-2.9c.69-.91.76-.91.8-1.66s0-10.71 0-10.71a2 2 0 0 0-.85-1.9c-1-.59-5.37-7.35-5.37-7.35s-.81-.41-.81-2.36.1-3.62.81-4.35 1.71-2.13 1.43-3.13.23-.87-1.19-.87a7.7 7.7 0 0 1-4-1.49c-1-.73-.62-2.58-3.09-2.85s-2.37-1.05-2.37-1.05.05-.55-2-.7-5.23-1.7-5.94-3.57-4.35-5.88-4.35-5.88-1.19-1.41-.55.14 1.57 4.9-.48 2.21-3.89-6.64-4.65-7.31a5.92 5.92 0 0 1-2.38-4.35c.05-2.18-.09-9.52-1.47-10.43s-3.87-6.76-6.63-6.8-6.75-.51-8 .49-2.76 2.09-3.75 2.09a28.93 28.93 0 0 0-5.09 1.27c-.76.27-5.08 1.1-.61-.73s3.7-2.31 3.18-2.67-1.42-.14-1.62-1.5-.55-2.95.39-2.95 2.52.41 2.47-.36-.52-1-1.71-.86-1.62 0-1.52-.68-.19-1.23.81-1.23 2.89.73 2.94-.09-.38-2.54.62-2.95 1.71-1.36 3-1.36 10.12-.49 11.4-.08 4.42 2 5.89 1.4 1.19-1.22 4.09-.91 6 .73 6.18-.22.09-1.91-1.57-2.09-4 .18-2.76-1.23 1-1.31 3.94-1 2.38.36 2.95.91 1.65 2.63 2.76 1.49 1.9-2.36 2.28-1.13-.14 1.91.95 2.4a9.93 9.93 0 0 1 2.23 1.69zm-36.88 33.37s.85 3.94 1.9 3.76c2.13-.37.55-1.65-1.33-3.76-.17-.21-.79-.92-.57 0zm43.39 8.53s-3.8-.1-1.76-1 2.33-.68 3.24-.45 6.08 1.81 4.14 2.25c-.45.1-1.37.52-1.82.35s-.56-.45-.89-.63a3.15 3.15 0 0 0-.65-.23 12.32 12.32 0 0 0-2.26-.29zm6.86 1.42a1.85 1.85 0 0 0 0 .47c.17.4.71.25 1.1.24s2.47-.11 1.48-.47c-.59-.22-1.26-.62-2-.85-.83-.31-.58.16-.58.61zm-8.98-52.65s-.62-2.21.53-1.07c.81.8.76 1.27 1.61 1.58s1.48.37 1.86 1.05.55.9 1.85.86c3-.09 4.56 1.1 2.21 1.16s-5.84.43-6-.62-.24-1.48-.62-1.66-.86-.07-1.14-.68zm7.49 1.33s-1.9.09-2-.59.28-1-1-1.11-1.57 0-1.48-1.18-.42-2.09.81-2.13 4-.23 4 .91-.19 1.26.44 1.22 1.89.46 2-.5.72-.72 1.11-.76 4.07-.43-.72-.9a3.63 3.63 0 0 1-1.37-.3 8.28 8.28 0 0 0-1.17-.79c-.36-.14-1.14-.2-1.37-.56a1.3 1.3 0 0 1 .55-.06c1.81 0 7.56.58 8.51 0s.9-1.11 1.76-1.11 4-.09 4.09.64.09 1.31-1.91 1.77-1.32.14-1.94.82-1.33.7-2.71.69a2.69 2.69 0 0 0-2.47 1.07c-.09.41-1.14 2.87-2.85 2.86zm16.11-6.17a1.73 1.73 0 0 0-1.66.46c-.55.72 0 .81-1.28.86s-1.24.12-1.57.88a2.18 2.18 0 0 1-1.91 1.48c-1 0-2.47-.34-2.33.37s1.43 2.57 2.09 2.62 6.08-.55 6.63 1.54-.32 5.59.67 6.17.55 1.27.24 1.45-.86-.22-.86.82.34.59 1 1.45.91.55.91 1.86-.15 1.82.85 2a2.83 2.83 0 0 1 2 1.41c.15.45 1.19 0 1.43-.56s3.42-4.67 4.37-4.76 2.56 0 2.62-.77-.48-1.95.66-2 3.42 0 4.42-1 3.05-2.17 1.15-2.47c-.88-.14-1.66-.87-1.23-1.76a10.15 10.15 0 0 1 1.56 0 1.81 1.81 0 0 0 1.33-.64l1.3-2.27c.47-.74 1.77-2 .08-2.27-.56-.09-.81-.69-.05-1.32 0 0 1.14-2.44 2.28-2.44.36 0 3.56-.14 3.12-.66-.23-.26-.23-.26-2.51-.42-.32 0-.49-.3-.78-.4a4.1 4.1 0 0 0-1.26-.07c-2 .09-1.37.14-2.21-.55s-1.7-.68-5.41-.66-5.13-.34-6 .44-.47 1.22-2.42 1.22-7.23-.01-7.23-.01zm19.89 19.08a2.41 2.41 0 0 1 0 .38c0 .29 0 .85.44.85l1.84-.06c.31 0 .62.1.89-.08.55-.39.75-.82 1.46-.93.3-.05 1.16.1 1.19-.32 0-.19-.22-2-.55-2.21-.76-.56-2.68.52-3.95.5a8.09 8.09 0 0 0-1.39-.06c-.41.06-.27.55-.2.82a5.29 5.29 0 0 1 .27 1.11zm9.9 8.73s-1.52 1.06-1.56 1.9-.31 2.39.78 1.73a6.91 6.91 0 0 0 1.91-2.12s.21-2.85-1.13-1.51zm1.68-1.06c-.56-.47-1.15-.9-1-1.72s.79-1.15 1.2-.64a8.37 8.37 0 0 1 1.52 2.21 9.94 9.94 0 0 0 1.58 2.41c.42.56.81 1.5.06 2-1 .67-2.34 2.21-3.36 1.58-.77-.51-.19-1.16.23-1.66a2.48 2.48 0 0 0 .77-2.07 6.11 6.11 0 0 0-.37-1.33 2.83 2.83 0 0 0-.63-.78z"/><path d="M162.61 230.44c.81-1.6-2-.36-1.2-2.21s3.8-2.87 3.31-3.6-.76-1.49-2.47-.21a14.12 14.12 0 0 0-2.8 2.66c-.91 1.18.67 2.15-.21 3.42l-2.09 2.82s-.56 1.24-1.27.12c-.22-.35-.63-.64-.8-1a.24.24 0 0 1 0-.23c.11-.2.67-.14.76-.48s.75-1.35-.36-1.35-2.87.75-2.9-.28-.61-3.63.21-4.05 2.36-.48 3.17-1.45 2-2.06 2.16-3l.13-1a3.86 3.86 0 0 1 2.28-1.63c1.81-.64 2.34-1.82 4-1.27s3.26.42 3.87 1.36 1.26.72 1.83.72 1.2-.64 2.29.22 3.31 2.76 3.7 2 .7-2.39 1.49-1.39.48 2.09 1.66 1.39 1.81-1.39 3.11-1.39 3.54.15 4.14-.39a2.62 2.62 0 0 1 2.35-1c1.49 0 2 .48 2.12-.42s-.19-2.21.28-2.88.86-1.1 1-.81a10.51 10.51 0 0 1 .82 3c0 .84 1.42 4.47 1.61 4a42.45 42.45 0 0 0 .22-4.65s-.13-1.4.32-1.15 1.66 2 2 1.2.1-2 .73-2.09a4 4 0 0 0 2.85-.87c.82-.91 1-2.54 3.52-2.42a5.25 5.25 0 0 0 2.88-.3c.76-.13 1.3 0 1.87-.37a3.63 3.63 0 0 0 .92-1.42c.15-.24.5.56 1 .73s3.08-.21 3.45.12 3.55 1.51 2.85 2.3-2 2.45-.69 2.26 6.11 0 6.11 0l2.89-.15s1.2-1.36 1.42-.06.6 2.54 1.77 2.57 7.29.27 7.32-.39 0-2.57.79-2.36 1.2.39 1.27 1 .09 1.93.76 1.36.92-1.21 1.62-1.15 1.52 1.65 2.31 1.69 5.1-.33 5.48.09.28 1.58 2.18 1.66 9.66-.31 10.14.15 6 7 3.36 7.25-2.41.88-2.85 1.15a2.93 2.93 0 0 1-2.44.86c-1.78 0-2.92-.22-2.92 1.32s.44 2.57-.35 3.15-.69 1.27-.82 2 .06 3.09-1 1.18-2.09-3.6-1.66-4.26 3.77-2.76 2-4-2.76-1.6-3-.52.76 2.7-1.39 2.27a17.15 17.15 0 0 1-3.71-1.15 2 2 0 0 0-2.6.43c-1.3 1.3-5.53 4.93-2.76 4.74s4.11 1.34 4.33 2.36a46.38 46.38 0 0 1 0 5.53.72.72 0 0 0 .51.89.65.65 0 0 0 .24 0c1 0 1.4.15 1.24 1.06s.26 1-.79 1.06-.92-.24-.89.87.48 3.09-.55 3.82-2.76 1.9-3.87 1.81-1.49 1.27-1.58 1.76-1.14 1.57-1-.42.38-2.28 1.27-2.46a5.09 5.09 0 0 0 2.69-.93 2.52 2.52 0 0 0 1.59-2.76c.06-1.25-.07-8.2-.07-8.2s-.76-3.36-1.14-.27-1.26 4.51-2.15 4.84-3.65 1.6-3.81 2.06-.79 1.78-.22 2.59 1.56 1.61 1.3 2.21-.6 3.06-2.12 1.24a35.6 35.6 0 0 1-2.66-3.66c0 0-1.1-2.26-2.25-1s-1 1.91-.18 3.18 2.53 4.38.69 6.86-1.71 3.6-2.82 3.75a25.29 25.29 0 0 0-5.1 1c-2 .7-.28 2.88.13 3.27a3 3 0 0 1 .25 3.83c-1.32 1.57-.69 2-2.31 1s-2.57-2.4-3.07-1.27a2.66 2.66 0 0 0 .66 3.31c1.11 1.11 3.68 3.47 2.22 3.72-2.22.38-3.77-3.6-3.77-3.6a19.26 19.26 0 0 0-.25-1.28c-.14-.63-.55-1.19-.63-1.83a10.44 10.44 0 0 1 .06-1.77c0-.56.43-1.8-.2-2.16-.45-.25-1.07 0-1.56-.11a2.78 2.78 0 0 1-1.51-.7 6.64 6.64 0 0 1-1.58-2.27c-.26-1-1.18-.67-1.66-.73-.25 0-1-.09-1.19.08s0 .85 0 1.15a1.23 1.23 0 0 1-.66 1c-1 .42-3.84 1.88-3.93 2.81s.55 5.9-2 4.42c-1.29-.76-1.83-5.26-1.83-5.26s-.89-3.54-2.76-3.72-1.66-1.15-2-1.51-3.2-.36-3.2-.36a4.45 4.45 0 0 1-1.52-.88 3.75 3.75 0 0 0-3.14-1c-1.68.11-2.5-.24-3-.88s-.64-1.17-1.72-1.27-2.47-.18-.95.73 2.09 2.84 3.77 3.14 2.57.13 3 1 .76 1.69-.25 2.36-4.42 4.18-6.94 4.11-2.41-.06-3.2-1.6-1.66-5.59-3.32-6.74a7 7 0 0 1-2.08-2s-1.22-2.37-.89.69a5.88 5.88 0 0 0 1.49 2.76 12 12 0 0 1 .73 2.43c.22 1.27 1.55 2.32 2.12 3s1.83 3 3 3.08 3.71.06 3.71.06 2.76-.45 1.1 1.34-6.37 8.29-6.37 8.29a3.62 3.62 0 0 0-1.3 3c.1 2.06 1.05 7.19-.32 8.44s-2.34 1.84-2.37 3.72.1 2.69-.92 2.76-1.17.15-1.1 1.1 0 1.11-.48 1.57-2 3.49-4 3.55h-2.44a.47.47 0 0 0-.59.34h0c-.13.51-.55.45-1 .45s-1.08.06-1.36-1.24-2.53-7.26-2.53-7.26-.89-2.51-1.46-2.72c-.93-.35-.76-1.22-.77-2a1.68 1.68 0 0 1 .4-1.21 2.62 2.62 0 0 0 .4-.94 11 11 0 0 0 .41-3.07c0-1.57-.44-4.56-1.65-5.26a5.24 5.24 0 0 1-1.19-.79 2.31 2.31 0 0 1 0-2.43 2.2 2.2 0 0 0-.5-2.21 2.43 2.43 0 0 0-2-.83h-9.56s-1.11.08-2.31-1.58a8.78 8.78 0 0 0-2.6-2c0 0-2.21-.39-1.9-1s-.22-3 .19-3.2a1.63 1.63 0 0 0 1-1.46c0-.72-.47-2.8.32-3.5s2-4 2.66-3.82.95-.47.95-1-.51-3.6 1.17-3.81 2.82 0 4-.69 1.1-.31 1.71-1.06 1-.55 2-.55a5.47 5.47 0 0 0 2.34-.27c.22-.24 1.55-1 2-.19s.22 1.57 1.37 2.39 4.3 2.27 4.69 2.69 1.2 1.15 1.61.19.16-1.79 1.87-1.52a7.88 7.88 0 0 1 3.49.94 4.1 4.1 0 0 0 3.36-.06c.66-.12 2.76-2.24 1.84-3.12s-1.15-.55-1.94-.3a3.92 3.92 0 0 1-3.16-.85c-.54-.67-1-2.45-2-2.47s-1 .15-.7.84 1.39 2.57-.1 2.45-1.66-.24-2.15-1.81a10.06 10.06 0 0 0-2.82-4.24c0 0-2.12-2.48-3-1.45s.38 1.85.92 2.27 3.32 1.66 2.12 3.06-2 2.07-2.82.63c-.59-1 1.41-.42 1.66-.94.11-.19-1-1-1.43-1.32-.84-.64-2.84-2.91-4.08-2.12s-2.21-.09-2.34.84a1.79 1.79 0 0 1-1.82 1.76h-.05c-1.27 0-.82.32-1 .9s0 2-1.26 1.94-2.53.36-2.92-.46a2.32 2.32 0 0 0-1.39-1.23c-.32-.09-.55-.36-.51-1.24s-.35-2.3.61-2.3 3.2.1 3.86 0 .39-1.38.35-1.74h0a2.66 2.66 0 0 0-1-2.21c-1-.68-.85-1.1.45-1a4.55 4.55 0 0 0 2.66-1c.53-.31 2.21-1 2.63-2.48s.09-1 .85-1.15c.55-.09.32-1 .29-1.36 0-.17-.09-.55 0-.71s.55 0 .86.08c.78.15.45 2.13 1.21 2.31a7.24 7.24 0 0 0 3.55-.23c1.38-.36 1.84-1.06 3.6-4.49z"/><path d="M182 216.85a1.83 1.83 0 0 1-.49-.55 1 1 0 0 1-.05-.94 5.92 5.92 0 0 1 2-2.29 15.68 15.68 0 0 1 2.18-.31c.89-.09 6.73-1.75.47 1.21 0 0-1.83.74-1.83 1.6s-.07 1.32.46 2a4.75 4.75 0 0 1 .76 1.11c.23.55-.65.08-.84 0a17.73 17.73 0 0 1-1.7-1.11c-.29-.27-.66-.49-.96-.72zm-.31 70.97s.86-2.49 1.57-1 .9 2.4.55 3.08a7.49 7.49 0 0 0-1.23 2.73 7.42 7.42 0 0 1-1.28 2.76c-.94 1.35-1.66-2.48-1.66-3 0-1.91-.05-3 .42-3.41s1.45-.71 1.63-1.16zm36.59-10.25a11.13 11.13 0 0 1-1.48-2c-.42-.86-1.85-3.13.44-.9s2.18.59 3.66 2.9 1.9 2.21 1.75 3.12 1 .87 1 .87 3.28-.14 4 .36a3.4 3.4 0 0 0 1.9.41c.38 0 7 .64-1.76.64-1.48 0-3-.08-4.46 0a1.47 1.47 0 0 1-1-.23c-.33-.3-.26-.81-.44-1.18a3.42 3.42 0 0 0-.84-.94 10.85 10.85 0 0 1-.8-.86c-.56-.55-1.07-1.18-1.59-1.77zm13.02.77a.66.66 0 0 1 .69-.45 6.61 6.61 0 0 1 .89 0 1.19 1.19 0 0 1 .62.34c.17.14.69.11.72.34s-.56.56-.74.68c-1.07.66-.88.95-1.92.68-.59-.15-.59-.61-.43-1.07l.17-.52zm-5.01.05h-.07a1.59 1.59 0 0 1-.92-.29 1.79 1.79 0 0 1-.34-.44c-.32-.56-.95-1.15-.27-1.71l1.66-1.26c.56-.41 1.1-.45 1.13-1.1s-.26-1.22.25-1.6 1.84-.88 2-.49c.29.74.56.39.56 2.13a14.6 14.6 0 0 1-.17 3 1.55 1.55 0 0 1-.55 1 3.35 3.35 0 0 1-.74.56 2.92 2.92 0 0 1-1.06.14c-.5.09-.99.08-1.48.06zm6.78-11.23a3 3 0 0 1-1.11-2.26c.13-1.27 0-3.82.55-1.79a4.25 4.25 0 0 0 1.42 2.51c.56.71 1.51 1.13 2 1.91a7.92 7.92 0 0 1 .35 3.45c0 .48.09 1.11-.39 1.47s-.8-.2-1-.48a11.76 11.76 0 0 1-1-1.59c-.51-1.03.04-2.22-.82-3.22zm9.01 13.37c-.61.08-1.4.13-1.57-.5a3.17 3.17 0 0 0-1.47-2.17c-1-.52-1.52-.25-1.62-.93a5.07 5.07 0 0 1 0-.87c0-.18-.09-.55 0-.73s.48.55.48.69c0 .68.28.78.81 1s2.8-.36 3.37.23.24 1.48 1.28 1.65 3-.65 4 .26l3.87 3.4c.87 1 2.25 2.92-1 .36-.55-.44-1.76.27-1.9.36s-.28.29-.81-.36c-.39-.49-.85 0-1.31.09s-.76-.3-1-.64a8.9 8.9 0 0 0-.79-1.41 1.68 1.68 0 0 0-1.19-.56 7.88 7.88 0 0 0-1.15.13zm6.85 26.96l.59.07a.68.68 0 0 1 .58.23.61.61 0 0 1 0 .42c-.2.83-.32 1.33-1.2 1.27s-.83-1-.83-1.27-.4-.46-.32-.67.46-.16.63-.13zm-10.74-20.93c.39 0 .84-.06 1-.47.24-.63-.28-1 1-.95s2.28-.28 2.33.7a2.09 2.09 0 0 0 1.05 1.93c.62.32.87.23 1.28.73s1.23.59 1.23.23-.37-2.82.29-3 1.2-1.31 1.41-.6-.17 1.42.44 2 4.08 4.72 4.08 4.72 2.57 2.5 2.57 4.27-.28 4.08-1 5.07l-2.33 3.54a2.77 2.77 0 0 1-1.9 1.23h-2.07c-1 0-1.77 0-2.16-1-.24-.64-.28-1.27-1.14-1.27s-1.57.37-1.81-.66c-.11-.47 0-1-.14-1.45-.17-.67-1.08-.46-1.61-.47-1 0-1.95-.14-2.93-.22a3.79 3.79 0 0 0-2.54.7 5 5 0 0 1-1.47.91 7.05 7.05 0 0 1-1.78.12 4.05 4.05 0 0 1-1.66-.11c-.7-.31-1.84-1.08-2-1.93s.44-2.6-.16-2.87-1.33-.18-1-1.33a12 12 0 0 0 .46-1.86c.08-.62-.36-2.21.58-2.4s1.78.08 2-.12 0-.88.7-1 2.48.49 2.58-.17a8 8 0 0 1 .25-1.94 3.1 3.1 0 0 1 1.44-1.26 8.69 8.69 0 0 1 2.85-1.18zm26.01 23.54v.06c-.43.47-1.65 2-.91 2.17s1.66.55 2.07 0 .31-1 1.66-1.47c.69-.25 1.26-2.21 1.26-2.21a2.71 2.71 0 0 0-.69-1.15c-.4-.34-1.3.92-1.62 1.22-.57.49-1.27.86-1.77 1.38zm4.73-2.61c-.2-.07-.41-1-.48-1.11-.24-.67-.21-.69.13-1.27s-.78-2.42.34-1.51c.6.47 2.25 1.46 2.25 2s-.6.08-.85.86-.3 1.36-1.39 1.03z"/></g><g class="Y Z a"><path d="M196.61 163.8v1.38"/><path d="M196.61 167.92v9.59" stroke-dasharray="4.96 4.96 4.96 4.96"/><path d="M196.61 178.89v196.03" stroke-dasharray="4.96 4.96 4.96 4.96 4.96 4.96"/><path d="M196.61 376.29v1.39"/></g><path d="M244.05 296.9c-5.26-7.62-6.24-8.4-6.24-11.2a7 7 0 0 1 13.9 0c0 2.8-1 3.58-6.23 11.2a.88.88 0 0 1-1.21.22.92.92 0 0 1-.22-.22zm3.71-10.29a2.89 2.89 0 0 1-5.78-.02 2.89 2.89 0 0 1 4.941-2.026 2.89 2.89 0 0 1 .839 2.046z" class="Y a f"/><g class="Z"><path d="M114.21 138.29v1.38" class="Y a"/><path d="M114.21 142.37v9.48" stroke-dasharray="4.9 4.9 4.9 4.9" class="Y a"/><path d="M114.21 348.04v1.38" class="Y a"/><path d="M368.28 129.77h43.94m30.52-.73h43.95m-44.1 3.5h14.47" stroke="#ccc" class="e"/></g><g class="Y a"><g class="f"><use xlink:href="#B"/><use xlink:href="#B" x="-9" y="60"/><use xlink:href="#B" x="58" y="-4"/><use xlink:href="#B" x="-115" y="-2"/><use xlink:href="#B" x="-62" y="63"/></g><path d="M114.21 153.2v193.49" stroke-dasharray="4.9 4.9 4.9 4.9 4.9 4.9" class="Z"/></g><defs ><path id="B" d="M174.65 226.58c-5.26-7.62-6.24-8.4-6.24-11.2a7 7 0 0 1 13.9 0c0 2.8-1 3.58-6.23 11.2a.86.86 0 0 1-1.43 0zm3.71-10.29a2.89 2.89 0 0 1-5.78-.02 2.89 2.89 0 0 1 4.941-2.026 2.89 2.89 0 0 1 .839 2.046z"/></defs></svg>