<svg xmlns="http://www.w3.org/2000/svg" viewBox="0 0 633.53 461.31" xmlns:v="https://vecta.io/nano"><style><![CDATA[.K{isolation:isolate}.S{stroke-miterlimit:10}.T{stroke:#ccc}.U{stroke:#000}.V{fill:none}.W{fill:#7ac943}.X{fill:#f2f2f2}.Y{fill:#def4ff}.Z{fill:#3fa9f5}.a{stroke-width:3}]]></style><g stroke-dasharray="5 5 5 5 5 5" class="S T V"><path d="M621.16 151.55c-40.49-16.11-61.36-11.49-73-3.18-23.68 16.89-13.12 51.83-40.82 70.25-18.21 12.09-30.71 2.29-53.46 14.25-22 11.59-33.47 32.95-39.55 48.31"/><path d="M624.07 208.87c-12-2.95-30.06-5.37-47.84 2.28-25.84 11.1-23.54 31.65-46.45 41.33-29.18 12.34-48.84-14.27-80.64-1.14-23.51 9.71-31.37 31.97-34.82 29.84-4.52-2.74 5-43.2 35.29-72.12 25-23.84 39.44-16.38 57.53-39.89 15.23-19.8 10.15-31.82 25.75-59.94a159.51 159.51 0 0 1 37.69-45.08"/></g><circle cx="472.7" cy="185.59" r="23.56" class="T Y"/><circle cx="522.18" cy="257.69" r="23.56" fill="#e1ffec" class="T"/><circle cx="537.75" cy="174.73" r="20.28" class="T Y"/><circle cx="618.23" cy="204.76" r="14.8" class="T X"/><circle cx="616.74" cy="145.36" r="14.8" class="T Y"/><circle cx="530.98" cy="109.29" r="14.8" fill="#e1ffec" class="T"/><circle cx="572.21" cy="67.65" r="8.88" class="T X"/><g stroke="#4d4d4d" class="V"><circle cx="522.05" cy="252.3" r="7.88"/><path d="M535.32 269.64a18.37 18.37 0 0 0-7.08-7.54 12.12 12.12 0 0 0-13.77 1 17.72 17.72 0 0 0-5.31 7.42" class="S"/><circle cx="472.36" cy="178.5" r="7.88"/><path d="M485.62 195.84a18.4 18.4 0 0 0-7.08-7.55 12.12 12.12 0 0 0-13.76 1 17.49 17.49 0 0 0-5.31 7.42" class="S"/><circle cx="538.17" cy="169.72" r="5.68"/><path d="M547.73 182.21a13.28 13.28 0 0 0-5.1-5.43 8.74 8.74 0 0 0-9.92.71 12.8 12.8 0 0 0-3.83 5.35" class="S"/><circle cx="618.54" cy="202.18" r="3.08"/><path d="M623.72 208.96a7.17 7.17 0 0 0-2.76-2.94 4.74 4.74 0 0 0-5.39.38 7 7 0 0 0-2.07 2.9" class="S"/><circle cx="616.7" cy="142.83" r="3.08"/><path d="M621.88 149.6a7.2 7.2 0 0 0-2.76-3 4.74 4.74 0 0 0-5.38.39 6.92 6.92 0 0 0-2.08 2.9" class="S"/><circle cx="530.48" cy="107.02" r="3.08"/><path d="M535.66 113.8a7.2 7.2 0 0 0-2.76-2.95 4.74 4.74 0 0 0-5.39.39 6.8 6.8 0 0 0-2.07 2.89" class="S"/><circle cx="572.08" cy="65.9" r="2.23"/><path d="M575.82 70.79a5.26 5.26 0 0 0-2-2.13 3.45 3.45 0 0 0-3.89.28 5.08 5.08 0 0 0-1.5 2.1" class="S"/></g><path d="M499.94 272.87v.94a.94.94 0 0 0 .94.94h4.23v4.23a1 1 0 0 0 .94.94h.94a1 1 0 0 0 .94-.94v-4.23h4.22a.94.94 0 0 0 .94-.94v-.94a.94.94 0 0 0-.94-.94h-4.22v-4.23a.94.94 0 0 0-.94-.94h-.94a.94.94 0 0 0-.94.94v4.23h-4.23a.94.94 0 0 0-.94.94zm-50.42-71.56v.94a.94.94 0 0 0 .94.94h4.23v4.23a.94.94 0 0 0 .94.94h.94a.94.94 0 0 0 .94-.94v-4.23h4.23a.94.94 0 0 0 .94-.94v-.94a.94.94 0 0 0-.94-.94h-4.23v-4.23a.94.94 0 0 0-.94-.94h-.94a.94.94 0 0 0-.94.94v4.17h-4.23a.94.94 0 0 0-.94 1zm71.25-10.93v.78a.78.78 0 0 0 .78.78h3.52v3.53a.78.78 0 0 0 .79.78h.78a.78.78 0 0 0 .78-.78h0v-3.53h3.52a.78.78 0 0 0 .79-.78h0v-.78a.79.79 0 0 0-.79-.79h-3.52v-3.52a.78.78 0 0 0-.78-.78h-.78a.78.78 0 0 0-.79.78h0v3.52h-3.52a.79.79 0 0 0-.78.79zm80.37 22.65v.78a.79.79 0 0 0 .79.79h3.52v3.52a.78.78 0 0 0 .78.78h.78a.78.78 0 0 0 .79-.78h0v-3.52h3.52a.78.78 0 0 0 .78-.79h0v-.78a.78.78 0 0 0-.78-.78h-3.52v-3.53a.78.78 0 0 0-.79-.78h-.78a.78.78 0 0 0-.78.78h0v3.53h-3.52a.78.78 0 0 0-.79.78zm-.59-59.63v.78a.78.78 0 0 0 .79.78h3.52v3.53a.78.78 0 0 0 .78.78h.79a.78.78 0 0 0 .78-.78h0v-3.53h3.52a.79.79 0 0 0 .79-.78h0v-.79a.79.79 0 0 0-.79-.78h-3.52v-3.52a.78.78 0 0 0-.78-.78h-.79a.78.78 0 0 0-.78.78h0v3.52h-3.54a.78.78 0 0 0-.79.78zm-85.49-35.09v.79a.78.78 0 0 0 .79.78h3.52v3.52a.78.78 0 0 0 .78.79h.78a.79.79 0 0 0 .79-.79h0v-3.52h3.52a.78.78 0 0 0 .78-.79h0v-.78a.78.78 0 0 0-.78-.78h-3.52v-3.52a.78.78 0 0 0-.79-.78h-.78a.78.78 0 0 0-.78.78h0v3.53h-3.52a.78.78 0 0 0-.79.78zm45.67-45.16v.52a.52.52 0 0 0 .52.52h2.35v2.35a.52.52 0 0 0 .52.52h.52a.52.52 0 0 0 .53-.52v-2.35h2.35a.52.52 0 0 0 .52-.52v-.52a.52.52 0 0 0-.52-.52h-2.35v-2.32a.52.52 0 0 0-.53-.52h-.52a.52.52 0 0 0-.52.52v2.35h-2.35a.52.52 0 0 0-.52.49z" stroke="#4d4d4d" stroke-width=".5" class="W S"/><circle cx="210.37" cy="177.4" r="160.38" fill="#f4f9fd"/><ellipse cx="297.64" cy="454.37" rx="156" ry="6.94" class="X"/><g fill="#414042"><path d="M140.16 394.31a.82.82 0 0 1-.82-.82h0v-7.18a.83.83 0 0 1 1.266-.794.83.83 0 0 1 .384.794v7.19a.82.82 0 0 1-.82.82z"/><path d="M143.76 390.68h-7.19a.83.83 0 0 1 0-1.65h7.19a.83.83 0 0 1 0 1.65z"/><path d="M142.66 390.6a3.23 3.23 0 0 0-1.75 1.75.82.82 0 0 1-1.09.4.78.78 0 0 1-.4-.4 3.23 3.23 0 0 0-1.75-1.75.81.81 0 0 1-.4-1.1.86.86 0 0 1 .4-.4 3.2 3.2 0 0 0 1.75-1.79.82.82 0 0 1 1.09-.4.86.86 0 0 1 .4.4 3.2 3.2 0 0 0 1.75 1.75.83.83 0 0 1 .4 1.1.78.78 0 0 1-.4.44zM28.87 81.93a.82.82 0 0 1-.82-.82h0v-5.26a.83.83 0 0 1 1.65 0v5.26a.82.82 0 0 1-.82.82z"/><path d="M31.51 79.31h-5.26a.83.83 0 0 1 0-1.65h5.26a.83.83 0 0 1 0 1.65z"/><path d="M30.7 79.03a2.31 2.31 0 0 0-1.28 1.28.6.6 0 0 1-.8.3.59.59 0 0 1-.3-.3 2.25 2.25 0 0 0-1.28-1.27.62.62 0 0 1-.3-.8.59.59 0 0 1 .3-.3 2.3 2.3 0 0 0 1.28-1.28.61.61 0 0 1 .8-.3.62.62 0 0 1 .3.3 2.36 2.36 0 0 0 1.28 1.28.6.6 0 0 1 .3.8.62.62 0 0 1-.3.29zm460.11 274.78a.83.83 0 0 1-.83-.82h0v-8.8a.83.83 0 0 1 1.65 0h0v8.79a.82.82 0 0 1-.81.83z"/><path d="M495.2 349.41h-8.79a.82.82 0 0 1 0-1.64h8.79a.82.82 0 0 1 0 1.64z"/><path d="M493.86 349.5a3.94 3.94 0 0 0-2.14 2.14 1 1 0 0 1-1.34.49 1 1 0 0 1-.49-.49 3.94 3.94 0 0 0-2.14-2.14 1 1 0 0 1 0-1.83 3.91 3.91 0 0 0 2.14-2.14 1 1 0 0 1 1.83 0 3.91 3.91 0 0 0 2.14 2.14 1 1 0 0 1 .49 1.34 1 1 0 0 1-.49.49zM167.32 48.61a.82.82 0 0 1-.82-.82h0v-8.8a.83.83 0 0 1 1.65 0v8.8a.82.82 0 0 1-.82.82z"/><path d="M171.68 44.21h-8.8a.83.83 0 0 1 0-1.65h8.8a.83.83 0 0 1 0 1.65z"/><path d="M170.32 44.31a3.91 3.91 0 0 0-2.14 2.14 1 1 0 0 1-1.34.49 1 1 0 0 1-.49-.49 3.94 3.94 0 0 0-2.14-2.14 1 1 0 0 1-.49-1.34 1 1 0 0 1 .49-.49 3.88 3.88 0 0 0 2.14-2.14 1 1 0 0 1 1.34-.48 1 1 0 0 1 .49.48 3.85 3.85 0 0 0 2.14 2.14 1 1 0 0 1 0 1.83zM3.22 281.65a3.23 3.23 0 1 1 3.23-3.22h0a3.23 3.23 0 0 1-3.23 3.22zm0-4.81a1.59 1.59 0 1 0 1.58 1.59h0a1.57 1.57 0 0 0-1.58-1.58zM306.01 6.45a3.23 3.23 0 1 1 3.22-3.23h0a3.23 3.23 0 0 1-3.22 3.23zm0-4.81a1.59 1.59 0 1 0 1.58 1.58h0a1.58 1.58 0 0 0-1.58-1.58z"/></g><g class="S"><rect x="167.58" y="89.75" width="267.44" height="360.97" rx="10.98" fill="#fff" class="U"/><path class="K X" d="M180 104.73h242.23v310.55H180z" stroke="#e6e6e6" opacity=".75"/></g><circle cx="224.75" cy="155.7" r="23.56" class="U Z"/><g stroke="#fff" class="V"><circle cx="224.55" cy="150.67" r="7.88"/><path d="M211.32 168.01a18.25 18.25 0 0 1 7.08-7.54 12.1 12.1 0 0 1 13.76 1 17.6 17.6 0 0 1 5.31 7.42" class="S"/></g><circle cx="223.54" cy="264.69" r="23.56" class="U Z"/><g stroke="#fff" class="V"><circle cx="223.34" cy="259.67" r="7.88"/><path d="M210.08 277.01a18.25 18.25 0 0 1 7.08-7.54 12.1 12.1 0 0 1 13.76 1 17.6 17.6 0 0 1 5.31 7.42" class="S"/></g><circle cx="223.54" cy="373.57" r="23.56" class="U Z"/><g stroke="#fff" class="V"><circle cx="223.34" cy="368.55" r="7.88"/><path d="M210.08 385.89a18.33 18.33 0 0 1 7.08-7.55 12.12 12.12 0 0 1 13.76 1 17.72 17.72 0 0 1 5.31 7.42" class="S"/></g><path d="M272.16 128.11h1.42l1.68 6.62 1.83-6.62h1.49l1.7 6.59 1.7-6.59h1.42l-2.41 8.13h-1.51l-1.7-6.15-1.82 6.15h-1.49zm15.16 8.2a3.11 3.11 0 0 1-3.22-3v-.3a3.1 3.1 0 0 1 2.84-3.32h.38a3 3 0 0 1 3.14 2.87v.3a3.66 3.66 0 0 1 0 .66h-4.93a1.77 1.77 0 0 0 1.84 1.7h0a1.55 1.55 0 0 0 1.52-.9h1.44a2.93 2.93 0 0 1-3.01 1.99zm-1.82-3.9h3.56a1.66 1.66 0 0 0-1.74-1.6h-.09a1.74 1.74 0 0 0-1.78 1.63zm8.55 3.9a2.43 2.43 0 0 1-2.73-2h1.38a1.19 1.19 0 0 0 1.29 1c.77 0 1.18-.33 1.18-.77 0-1.27-3.74-.54-3.74-2.9 0-1 1-1.86 2.48-1.86a2.2 2.2 0 0 1 2.47 1.9v.17h-1.34a1.07 1.07 0 0 0-1.16-1h0c-.72 0-1.09.29-1.09.73 0 1.29 3.64.57 3.71 2.9.02 1.04-.93 1.83-2.45 1.83zm11.84-1.73h-3.4l-.59 1.66h-1.39l2.91-8.14h1.55l2.91 8.14h-1.4zm-1.69-4.87l-1.34 3.78h2.66zm6.27 6.53h-1.33v-6.45h1.33v.94a2.1 2.1 0 0 1 1.93-1v1.38h-.34c-1 0-1.59.41-1.59 1.78zm12.29-3.61c0-1.18-.64-1.78-1.61-1.78a1.55 1.55 0 0 0-1.64 1.48 1.51 1.51 0 0 0 0 .3v3.61h-1.31v-3.61a1.64 1.64 0 1 0-3.24 0v3.61h-1.34v-6.45h1.34v.74a2.43 2.43 0 0 1 1.9-.84 2.5 2.5 0 0 1 2.32 1.27 2.64 2.64 0 0 1 4.9 1.48v3.8h-1.32zm5.36 3.68a2.43 2.43 0 0 1-2.69-2.08h1.38a1.19 1.19 0 0 0 1.29 1c.76 0 1.18-.33 1.18-.77 0-1.27-3.75-.54-3.75-2.9 0-1 1-1.86 2.48-1.86a2.21 2.21 0 0 1 2.48 1.9 1 1 0 0 1 0 .17h-1.33a1.07 1.07 0 0 0-1.17-1h0c-.71 0-1.08.29-1.08.73 0 1.29 3.63.57 3.7 2.9-.02 1.12-.97 1.91-2.49 1.91zm4.11-5.43h-.76v-1.09h.76v-1.6h1.35v1.6h1.56v1.09h-1.56v3.57c0 .48.18.67.75.67h.81v1.12h-1.05c-1.15 0-1.86-.48-1.86-1.79zm5.47 5.36h-1.33v-6.45h1.33v.94a2.1 2.1 0 0 1 1.93-1v1.38h-.31c-1 0-1.59.41-1.59 1.78zm5.96.07a3.14 3.14 0 0 1-3.23-3 2.62 2.62 0 0 1 0-.28 3.29 3.29 0 1 1 6.57-.12v.12a3.22 3.22 0 0 1-3.11 3.33zm0-1.16a2 2 0 0 0 2-2v-.19a2 2 0 0 0-1.73-2.15h-.22a2.17 2.17 0 0 0-1.88 2.45 2.2 2.2 0 0 0 1.85 1.89zm9.23-2.52c0-1.18-.64-1.78-1.61-1.78a1.55 1.55 0 0 0-1.64 1.47 1.58 1.58 0 0 0 0 .31v3.61h-1.32v-6.45h1.33v.74a2.65 2.65 0 0 1 4.57 1.52 2.41 2.41 0 0 1 0 .38v3.8h-1.32zm5.61-2.94a2.74 2.74 0 0 1 2.24 1v-.94h1.34v6.56a2.92 2.92 0 0 1-2.76 3.08h-.39c-1.72 0-3-.86-3.15-2.28h1.31a1.81 1.81 0 0 0 1.84 1.12 1.71 1.71 0 0 0 1.81-1.62 1.51 1.51 0 0 0 0-.3v-1a2.78 2.78 0 0 1-2.23 1.08 3.12 3.12 0 0 1-3-3.19 1 1 0 0 1 0-.17 3.05 3.05 0 0 1 2.83-3.28zm.28 1.16a2 2 0 0 0-2 2 .76.76 0 0 0 0 .15 2 2 0 0 0 1.85 2.19h.1a2.18 2.18 0 0 0 0-4.34zm-82.87 116.1c-1.63 0-2.88-.89-2.88-2.33h1.43a1.31 1.31 0 0 0 1.39 1.22h.06c.94 0 1.46-.5 1.46-1.19 0-2-4.31-.69-4.31-3.69 0-1.42 1.13-2.31 2.79-2.31a2.48 2.48 0 0 1 2.77 2.15v.06h-1.47a1.27 1.27 0 0 0-1.37-1.08c-.77 0-1.37.35-1.37 1.14 0 1.83 4.31.69 4.31 3.66a2.53 2.53 0 0 1-2.65 2.39zm6.98-6.64a2.71 2.71 0 0 1 2.23 1v-.94h1.35v6.45h-1.35v-1a2.74 2.74 0 0 1-2.25 1.06 3.11 3.11 0 0 1-3-3.2.76.76 0 0 1 0-.15 3.07 3.07 0 0 1 2.83-3.29zm.28 1.16a2 2 0 0 0-2 2 .76.76 0 0 0 0 .15 2 2 0 0 0 1.85 2.19h.1a2.18 2.18 0 0 0 0-4.34zm9.62 1.84c0-1.18-.64-1.79-1.61-1.79a1.55 1.55 0 0 0-1.64 1.48 1.63 1.63 0 0 0 0 .31v3.6h-1.32v-6.45h1.33v.74a2.65 2.65 0 0 1 4.57 1.52 2.41 2.41 0 0 1 0 .38v3.81h-1.32zm5.63-3a3 3 0 0 1 2.22 1v-3.11h1.34v8.65h-1.34v-1a2.7 2.7 0 0 1-2.24 1.08 3.13 3.13 0 0 1-3.05-3.19v-.17a3.07 3.07 0 0 1 2.85-3.29zm.26 1.16a2 2 0 0 0-2 2v.15a2 2 0 0 0 1.86 2.19h.09a2.18 2.18 0 0 0 0-4.34zm6.39 5.4h-1.34v-6.45h1.34v.94a2.1 2.1 0 0 1 1.93-1v1.38h-.34c-1 0-1.59.41-1.59 1.78zm5.75-6.56a2.72 2.72 0 0 1 2.23 1v-.94h1.35v6.45h-1.35v-1a2.76 2.76 0 0 1-2.26 1.06 3.1 3.1 0 0 1-3-3.2v-.15a3.08 3.08 0 0 1 2.83-3.29zm.28 1.16a2 2 0 0 0-2 2 .76.76 0 0 0 0 .15 2 2 0 0 0 1.85 2.19h.1a2.18 2.18 0 0 0 0-4.34zm8.09-2.73h1.44l2.85 6.37 2.84-6.37h1.43v8.13h-1.33v-5.56l-2.48 5.57h-.92l-2.5-5.57v5.57h-1.33zm10.13-.02a.85.85 0 1 1 .85.85.83.83 0 0 1-.85-.83zm.17 1.7h1.33v6.45h-1.33zm3.31 1.09h-.76v-1.09h.76v-1.6h1.34v1.6h1.57v1.09h-1.57v3.57c0 .48.19.68.75.68h.82v1.11h-1c-1.15 0-1.86-.48-1.86-1.79zm6.85-1.2a2.8 2.8 0 0 1 3 2.14h-1.44a1.51 1.51 0 0 0-1.54-1c-1.07 0-1.78.8-1.78 2.2s.71 2.21 1.78 2.21a1.48 1.48 0 0 0 1.54-1h1.44a2.9 2.9 0 0 1-3 2.14 3.33 3.33 0 0 1 0-6.65zm4.3-2.1h1.37v3a2.54 2.54 0 0 1 2-.85 2.49 2.49 0 0 1 2.58 2.39 2 2 0 0 1 0 .35v3.81h-1.31v-3.6a1.64 1.64 0 1 0-3.24 0v3.61h-1.34zm10.37 8.76a3.12 3.12 0 0 1-3.22-3v-.31a3.08 3.08 0 0 1 2.84-3.31 2.41 2.41 0 0 1 .38 0 3 3 0 0 1 3.14 2.87v.3a4.89 4.89 0 0 1 0 .66h-4.93a1.78 1.78 0 0 0 1.84 1.71h0a1.57 1.57 0 0 0 1.52-.9h1.43a2.94 2.94 0 0 1-3 1.98zm-1.82-3.9h3.56a1.67 1.67 0 0 0-1.71-1.63h-.09a1.77 1.77 0 0 0-1.76 1.63zm6.25-4.86h1.34v8.66h-1.34zm3.09 0h1.33v8.66h-1.33zm5.42 8.76a2.43 2.43 0 0 1-2.69-2.08h1.38a1.18 1.18 0 0 0 1.29 1c.77 0 1.18-.33 1.18-.77 0-1.26-3.74-.54-3.74-2.9 0-1 1-1.86 2.48-1.86a2.19 2.19 0 0 1 2.47 1.9 1 1 0 0 1 0 .17h-1.31a1.07 1.07 0 0 0-1.17-1h0c-.71 0-1.09.29-1.09.73 0 1.29 3.64.57 3.71 2.9-.04 1.1-.99 1.91-2.51 1.91zm-86.34 106.56c0 2.51-1.71 4-4.32 4h-2.65v-8.13h2.66a3.94 3.94 0 0 1 4.3 3.54 5 5 0 0 1 .01.59zm-4.32 2.95a2.67 2.67 0 0 0 3-2.37 2.81 2.81 0 0 0 0-.58 2.71 2.71 0 0 0-2.39-3 2.62 2.62 0 0 0-.56 0h-1.33v5.95zm8.44 1.19a3.14 3.14 0 0 1-3.24-3.05 2.62 2.62 0 0 1 0-.28 3.29 3.29 0 1 1 6.57 0 3.23 3.23 0 0 1-3.12 3.33zm0-1.16a2 2 0 0 0 2-2 1.21 1.21 0 0 0 0-.19 1.94 1.94 0 0 0-1.72-2.15h-.22a1.91 1.91 0 0 0-1.92 1.91 2.09 2.09 0 0 0 0 .25 1.92 1.92 0 0 0 1.88 2.18zm9.28-2.54c0-1.19-.64-1.79-1.61-1.79a1.55 1.55 0 0 0-1.64 1.47 1.71 1.71 0 0 0 0 .32v3.6h-1.33v-6.45h1.33v.74a2.65 2.65 0 0 1 4.57 1.52 1.6 1.6 0 0 1 0 .38v3.8h-1.32zm7.54 0c0-1.19-.64-1.79-1.62-1.79a1.56 1.56 0 0 0-1.64 1.47 1.72 1.72 0 0 0 0 .32v3.6h-1.28v-6.45h1.33v.74a2.45 2.45 0 0 1 1.92-.84 2.51 2.51 0 0 1 2.65 2.36 2.38 2.38 0 0 1 0 .38v3.8h-1.32zm5.61-2.95a2.72 2.72 0 0 1 2.23 1v-.94h1.35v6.45h-1.35v-1a2.75 2.75 0 0 1-2.25 1.06 3.12 3.12 0 0 1-3-3.2.76.76 0 0 1 0-.15 3.06 3.06 0 0 1 2.83-3.29zm.28 1.16a2 2 0 0 0-2 2 .76.76 0 0 0 0 .15 2 2 0 0 0 1.85 2.19h.1a2.18 2.18 0 0 0 0-4.34zm12.99 3.73h-3.42l-.59 1.66h-1.41l2.91-8.14h1.54l2.92 8.14h-1.37zm-1.7-4.87l-1.33 3.78h2.66zm4.95-2.13h1.33v8.66h-1.33zm5.69 2.11a3 3 0 0 1 2.23 1v-3.11h1.34v8.65h-1.34v-1a2.7 2.7 0 0 1-2.24 1.08 3.12 3.12 0 0 1-3.05-3.19v-.17a3.08 3.08 0 0 1 2.84-3.29zm.27 1.16a2 2 0 0 0-2 2 .76.76 0 0 0 0 .15 2 2 0 0 0 1.85 2.19h.1a2.18 2.18 0 0 0 0-4.34zm6.37 5.39h-1.33v-6.45h1.33v.94a2.1 2.1 0 0 1 1.93-1v1.38h-.34c-1 0-1.59.41-1.59 1.78zm5.94.1a3.12 3.12 0 0 1-3.22-3v-.3a3.08 3.08 0 0 1 2.83-3.32h.38a3 3 0 0 1 3.14 2.87v.3a4.89 4.89 0 0 1-.05.66h-4.92a1.76 1.76 0 0 0 1.83 1.7h0a1.54 1.54 0 0 0 1.52-.9h1.44a2.93 2.93 0 0 1-2.95 1.99zm-1.82-3.9H344a1.66 1.66 0 0 0-1.71-1.63h-.09a1.75 1.75 0 0 0-1.76 1.63zm10.88.2c0-1.19-.65-1.79-1.62-1.79a1.56 1.56 0 0 0-1.64 1.47 1.72 1.72 0 0 0 0 .32v3.6h-1.34v-6.45h1.34v.74a2.45 2.45 0 0 1 1.92-.84 2.51 2.51 0 0 1 2.65 2.36v.38 3.8h-1.31z"/><rect x="272.8" y="159.9" width="48.23" height="20.46" rx="3.29" class="S U W"/><path d="M291.18 165.81v8.18h-1.64l-3.71-5.61v5.61h-1.63v-8.18h1.63l3.71 5.61v-5.61zm6.34 1.33h-3.1v2.05h2.75v1.3h-2.75v2.16h3.1v1.34h-4.73v-8.18h4.73zm.94-1.32h1.75l1.44 6.34 1.66-6.34h1.83l1.56 6.31 1.46-6.31h1.76l-2.28 8.17h-1.93l-1.54-5.82-1.6 5.82h-1.92z" fill="#fff"/><g class="V"><g class="U"><circle cx="299.1" cy="433.18" r="6.58"/><path d="M180 206.61h194.73m13.87.22h33.63M179.98 318.52h194.74m13.87.22h33.62" class="S"/></g><path d="M272.91 145.71h75.41m-75.43 4.85H336" class="T a S"/></g><rect x="273.96" y="269.75" width="48.23" height="20.46" rx="3.29" class="S U W"/><path d="M292.32 275.66v8.17h-1.64l-3.71-5.6v5.6h-1.65v-8.17h1.64l3.71 5.61v-5.61zm6.36 1.33h-3.1v2.05h2.74v1.27h-2.75v2.16h3.1v1.33h-4.73v-8.17h4.73zm.93-1.32h1.76l1.44 6.34 1.66-6.34h1.85l1.57 6.31 1.45-6.31h1.77l-2.29 8.16h-1.92l-1.58-5.81-1.6 5.81h-1.92z" fill="#fff"/><path d="M274.07 255.56h75.41m-75.43 4.85h63.11" class="S T V a"/><rect x="273.23" y="380.08" width="48.23" height="20.46" rx="3.29" class="S U W"/><path d="M291.6 386v8.17h-1.63l-3.71-5.6v5.6h-1.64V386h1.64l3.71 5.61V386zm6.35 1.31h-3.1v2.05h2.75v1.29h-2.75v2.17h3.1v1.33h-4.74v-8.17h4.74zm.93-1.3h1.76l1.44 6.34 1.66-6.34h1.82l1.57 6.3 1.45-6.3h1.74l-2.28 8.16h-1.93l-1.53-5.81-1.6 5.81h-1.92z" fill="#fff"/><path d="M273.34 365.9h75.41m-75.43 4.85h63.11" class="S T V a"/><path d="M247.37 169.02h-5v-5a1.12 1.12 0 0 0-1.12-1.12h-1.12a1.12 1.12 0 0 0-1.12 1.12v5h-5a1.12 1.12 0 0 0-1.12 1.12v1.17a1.12 1.12 0 0 0 1.12 1.12h5v5a1.12 1.12 0 0 0 1.12 1.12h1.12a1.12 1.12 0 0 0 1.07-1.14v-5h5a1.12 1.12 0 0 0 1.12-1.12v-1.12a1.12 1.12 0 0 0-1.07-1.15zm-2.27 110.75h-5v-5a1.12 1.12 0 0 0-1.12-1.12h-1.12a1.12 1.12 0 0 0-1.12 1.12v5h-5a1.12 1.12 0 0 0-1.12 1.12v1.12a1.12 1.12 0 0 0 1.12 1.12h5v5a1.12 1.12 0 0 0 1.12 1.12h1.12a1.12 1.12 0 0 0 1.12-1.12v-5h5a1.12 1.12 0 0 0 1.12-1.12v-1.12a1.13 1.13 0 0 0-1.12-1.12zm.73 108.15h-5v-5a1.12 1.12 0 0 0-1.12-1.11h-1.12a1.12 1.12 0 0 0-1.12 1.11v5h-5a1.12 1.12 0 0 0-1.12 1.12v1.12a1.12 1.12 0 0 0 1.12 1.11h5v5a1.12 1.12 0 0 0 1.12 1.12h1.12a1.12 1.12 0 0 0 1.12-1.12v-5h5a1.12 1.12 0 0 0 1.12-1.12v-1.12a1.12 1.12 0 0 0-1.12-1.11z" stroke-width=".5" class="U W S"/></svg>