<svg xmlns="http://www.w3.org/2000/svg" viewBox="0 0 513 393" xmlns:v="https://vecta.io/nano"><style><![CDATA[.E,.J{isolation:isolate}.P{stroke-miterlimit:10}.Q{stroke:#000}.R{fill:#3fa9f5}]]></style><ellipse cx="223.5" cy="386" rx="223.5" ry="7" fill="#f2f2f2"/><circle cx="313.82" cy="178.86" r="178.86" fill="#f4f9fd"/><path d="M512.45 279.06a3.63 3.63 0 0 0-2 2 .92.92 0 0 1-1.23.45h0a.83.83 0 0 1-.45-.45 3.66 3.66 0 0 0-2-2 .94.94 0 0 1-.45-1.25.9.9 0 0 1 .45-.45 3.66 3.66 0 0 0 2-2 .93.93 0 0 1 1.23-.46h0a.9.9 0 0 1 .45.45 3.65 3.65 0 0 0 2 2 .93.93 0 0 1 .46 1.24 1 1 0 0 1-.46.47zm-76.44-83.01a3.66 3.66 0 0 0-2 2 .94.94 0 0 1-1.74 0 3.6 3.6 0 0 0-2-2 .94.94 0 0 1-.51-1.23 1 1 0 0 1 .51-.51 3.57 3.57 0 0 0 2-2 .94.94 0 0 1 1.23-.51.91.91 0 0 1 .51.51 3.63 3.63 0 0 0 2 2 .94.94 0 0 1 .45 1.25.87.87 0 0 1-.45.49zM167.66 42.14a4.42 4.42 0 0 0-2.43 2.43 1.15 1.15 0 0 1-1.51.57h0a1.21 1.21 0 0 1-.57-.57 4.44 4.44 0 0 0-2.42-2.43 1.14 1.14 0 0 1-.58-1.5h0a1.21 1.21 0 0 1 .57-.57 4.45 4.45 0 0 0 2.43-2.43 1.14 1.14 0 0 1 2.08 0 4.45 4.45 0 0 0 2.43 2.43 1.14 1.14 0 0 1 .56 1.52h0a1.09 1.09 0 0 1-.56.55zm105.94 58.51a3.67 3.67 0 1 1 3.66-3.67h0a3.66 3.66 0 0 1-3.66 3.67zm0-5.47a1.79 1.79 0 1 0 1.8 1.78 1.79 1.79 0 0 0-1.8-1.77zm222.48-37.39a3.67 3.67 0 1 1 3.66-3.68h0a3.68 3.68 0 0 1-3.66 3.68zm0-5.47a1.8 1.8 0 1 0 1.8 1.8 1.79 1.79 0 0 0-1.8-1.8z" fill="#414042"/><g class="P"><path d="M121.1 70.41h209.56a11.21 11.21 0 0 1 11.21 11.21v290.7a11.21 11.21 0 0 1-11.21 11.21H121.1a11.2 11.2 0 0 1-11.2-11.2V81.61a11.2 11.2 0 0 1 11.2-11.2z" fill="#fff" class="Q"/><path class="E" d="M120.67 83.4h210.11v269.38H120.67z" fill="#f2f2f2" stroke="#e6e6e6" opacity=".75"/></g><g class="Q"><circle cx="223.98" cy="368.31" r="5.7" fill="none"/><g class="P"><path d="M155.32 178.65h135.85v93.43H155.32z" fill="#fff"/><path d="M155.13 178.65l6 17.73 61.51 32.52 62.5-34.75 6-15.5zm58.82 45.69l-52.79 31.64-6 16h136m-60.21-47.64l51.94 30.25 8.3 17.44" fill="none"/></g><circle cx="164.05" cy="188.84" r="18.86" class="R"/></g><g fill="#fff"><path d="M163.83 184.22h0l-2.19 1.18-.33-1.3 2.75-1.47h1.44v12.58h-1.64z"/><rect x="750.94" y="520.38" width="75.2" height="149.32" rx="16.45" transform="matrix(.983791 -.179317 .179317 .983791 -497.98 -130.59)" class="P Q"/></g><path class="J" d="M340.273 251.906l63.336-11.544 23.283 127.735-63.336 11.544z" fill="#e6e6e6" opacity=".47"/><circle cx="395.83" cy="380.05" r="2.97" fill="#fff" stroke="#414042"/><g class="P Q"><path d="M367.53 261.34c-8.72 1.57-14.76 8.58-13.49 15.67a11.56 11.56 0 0 0 5 7.42 16 16 0 0 1-2.32 6.52.5.5 0 0 0 .5.77 14.35 14.35 0 0 0 8.1-4.73 19.17 19.17 0 0 0 6.84 0c8.72-1.57 14.75-8.58 13.48-15.66s-9.39-11.51-18.11-9.99z" class="R"/><path d="M377.28 309.76c1.55 7 9.81 11.19 18.46 9.29a19.33 19.33 0 0 0 6.32-2.64 14.31 14.31 0 0 0 9.3 1.26.51.51 0 0 0 .38-.39.49.49 0 0 0-.21-.51 15.94 15.94 0 0 1-4.64-5.13 11.56 11.56 0 0 0 1.73-8.77c-1.54-7-9.81-11.19-18.46-9.29s-14.42 9.14-12.88 16.18z" fill="#7ac943"/><path d="M376.29 328.2c-8.72 1.57-14.76 8.58-13.49 15.67a11.6 11.6 0 0 0 5 7.43 16 16 0 0 1-2.32 6.51.5.5 0 0 0 0 .55.48.48 0 0 0 .5.22 14.35 14.35 0 0 0 8.1-4.73 19 19 0 0 0 6.84 0c8.72-1.57 14.75-8.58 13.48-15.66s-9.39-11.55-18.11-9.99z" class="R"/></g><path d="M360.11 279.71l15.23-3.13m6.53 29.32l20.98-4.32m-20.51 7.53l20.98-4.32M383 312.02l20.99-4.32m-45.03-33.95l20.98-4.32m-20.51 7.52l20.98-4.32m-12.5 67.29l20.99-4.32m-20.51 7.52l20.98-4.32m-20.3 7.64l8.33-1.71" fill="none" stroke="#fff" stroke-linecap="round" stroke-width="2" class="P"/><path d="M14.71 120.34a3.66 3.66 0 0 0-2 2 .92.92 0 0 1-1.23.46h0a.86.86 0 0 1-.45-.45 3.6 3.6 0 0 0-2-2 1 1 0 0 1-.46-1.25 1 1 0 0 1 .46-.45 3.65 3.65 0 0 0 2-2 .92.92 0 0 1 1.23-.45h0a.9.9 0 0 1 .45.45 3.66 3.66 0 0 0 2 2 .94.94 0 0 1 .46 1.25.92.92 0 0 1-.46.44z" fill="#414042"/><g class="P Q"><path d="M13.95 302.08l13.83-13.47h83.95v95.25H13.95z" fill="#e5f3fd"/><path d="M28.61 324.64h68.91m-68.69 2.76h68.9m-68.9 2.61h68.9m-69.2 6.41h68.9m-68.69 2.77h68.91m-68.91 2.61h68.91m-69.12 6.03h68.9m-68.69 2.77h68.91m-68.91 2.61h68.91" fill="none"/><path d="M13.95 302.08l14.56.67-.74-14.14z" fill="#bae0fc"/></g></svg>