<svg xmlns="http://www.w3.org/2000/svg" viewBox="0 0 480.11 295.64"><defs><style>.a{fill:#f2f2f2;}.b{fill:#414042;}.c{fill:#f4f9fd;}.d,.k,.m{fill:#fff;}.e{fill:#54a3f1;}.f{fill:#4096dd;}.g{fill:#ccc;opacity:0.45;}.g,.l{isolation:isolate;}.h{fill:#8bc220;}.i{fill:#d5e0b1;}.j{fill:none;}.j,.m{stroke:#414042;}.j,.k,.m{stroke-miterlimit:10;}.k{stroke:#000;}.l{fill:#e6e6e6;opacity:0.47;}.n{fill:#7ac943;}</style></defs><ellipse class="a" cx="252.16" cy="287.32" rx="220.06" ry="8.32"/><path class="b" d="M1196.14,626.1a.66.66,0,0,1-.66-.66h0v-5.72a.66.66,0,0,1,.66-.65.65.65,0,0,1,.65.65v5.72a.66.66,0,0,1-.65.66Z" transform="translate(-719.55 -392.17)"/><path class="b" d="M1199,623.24h-5.72a.66.66,0,1,1,0-1.31H1199a.66.66,0,0,1,0,1.31Z" transform="translate(-719.55 -392.17)"/><path class="b" d="M1198.12,623.18a2.56,2.56,0,0,0-1.39,1.39.65.65,0,0,1-.87.32.71.71,0,0,1-.32-.32,2.56,2.56,0,0,0-1.39-1.39.65.65,0,0,1-.32-.87.66.66,0,0,1,.32-.32,2.55,2.55,0,0,0,1.39-1.4.65.65,0,0,1,.87-.31.61.61,0,0,1,.32.31,2.55,2.55,0,0,0,1.39,1.4.65.65,0,0,1,.32.87A.66.66,0,0,1,1198.12,623.18Z" transform="translate(-719.55 -392.17)"/><circle class="c" cx="140.98" cy="142.89" r="133.46"/><path class="b" d="M723,478.44a.66.66,0,0,1-.66-.65h0v-5.72a.66.66,0,0,1,.66-.65.65.65,0,0,1,.65.65v5.72a.65.65,0,0,1-.65.66Z" transform="translate(-719.55 -392.17)"/><path class="b" d="M725.9,475.58h-5.73a.66.66,0,0,1,0-1.31h5.73a.66.66,0,0,1,.63.68A.67.67,0,0,1,725.9,475.58Z" transform="translate(-719.55 -392.17)"/><path class="b" d="M725,475.52a2.56,2.56,0,0,0-1.39,1.39.65.65,0,0,1-.87.32.71.71,0,0,1-.32-.32,2.56,2.56,0,0,0-1.39-1.39.65.65,0,0,1-.32-.87.66.66,0,0,1,.32-.32,2.56,2.56,0,0,0,1.39-1.39.65.65,0,0,1,.87-.32.62.62,0,0,1,.32.32,2.56,2.56,0,0,0,1.39,1.39.65.65,0,0,1,.32.87A.66.66,0,0,1,725,475.52Z" transform="translate(-719.55 -392.17)"/><path class="b" d="M1124.85,534.86a.65.65,0,0,1-.65-.65h0v-5.72a.64.64,0,0,1,.68-.63.65.65,0,0,1,.63.63v5.72A.66.66,0,0,1,1124.85,534.86Z" transform="translate(-719.55 -392.17)"/><path class="b" d="M1127.71,532H1122a.65.65,0,0,1-.65-.65.66.66,0,0,1,.65-.66h5.72a.67.67,0,0,1,.66.66A.66.66,0,0,1,1127.71,532Z" transform="translate(-719.55 -392.17)"/><path class="b" d="M1126.84,531.94a2.55,2.55,0,0,0-1.39,1.4.67.67,0,0,1-.88.31.62.62,0,0,1-.31-.31,2.53,2.53,0,0,0-1.4-1.4.65.65,0,0,1-.31-.87.69.69,0,0,1,.31-.32,2.55,2.55,0,0,0,1.4-1.39.65.65,0,0,1,.87-.32.71.71,0,0,1,.32.32,2.56,2.56,0,0,0,1.39,1.39.66.66,0,0,1,0,1.19Z" transform="translate(-719.55 -392.17)"/><path class="b" d="M1124.48,620.41a.66.66,0,0,1-.66-.65h0v-4.18a.66.66,0,0,1,.66-.65.65.65,0,0,1,.65.65v4.18A.65.65,0,0,1,1124.48,620.41Z" transform="translate(-719.55 -392.17)"/><path class="b" d="M1126.57,618.32h-4.18a.66.66,0,0,1-.66-.65.67.67,0,0,1,.66-.66h4.18a.66.66,0,0,1,.65.66.65.65,0,0,1-.65.65Z" transform="translate(-719.55 -392.17)"/><path class="b" d="M1125.93,618.1a1.89,1.89,0,0,0-1,1,.47.47,0,0,1-.63.23.45.45,0,0,1-.24-.23,1.84,1.84,0,0,0-1-1,.47.47,0,0,1,0-.87,1.81,1.81,0,0,0,1-1,.49.49,0,0,1,.64-.23.47.47,0,0,1,.23.23,1.86,1.86,0,0,0,1,1,.47.47,0,0,1,0,.87Z" transform="translate(-719.55 -392.17)"/><path class="b" d="M855.09,400.5a.65.65,0,0,1-.65-.65h0v-7a.64.64,0,0,1,.63-.67.65.65,0,0,1,.68.62v7a.66.66,0,0,1-.66.66Z" transform="translate(-719.55 -392.17)"/><path class="b" d="M858.59,397h-7a.66.66,0,0,1,0-1.31h7a.66.66,0,1,1,0,1.31Z" transform="translate(-719.55 -392.17)"/><path class="b" d="M857.53,397.07a3.08,3.08,0,0,0-1.7,1.7.8.8,0,0,1-1.06.4.78.78,0,0,1-.4-.4,3.11,3.11,0,0,0-1.7-1.7.8.8,0,0,1-.4-1.06.84.84,0,0,1,.4-.39,3.11,3.11,0,0,0,1.7-1.7.81.81,0,0,1,1.06-.4.78.78,0,0,1,.4.4,3.08,3.08,0,0,0,1.7,1.7.79.79,0,0,1,.39,1.06A.82.82,0,0,1,857.53,397.07Z" transform="translate(-719.55 -392.17)"/><path class="b" d="M745.5,560.28a2.57,2.57,0,1,1,2.57-2.57h0A2.57,2.57,0,0,1,745.5,560.28Zm0-3.82a1.26,1.26,0,1,0,1.26,1.26A1.26,1.26,0,0,0,745.5,556.46Z" transform="translate(-719.55 -392.17)"/><path class="b" d="M955.39,432.44a2.57,2.57,0,1,1,2.57-2.56h0A2.57,2.57,0,0,1,955.39,432.44Zm0-3.82a1.26,1.26,0,1,0,1.26,1.26A1.26,1.26,0,0,0,955.39,428.62Z" transform="translate(-719.55 -392.17)"/><rect class="d" x="66.26" y="60.03" width="311.7" height="224.47"/><rect class="e" x="83.22" y="106.81" width="32.76" height="32.76"/><rect class="f" x="110.67" y="106.81" width="5.31" height="32.76"/><rect class="e" x="166.9" y="148.87" width="32.76" height="32.76"/><rect class="f" x="194.35" y="148.87" width="5.31" height="32.76"/><rect class="e" x="248.37" y="106.81" width="32.76" height="32.76"/><rect class="f" x="275.82" y="106.81" width="5.31" height="32.76"/><rect class="e" x="329.83" y="235.21" width="32.76" height="32.76"/><rect class="f" x="357.28" y="235.21" width="5.31" height="32.76"/><rect class="e" x="166.9" y="234.76" width="32.76" height="32.76"/><rect class="f" x="194.35" y="234.76" width="5.31" height="32.76"/><rect class="e" x="248.37" y="191.82" width="32.76" height="32.76"/><rect class="f" x="275.82" y="191.82" width="5.31" height="32.76"/><rect class="e" x="82.78" y="191.37" width="32.76" height="32.76"/><rect class="f" x="110.23" y="191.37" width="5.31" height="32.76"/><rect class="e" x="329.83" y="148.87" width="32.76" height="32.76"/><rect class="f" x="357.28" y="148.87" width="5.31" height="32.76"/><rect class="g" x="366.32" y="127.48" width="11.05" height="156.43"/><rect class="h" x="66.84" y="60.32" width="311.7" height="30.99"/><rect class="i" x="66.84" y="60.32" width="310.81" height="6.2"/><rect class="j" x="66.84" y="60.54" width="311.7" height="223.37"/><line class="j" x1="66.84" y1="91.38" x2="332.93" y2="91.38"/><line class="j" x1="378.54" y1="91.38" x2="354.19" y2="91.38"/><path class="j" d="M835.16,522.35v9H802.33V498.53h32.83v14.05" transform="translate(-719.55 -392.17)"/><path class="j" d="M876.34,522.42v9H843.51V498.61h32.83v14" transform="translate(-719.55 -392.17)"/><path class="j" d="M918.9,522.42v9H886.07V498.61H918.9v14" transform="translate(-719.55 -392.17)"/><path class="j" d="M960.24,522.42v9H927.41V498.61h32.83v14" transform="translate(-719.55 -392.17)"/><path class="j" d="M1000.37,522.42v9H967.54V498.61h32.83v14" transform="translate(-719.55 -392.17)"/><path class="j" d="M1040.19,522.73v9h-32.83V498.91h32.83V513" transform="translate(-719.55 -392.17)"/><path class="j" d="M1082.14,522.73v9h-32.83V498.91h32.83V513" transform="translate(-719.55 -392.17)"/><path class="j" d="M835.37,564.3v9H802.53V540.48h32.84v14" transform="translate(-719.55 -392.17)"/><path class="j" d="M876.55,564.37v9H843.71V540.55h32.84V554.6" transform="translate(-719.55 -392.17)"/><path class="j" d="M919.11,564.37v9H886.27V540.55h32.84V554.6" transform="translate(-719.55 -392.17)"/><path class="j" d="M960.45,564.37v9H927.62V540.55h32.83V554.6" transform="translate(-719.55 -392.17)"/><path class="j" d="M1000.58,564.37v9H967.74V540.55h32.84V554.6" transform="translate(-719.55 -392.17)"/><path class="j" d="M1040.4,564.67v9h-32.83V540.86h32.83v14" transform="translate(-719.55 -392.17)"/><path class="j" d="M1082.35,564.67v9h-32.83V540.86h32.83v14" transform="translate(-719.55 -392.17)"/><path class="j" d="M835.37,607.68v9H802.53V583.87h32.84v14" transform="translate(-719.55 -392.17)"/><path class="j" d="M876.55,607.76v9H843.71V583.94h32.84v14" transform="translate(-719.55 -392.17)"/><path class="j" d="M919.11,607.76v9H886.27V583.94h32.84v14" transform="translate(-719.55 -392.17)"/><path class="j" d="M960.45,607.76v9H927.62V583.94h32.83v14" transform="translate(-719.55 -392.17)"/><path class="j" d="M1000.58,607.76v9H967.74V583.94h32.84v14" transform="translate(-719.55 -392.17)"/><path class="j" d="M1040.4,608.06v9h-32.83V584.24h32.83v14" transform="translate(-719.55 -392.17)"/><path class="j" d="M1082.35,608.06v9h-32.83V584.24h32.83v14" transform="translate(-719.55 -392.17)"/><path class="j" d="M835.37,650.63v9H802.53V626.81h32.84v14.05" transform="translate(-719.55 -392.17)"/><path class="j" d="M876.55,650.71v9H843.71V626.89h32.84v14.05" transform="translate(-719.55 -392.17)"/><path class="j" d="M919.11,650.71v9H886.27V626.89h32.84v14.05" transform="translate(-719.55 -392.17)"/><path class="j" d="M960.45,650.71v9H927.62V626.89h32.83v14.05" transform="translate(-719.55 -392.17)"/><path class="j" d="M1000.58,650.71v9H967.74V626.89h32.84v14.05" transform="translate(-719.55 -392.17)"/><path class="j" d="M1040.4,651v9h-32.83V627.19h32.83v14" transform="translate(-719.55 -392.17)"/><path class="j" d="M1082.35,651v9h-32.83V627.19h32.83v14" transform="translate(-719.55 -392.17)"/><rect class="k" x="371.85" y="124.28" width="80.83" height="160.5" rx="10"/><rect class="l" x="377.37" y="130.97" width="69.2" height="139.57"/><circle class="m" cx="411.39" cy="277.22" r="3.2"/><rect class="n" x="385.72" y="168.27" width="14.83" height="14.83"/><rect class="n" x="423.6" y="187.31" width="14.83" height="14.83"/><rect class="n" x="423.6" y="226.19" width="14.83" height="14.83"/><rect class="n" x="385.52" y="206.55" width="14.83" height="14.83"/><path class="j" d="M1119.93,571v4.08h-14.86V560.23h14.86v6.36" transform="translate(-719.55 -392.17)"/><path class="j" d="M1138.57,571.05v4.08h-14.86V560.26h14.86v6.36" transform="translate(-719.55 -392.17)"/><path class="j" d="M1157.84,571.05v4.08H1143V560.26h14.86v6.36" transform="translate(-719.55 -392.17)"/><path class="j" d="M1120,590v4.08h-14.86V579.22H1120v6.35" transform="translate(-719.55 -392.17)"/><path class="j" d="M1138.67,590v4.08H1123.8V579.25h14.87v6.36" transform="translate(-719.55 -392.17)"/><path class="j" d="M1157.93,590v4.08h-14.86V579.25h14.86v6.36" transform="translate(-719.55 -392.17)"/><path class="j" d="M1120,609.64v4.08h-14.86V598.86H1120v6.36" transform="translate(-719.55 -392.17)"/><path class="j" d="M1138.67,609.67v4.08H1123.8V598.89h14.87v6.36" transform="translate(-719.55 -392.17)"/><path class="j" d="M1157.93,609.67v4.08h-14.86V598.89h14.86v6.36" transform="translate(-719.55 -392.17)"/><path class="j" d="M1120,629.08v4.08h-14.86V618.3H1120v6.36" transform="translate(-719.55 -392.17)"/><path class="j" d="M1138.67,629.12v4.08H1123.8V618.33h14.87v6.36" transform="translate(-719.55 -392.17)"/><path class="j" d="M1157.93,629.12v4.08h-14.86V618.33h14.86v6.36" transform="translate(-719.55 -392.17)"/></svg>