<svg xmlns="http://www.w3.org/2000/svg" viewBox="0 0 531.93 437.06"><defs><style>.a{fill:#f2f2f2;}.b{fill:#f4f9fd;}.c{fill:#ededed;}.c,.d,.g,.h,.j,.k,.n,.o{stroke:#000;}.c,.d,.g,.h,.i,.j,.k,.n,.o{stroke-miterlimit:10;}.d{fill:#f4f4f4;}.e{fill:#414042;}.f,.g{fill:#fff;}.h,.i,.j{fill:none;}.i{stroke:#c6c6c6;}.i,.j{stroke-width:3px;}.k{fill:#7ac943;}.l,.o{fill:#3fa9f5;}.l{opacity:0.06;}.l,.q{isolation:isolate;}.m{fill:#ccc;}.n{fill:#333;}.p{fill:#ee0005;}.q{fill:#f99f00;opacity:0.87;}</style></defs><ellipse class="a" cx="152.73" cy="397.54" rx="82.44" ry="6.8"/><ellipse class="a" cx="116.51" cy="430.25" rx="82.44" ry="6.8"/><circle class="b" cx="187.59" cy="186.23" r="166.09"/><rect class="c" x="176.21" y="52.92" width="254.15" height="307.69"/><rect class="d" x="169.83" y="58.86" width="254.15" height="307.69"/><path class="e" d="M1527.51,538.86a.8.8,0,0,1-.8-.8h0v-5.14a.81.81,0,0,1,1.61,0v5.14a.8.8,0,0,1-.81.8Z" transform="translate(-998.96 -307.94)"/><path class="e" d="M1530.08,536.29H1525a.8.8,0,1,1,0-1.6h5.13a.8.8,0,0,1,0,1.6Z" transform="translate(-998.96 -307.94)"/><path class="e" d="M1529.3,536a2.32,2.32,0,0,0-1.25,1.25.58.58,0,0,1-.77.3.59.59,0,0,1-.3-.3,2.29,2.29,0,0,0-1.25-1.25.58.58,0,0,1-.29-.77.55.55,0,0,1,.29-.29,2.29,2.29,0,0,0,1.25-1.25.58.58,0,0,1,.77-.3.55.55,0,0,1,.3.3,2.32,2.32,0,0,0,1.25,1.25.58.58,0,0,1,.3.77A.57.57,0,0,1,1529.3,536Z" transform="translate(-998.96 -307.94)"/><path class="e" d="M1002.33,447.07a.8.8,0,0,1-.81-.8h0v-5.13a.81.81,0,1,1,1.61,0v5.13a.8.8,0,0,1-.8.8Z" transform="translate(-998.96 -307.94)"/><path class="e" d="M1004.89,444.51h-5.13a.81.81,0,0,1,0-1.61h5.13a.81.81,0,1,1,0,1.61Z" transform="translate(-998.96 -307.94)"/><path class="e" d="M1004.11,444.24a2.26,2.26,0,0,0-1.25,1.25.59.59,0,0,1-.77.29.6.6,0,0,1-.3-.29,2.26,2.26,0,0,0-1.25-1.25.58.58,0,0,1,0-1.07,2.26,2.26,0,0,0,1.25-1.25.58.58,0,0,1,1.07,0,2.26,2.26,0,0,0,1.25,1.25.58.58,0,0,1,.3.77A.62.62,0,0,1,1004.11,444.24Z" transform="translate(-998.96 -307.94)"/><path class="e" d="M1474.34,440a.8.8,0,0,1-.8-.8h0V430.6a.8.8,0,1,1,1.6,0v8.59a.8.8,0,0,1-.8.8Z" transform="translate(-998.96 -307.94)"/><path class="e" d="M1478.64,435.69H1470a.8.8,0,0,1-.77-.83.81.81,0,0,1,.77-.77h8.6a.8.8,0,0,1,.06,1.6Z" transform="translate(-998.96 -307.94)"/><path class="e" d="M1477.33,435.79a3.78,3.78,0,0,0-2.1,2.09,1,1,0,0,1-1.31.47.9.9,0,0,1-.47-.47,3.81,3.81,0,0,0-2.1-2.09,1,1,0,0,1-.47-1.32,1,1,0,0,1,.47-.47,3.84,3.84,0,0,0,2.1-2.09,1,1,0,0,1,1.31-.48,1,1,0,0,1,.47.48,3.81,3.81,0,0,0,2.1,2.09,1,1,0,0,1,.47,1.31A1,1,0,0,1,1477.33,435.79Z" transform="translate(-998.96 -307.94)"/><path class="e" d="M1190.38,318.14a.8.8,0,0,1-.8-.8h0v-8.59a.8.8,0,1,1,1.6,0v8.59A.8.8,0,0,1,1190.38,318.14Z" transform="translate(-998.96 -307.94)"/><path class="e" d="M1194.68,313.85h-8.6a.81.81,0,0,1,0-1.61h8.6a.81.81,0,0,1,0,1.61Z" transform="translate(-998.96 -307.94)"/><path class="e" d="M1193.37,313.94a3.81,3.81,0,0,0-2.1,2.09,1,1,0,0,1-1.31.48,1,1,0,0,1-.47-.48,3.79,3.79,0,0,0-2.09-2.09,1,1,0,0,1-.48-1.31.94.94,0,0,1,.48-.48,3.83,3.83,0,0,0,2.09-2.09,1,1,0,0,1,1.31-.48,1,1,0,0,1,.47.48,3.84,3.84,0,0,0,2.1,2.09,1,1,0,0,1,.48,1.31A1,1,0,0,1,1193.37,313.94Z" transform="translate(-998.96 -307.94)"/><path class="e" d="M1055.84,514.3a3.16,3.16,0,1,1,3.16-3.16,3.16,3.16,0,0,1-3.16,3.16Zm0-4.7a1.55,1.55,0,1,0,1.55,1.55A1.54,1.54,0,0,0,1055.84,509.6Z" transform="translate(-998.96 -307.94)"/><path class="e" d="M1313.51,343.08a3.16,3.16,0,1,1,3.16-3.16,3.15,3.15,0,0,1-3.16,3.16Zm0-4.7a1.55,1.55,0,1,0,1.55,1.55h0a1.54,1.54,0,0,0-1.55-1.55Z" transform="translate(-998.96 -307.94)"/><path class="e" d="M1455.85,594.64a3.16,3.16,0,1,1,3.15-3.16h0A3.16,3.16,0,0,1,1455.85,594.64Zm0-4.7a1.55,1.55,0,1,0,1.54,1.55A1.54,1.54,0,0,0,1455.85,589.94Z" transform="translate(-998.96 -307.94)"/><rect class="f" x="164.94" y="65.74" width="252.72" height="307.69"/><rect class="g" x="163.15" y="65.38" width="254.15" height="314.08"/><path d="M1334.15,409.36h1.63v9.93h-1.63Z" transform="translate(-998.96 -307.94)"/><path d="M1346.07,409.34v9.94h-1.63l-4.89-7.41v7.41h-1.63v-9.94h1.63l4.89,7.4v-7.4Z" transform="translate(-998.96 -307.94)"/><path d="M1355.05,409.36h1.72l-3.73,9.93h-1.89l-3.73-9.93h1.74l2.94,8.25Z" transform="translate(-998.96 -307.94)"/><path d="M1365.33,408.69c2.91,0,3.71,2.28,3.71,5.26s-.8,5.31-3.71,5.31-3.71-2.29-3.71-5.31S1362.42,408.69,1365.33,408.69Zm0,1.48c-1.9,0-2.11,1.83-2.11,3.77s.21,3.83,2.11,3.83,2.11-1.78,2.11-3.83S1367.23,410.17,1365.33,410.17Z" transform="translate(-998.96 -307.94)"/><path d="M1371.88,410.36h-1.32v-1.49h3v10.42h-1.65Z" transform="translate(-998.96 -307.94)"/><path d="M1379.15,408.63c2.07,0,3.2,1.2,3.2,2.71a2.43,2.43,0,0,1-1.6,2.36v.06a2.54,2.54,0,0,1,1.79,2.67c0,1.66-1.17,2.91-3.35,2.91-2,0-3.5-1-3.59-3.07h1.57a1.82,1.82,0,0,0,1.95,1.72h.06a1.64,1.64,0,0,0,1.81-1.45,1.22,1.22,0,0,0,0-.27c0-1.37-.88-1.84-2.58-1.84H1378v-1.34h.38c1.47,0,2.37-.44,2.37-1.56,0-.9-.58-1.5-1.7-1.5a1.62,1.62,0,0,0-1.77,1.42h-1.58a3,3,0,0,1,3.26-2.83Z" transform="translate(-998.96 -307.94)"/><path d="M1389.85,411.29a1.56,1.56,0,0,0-1.73-1.31c-1.47,0-2.23,1-2.27,3.73a3,3,0,0,1,2.63-1.32,3.1,3.1,0,0,1,3.21,3,3.27,3.27,0,0,1,0,.44,3.23,3.23,0,0,1-3,3.47h-.47c-3,0-3.81-2.13-3.81-5.44s1.08-5.23,3.68-5.23a3,3,0,0,1,3.22,2.67Zm-3.82,4.5a2,2,0,0,0,1.8,2.14h.35a2.09,2.09,0,0,0-.06-4.17,2,2,0,0,0-2.08,1.8,1.69,1.69,0,0,0,0,.23Z" transform="translate(-998.96 -307.94)"/><line class="h" x1="163.15" y1="135.43" x2="366.26" y2="135.43"/><line class="h" x1="375.89" y1="135.22" x2="416.95" y2="135.22"/><path d="M1363.76,632.67c-1.74-.16-3-1.12-3-2.73h1.74a1.43,1.43,0,0,0,1.26,1.38v-3.14c-1.43-.35-3-.75-3-2.77a2.94,2.94,0,0,1,3-2.85v-1.17h.93v1.15a2.82,2.82,0,0,1,2.88,2.66h-1.74a1.44,1.44,0,0,0-1.14-1.27V627c1.43.35,3,.73,3,2.75a3,3,0,0,1-3,2.9v1.16h-.93Zm0-5.9v-2.89a1.39,1.39,0,0,0-1.34,1.42v0c0,.82.57,1.2,1.34,1.44Zm.93,1.66v2.9a1.48,1.48,0,0,0,1.34-1.49c0-.82-.57-1.17-1.34-1.41Z" transform="translate(-998.96 -307.94)"/><path d="M1371.16,623.65h-1.33v-1.48h3v10.41h-1.64Z" transform="translate(-998.96 -307.94)"/><path d="M1381.75,622.14v1.42H1377v2.85a2.77,2.77,0,0,1,2.16-.95,3.19,3.19,0,0,1,3.35,3,3.85,3.85,0,0,1,0,.48,3.35,3.35,0,0,1-3,3.64,3.62,3.62,0,0,1-.57,0,3.31,3.31,0,0,1-3.62-2.82h1.58a2.1,2.1,0,0,0,4.09-.78,2,2,0,0,0-3.9-.83h-1.55v-6Z" transform="translate(-998.96 -307.94)"/><path d="M1387.88,622c2.91,0,3.71,2.29,3.71,5.26s-.8,5.31-3.71,5.31-3.72-2.28-3.72-5.31S1385,622,1387.88,622Zm0,1.49c-1.9,0-2.12,1.83-2.12,3.77s.22,3.83,2.12,3.83,2.11-1.79,2.11-3.83S1389.78,623.47,1387.88,623.47Z" transform="translate(-998.96 -307.94)"/><line class="i" x1="215.98" y1="168.17" x2="332.66" y2="168.17"/><line class="i" x1="216.03" y1="175.37" x2="303.44" y2="175.37"/><line class="i" x1="217.15" y1="215.34" x2="333.83" y2="215.34"/><line class="i" x1="217.2" y1="222.54" x2="304.6" y2="222.54"/><line class="i" x1="217.15" y1="263.17" x2="333.83" y2="263.17"/><line class="i" x1="217.2" y1="270.37" x2="304.6" y2="270.37"/><line class="j" x1="359.22" y1="168.25" x2="396.96" y2="168.25"/><line class="j" x1="358.71" y1="214.66" x2="396.45" y2="214.66"/><line class="j" x1="358.71" y1="263.2" x2="396.45" y2="263.2"/><rect class="k" x="234.88" y="306.95" width="92.47" height="29.3" rx="3.51"/><path class="l" d="M1049.31,697.46l129.58-30.77-.19,67.12H1049.31Z" transform="translate(-998.96 -307.94)"/><path class="f" d="M1247.45,630.56H1246V634h-1.8v-9h3.3c2.16,0,3.24,1.22,3.24,2.77C1250.69,629.17,1249.76,630.56,1247.45,630.56Zm-.08-1.46c1,0,1.47-.5,1.47-1.3s-.45-1.31-1.47-1.31H1246v2.61Z" transform="translate(-998.96 -307.94)"/><path class="f" d="M1257.46,632.29h-3.57l-.59,1.71h-1.89l3.22-9h2.1l3.23,9h-1.91Zm-1.78-5.19-1.3,3.75H1257Z" transform="translate(-998.96 -307.94)"/><path class="f" d="M1260.42,625h2l1.92,4.1,1.92-4.1h2l-3,5.85V634h-1.8v-3.12Z" transform="translate(-998.96 -307.94)"/><path class="f" d="M1276.55,634.09a4.6,4.6,0,1,1,4.59-4.6,4.5,4.5,0,0,1-4.41,4.6Zm0-1.61a3,3,0,1,0-2.74-3.22c0,.07,0,.15,0,.23a2.72,2.72,0,0,0,2.42,3Z" transform="translate(-998.96 -307.94)"/><path class="f" d="M1290.15,625v9h-1.79l-4.08-6.16V634h-1.8v-9h1.8l4.08,6.17V625Z" transform="translate(-998.96 -307.94)"/><path class="f" d="M1293.72,625v7.54h3V634h-4.76v-9Z" transform="translate(-998.96 -307.94)"/><path class="f" d="M1297.82,625h1.8v9h-1.8Z" transform="translate(-998.96 -307.94)"/><path class="f" d="M1309.07,625v9h-1.8l-4.08-6.16V634h-1.8v-9h1.8l4.08,6.17V625Z" transform="translate(-998.96 -307.94)"/><path class="f" d="M1316.05,626.48h-3.41v2.25h3v1.42h-3v2.38h3.41V634h-5.21v-9h5.21Z" transform="translate(-998.96 -307.94)"/><path class="m" d="M1197.63,473.59l-10.6,10.6-3.89-3.9a.51.51,0,0,0-.69,0h0l-1.14,1.14a.51.51,0,0,0,0,.69l5.38,5.37a.48.48,0,0,0,.68,0l12.08-12.08a.48.48,0,0,0,0-.68l-1.14-1.14A.48.48,0,0,0,1197.63,473.59Z" transform="translate(-998.96 -307.94)"/><path class="m" d="M1198.14,521.34l-10.6,10.6-3.89-3.9a.51.51,0,0,0-.69,0l-1.14,1.14a.51.51,0,0,0,0,.69h0l5.38,5.37a.48.48,0,0,0,.68,0h0L1200,523.16a.48.48,0,0,0,0-.68h0l-1.14-1.14A.48.48,0,0,0,1198.14,521.34Z" transform="translate(-998.96 -307.94)"/><path class="m" d="M1197.42,569.89l-10.59,10.59-3.9-3.89a.48.48,0,0,0-.68,0l-1.14,1.14a.48.48,0,0,0,0,.68h0l5.38,5.38a.48.48,0,0,0,.68,0h0l12.08-12.08a.48.48,0,0,0,0-.68l-1.14-1.14a.49.49,0,0,0-.69,0Z" transform="translate(-998.96 -307.94)"/><rect class="g" x="88.19" y="311.27" width="136.36" height="82.1" rx="3.51"/><rect class="n" x="88.19" y="321.98" width="136.36" height="12.85"/><rect class="o" x="47.5" y="344.82" width="136.36" height="82.1" rx="3.51"/><circle class="p" cx="150.18" cy="369.68" r="10.23"/><circle class="q" cx="164.7" cy="369.68" r="10.23"/><path d="M1064,707.62l-1.15,2h-1.71l2.06-3.18-2.09-3.15h1.81l1.28,2,1.17-2H1067l-2.08,3.15,2.11,3.18h-1.81Z" transform="translate(-998.96 -307.94)"/><path d="M1070.12,707.62l-1.15,2h-1.72l2.07-3.18-2.09-3.15H1069l1.29,2,1.17-2h1.71l-2.08,3.15,2.1,3.18h-1.8Z" transform="translate(-998.96 -307.94)"/><path d="M1076.29,707.62l-1.15,2h-1.72l2.07-3.18-2.09-3.15h1.81l1.28,2,1.17-2h1.71l-2.08,3.15,2.11,3.18h-1.81Z" transform="translate(-998.96 -307.94)"/><path d="M1082.46,707.62l-1.16,2h-1.71l2.07-3.18-2.09-3.15h1.81l1.29,2,1.17-2h1.71l-2.08,3.15,2.1,3.18h-1.8Z" transform="translate(-998.96 -307.94)"/><path d="M1091.35,707.62l-1.16,2h-1.71l2.07-3.18-2.1-3.15h1.81l1.29,2,1.16-2h1.72l-2.08,3.15,2.1,3.18h-1.8Z" transform="translate(-998.96 -307.94)"/><path d="M1097.51,707.62l-1.15,2h-1.71l2.06-3.18-2.09-3.15h1.81l1.29,2,1.17-2h1.71l-2.08,3.15,2.1,3.18h-1.8Z" transform="translate(-998.96 -307.94)"/><path d="M1103.68,707.62l-1.15,2h-1.72l2.07-3.18-2.09-3.15h1.8l1.29,2,1.17-2h1.71l-2.08,3.15,2.11,3.18H1105Z" transform="translate(-998.96 -307.94)"/><path d="M1109.85,707.62l-1.16,2H1107l2.07-3.18-2.09-3.15h1.8l1.29,2,1.17-2h1.71l-2.07,3.15,2.1,3.18h-1.81Z" transform="translate(-998.96 -307.94)"/><path d="M1118.73,707.62l-1.15,2h-1.71l2.06-3.18-2.09-3.15h1.81l1.28,2,1.17-2h1.72l-2.08,3.15,2.1,3.18H1120Z" transform="translate(-998.96 -307.94)"/><path d="M1124.9,707.62l-1.16,2H1122l2.07-3.18-2.09-3.15h1.81l1.29,2,1.17-2H1128l-2.08,3.15,2.1,3.18h-1.8Z" transform="translate(-998.96 -307.94)"/><path d="M1131.07,707.62l-1.15,2h-1.72l2.07-3.18-2.09-3.15h1.8l1.29,2,1.17-2h1.72l-2.08,3.15,2.1,3.18h-1.8Z" transform="translate(-998.96 -307.94)"/><path d="M1137.24,707.62l-1.16,2h-1.71l2.07-3.18-2.09-3.15h1.8l1.29,2,1.17-2h1.71l-2.08,3.15,2.1,3.18h-1.8Z" transform="translate(-998.96 -307.94)"/><path d="M1146.12,707.62l-1.15,2h-1.71l2.06-3.18-2.09-3.15H1145l1.29,2,1.17-2h1.71l-2.08,3.15,2.1,3.18h-1.8Z" transform="translate(-998.96 -307.94)"/><path d="M1152.29,707.62l-1.15,2h-1.71l2.06-3.18-2.09-3.15h1.81l1.28,2,1.17-2h1.72l-2.08,3.15,2.1,3.18h-1.81Z" transform="translate(-998.96 -307.94)"/><path d="M1158.46,707.62l-1.15,2h-1.72l2.07-3.18-2.09-3.15h1.8l1.3,2,1.16-2h1.72l-2.08,3.15,2.1,3.18h-1.8Z" transform="translate(-998.96 -307.94)"/><path d="M1164.63,707.62l-1.16,2h-1.71l2.07-3.18-2.09-3.15h1.81l1.28,2,1.17-2h1.71l-2.08,3.15,2.11,3.18h-1.81Z" transform="translate(-998.96 -307.94)"/></svg>