<svg xmlns="http://www.w3.org/2000/svg" xmlns:xlink="http://www.w3.org/1999/xlink" viewBox="0 0 534 343.32" xmlns:v="https://vecta.io/nano"><style><![CDATA[.F,.H{isolation:isolate}.P{stroke:#000}.Q{fill:#fff}.R{stroke-miterlimit:10}.S{fill:#f2f2f2}.T{stroke-width:.5}.U{fill:#7ac943}]]></style><path d="M404.72 45.72a2.94 2.94 0 0 0-1.61 1.62.77.77 0 0 1-1.38 0 2.88 2.88 0 0 0-1.61-1.62.75.75 0 0 1-.37-1 .74.74 0 0 1 .37-.37 2.88 2.88 0 0 0 1.61-1.62.76.76 0 0 1 1-.36.69.69 0 0 1 .37.36 2.94 2.94 0 0 0 1.61 1.62.75.75 0 0 1 .37 1 .69.69 0 0 1-.36.37z" fill="#414042"/><circle cx="178.06" cy="154.48" r="154.48" fill="#f4f9fd"/><g fill="#414042"><path d="M4.04 239.7a.76.76 0 0 1-.76-.75v-6.63a.75.75 0 0 1 .76-.75.74.74 0 0 1 .75.75v6.62a.74.74 0 0 1-.75.76z"/><path d="M7.35 236.39H.73a.76.76 0 0 1 0-1.51h6.62a.76.76 0 0 1 0 1.51z"/><path d="M6.34 236.32a2.94 2.94 0 0 0-1.61 1.62.77.77 0 0 1-1.38 0 2.94 2.94 0 0 0-1.61-1.62.75.75 0 0 1 0-1.37 2.94 2.94 0 0 0 1.61-1.62.77.77 0 0 1 1.38 0 2.94 2.94 0 0 0 1.61 1.62.75.75 0 0 1 0 1.37zm503.82-26.69a.75.75 0 0 1-.76-.75v-6.63a.76.76 0 0 1 1.51 0v6.63a.76.76 0 0 1-.75.75z"/><path d="M513.47 206.32h-6.63a.76.76 0 0 1 0-1.51h6.63a.76.76 0 0 1 0 1.51z"/><path d="M512.46 206.25a2.93 2.93 0 0 0-1.62 1.62.75.75 0 0 1-1 .36.7.7 0 0 1-.36-.36 2.93 2.93 0 0 0-1.62-1.62.75.75 0 0 1-.36-1 .7.7 0 0 1 .36-.36 2.93 2.93 0 0 0 1.62-1.62.75.75 0 0 1 1-.36.7.7 0 0 1 .36.36 2.93 2.93 0 0 0 1.62 1.62.75.75 0 0 1 .36 1 .7.7 0 0 1-.36.36zm-453-175.22a.74.74 0 0 1-.75-.75h0v-8.1a.75.75 0 0 1 .72-.79.76.76 0 0 1 .79.73v8.15a.76.76 0 0 1-.75.76z"/><path d="M63.51 26.99h-8.1a.76.76 0 0 1 0-1.52h8.1a.76.76 0 0 1 0 1.52z"/><path d="M62.28 27.07a3.66 3.66 0 0 0-2 2 .92.92 0 0 1-1.22.46.9.9 0 0 1-.46-.46 3.66 3.66 0 0 0-2-2 .92.92 0 0 1-.46-1.22.9.9 0 0 1 .46-.46 3.66 3.66 0 0 0 2-2 .92.92 0 0 1 1.22-.46.9.9 0 0 1 .46.46 3.66 3.66 0 0 0 2 2 .92.92 0 0 1 .46 1.22.9.9 0 0 1-.46.46zm468.75 234.55a3 3 0 1 1 3-3h0a3 3 0 0 1-3 3zm0-4.43a1.46 1.46 0 1 0 1.032.428 1.46 1.46 0 0 0-1.032-.428zM54.54 176.21a3 3 0 1 1 3-3h0a3 3 0 0 1-3 3zm0-4.43a1.46 1.46 0 1 0 1.46 1.46 1.45 1.45 0 0 0-1.46-1.46z"/></g><rect x="106.92" y="74.89" width="367.15" height="237.93" rx="10" class="P Q R"/><ellipse cx="290.24" cy="333.84" rx="216.39" ry="9.49" class="S"/><g class="P R"><path d="M471.61 334.07h-362l-.1-.17a25.05 25.05 0 0 1-14.39-11.4 23.11 23.11 0 0 1-2.56-14.83l.09.08h395.52l-.17.11a23.13 23.13 0 0 1-2.56 14.84 25.09 25.09 0 0 1-14.36 11.38" class="Q"/><path d="M322.95 314.04h-68.68 0a5 5 0 0 1-2.72-2.62 6.45 6.45 0 0 1-.49-3.42h0 75 0a6.33 6.33 0 0 1-.48 3.41 4.94 4.94 0 0 1-2.73 2.62" class="S"/></g><path class="F S" d="M118.71 88.73h343.05v207.16H118.71z" opacity=".8"/><g class="P"><circle cx="190.37" cy="159.37" r="47.56" fill="#3fa9f5"/><ellipse cx="190.29" cy="154.62" rx="22.8" ry="33.22" class="Q"/></g><path d="M270.76 127.12h-2.48a2.67 2.67 0 0 0-2.52-1.38 3.53 3.53 0 0 0 .09 7 2.92 2.92 0 0 0 3-2.48h-3.69v-1.64h5.81v1.88a5.24 5.24 0 0 1-5.24 4.19 5.5 5.5 0 1 1 0-11 4.93 4.93 0 0 1 5.03 3.43zm5.19-1.15a3.35 3.35 0 0 1 2.82 1.35v-1.22h2.18v8.53h-2.17v-1.25a3.4 3.4 0 0 1-2.83 1.39c-2.16 0-3.88-1.77-3.88-4.43s1.72-4.37 3.88-4.37zm.55 1.89a2.27 2.27 0 0 0-2.25 2.29 1.09 1.09 0 0 0 0 .18 2.32 2.32 0 0 0 2.11 2.53h.13a2.52 2.52 0 0 0 0-5zm11.52-1.89c2.19 0 3.89 1.7 3.89 4.36s-1.71 4.43-3.89 4.43a3.33 3.33 0 0 1-2.81-1.35v1.22h-2.15v-11.39h2.15v4.11a3.32 3.32 0 0 1 2.81-1.38zm-.57 1.89a2.52 2.52 0 0 0 0 5 2.33 2.33 0 0 0 2.27-2.39.76.76 0 0 0 0-.15 2.27 2.27 0 0 0-2.06-2.46h-.2zm11-1.89c2.18 0 3.89 1.7 3.89 4.36s-1.71 4.43-3.89 4.43a3.35 3.35 0 0 1-2.82-1.35v1.22h-2.15v-11.39h2.15v4.11a3.34 3.34 0 0 1 2.82-1.38zm-.57 1.89a2.52 2.52 0 0 0 0 5 2.34 2.34 0 0 0 2.28-2.38.76.76 0 0 1 0-.15 2.28 2.28 0 0 0-2.06-2.47zm11.89-1.76h2.3l-5.28 12.56h-2.29l1.84-4.25-3.39-8.31h2.41l2.2 6zm7.11-2.21h2.45l3.41 8 3.42-8h2.43v10.74h-2.16v-7l-2.87 7h-1.61l-2.9-7v7h-2.15zm17.61 10.88a4.4 4.4 0 1 1 4.45-4.4 4.26 4.26 0 0 1-4.12 4.4zm0-1.88a2.27 2.27 0 0 0 2.25-2.29 1.64 1.64 0 0 0 0-.23c.177-1.204-.656-2.323-1.86-2.5s-2.323.656-2.5 1.86a2.29 2.29 0 0 0 0 .64c0 1.69 1 2.52 2.13 2.52zm8.19 1.74h-2.15v-8.53h2.15v1.33a2.94 2.94 0 0 1 2.61-1.45v2.26h-.57c-1.27 0-2 .49-2 2.14zm6.21 0h-2.15v-8.53h2.15v1.33a3 3 0 0 1 2.62-1.45v2.26h-.56c-1.28 0-2 .49-2 2.14zm3.83-10.8a1.33 1.33 0 1 1 1.39 1.26h-.06a1.26 1.26 0 0 1-1.32-1.2.13.13 0 0 1-.01-.06zm.23 2.27h2.16v8.53h-2.16zm7.54 8.67c-2.13 0-3.63-1.25-3.72-2.84h2.18a1.41 1.41 0 0 0 1.54 1.14c.84 0 1.3-.38 1.3-.87 0-1.53-4.81-.56-4.81-3.68 0-1.42 1.26-2.55 3.37-2.55s3.31 1.12 3.43 2.81h-2.06a1.28 1.28 0 0 0-1.41-1.11h0c-.8 0-1.22.33-1.22.82 0 1.55 4.72.58 4.79 3.7-.03 1.47-1.31 2.58-3.39 2.58zm8.91 0a4.4 4.4 0 1 1 4.45-4.4 4.27 4.27 0 0 1-4.12 4.4zm0-1.88a2.26 2.26 0 0 0 2.24-2.29 1.69 1.69 0 0 0 0-.23 2.21 2.21 0 1 0-4.37 0c0 1.69 1 2.52 2.14 2.52zm12-2.97a1.92 1.92 0 0 0-3.82-.38 2.41 2.41 0 0 0 0 .38v4.71h-2.15v-8.53h2.15v1.07a3.18 3.18 0 0 1 2.57-1.19c2 0 3.4 1.29 3.4 3.65v5h-2.15zm-116.87 23.63h-2.67v-7.15h2.56c1.51 0 2.27.82 2.27 1.82a1.66 1.66 0 0 1-1.25 1.65 1.81 1.81 0 0 1 1.42 1.77c0 1.07-.86 1.91-2.33 1.91zm-.19-6.38h-1.55v2.33h1.57c.88 0 1.38-.43 1.38-1.16s-.48-1.17-1.4-1.17zm.07 3.09h-1.62v2.52h1.65c.93 0 1.48-.46 1.48-1.24s-.59-1.28-1.51-1.28zm3.74-3.86h.93v7.15h-.93zm5.8 7.23a3.66 3.66 0 1 1 3.59-3.72v.06a3.53 3.53 0 0 1-3.4 3.66zm0-.81a2.85 2.85 0 1 0-2.63-3.06v.21a2.61 2.61 0 0 0 2.37 2.83h.26zm5.08-3.59a.64.64 0 1 1 .65-.66h0a.63.63 0 0 1-.61.64zm0 4.39a.64.64 0 1 1 .65-.66h0a.62.62 0 0 1-.61.64z"/><g class="R"><path d="M261.83 166.17h164.14m-163.95 7.1h164.15m-164.15 7.18h164.15m-164.25 7.22h164.15m-163.95 7.1h164.15m-164.15 7.18h75.29" opacity=".8" fill="none" stroke="#b3b3b3" stroke-width="4" class="H"/><g class="P T"><g fill="#fcee21"><path d="M165.17 218.12l-1.34 2.72-3 .44a.66.66 0 0 0-.37 1.12l2.18 2.12-.52 3a.66.66 0 0 0 .54.76.62.62 0 0 0 .42-.06l2.69-1.42 2.69 1.42a.65.65 0 0 0 .88-.28.67.67 0 0 0 .07-.42l-.51-3 2.17-2.12a.65.65 0 0 0 0-.93.66.66 0 0 0-.37-.19l-3-.44-1.34-2.72a.66.66 0 0 0-.89-.3.65.65 0 0 0-.29.3z"/><use xlink:href="#B"/><use xlink:href="#C"/><use xlink:href="#C" x="12.82"/><use xlink:href="#B" x="38.97"/></g><rect x="261.78" y="217.95" width="51.28" height="17.43" rx="3" class="U"/></g></g><g class="Q"><path d="M273.15 224.42h-2.45v1.61h2.17v1h-2.17v1.71h2.45v1.05h-3.74v-6.45h3.74z"/><use xlink:href="#D"/><path d="M287.08 225.31h-1.49a1.62 1.62 0 0 0-1.51-.83 2.12 2.12 0 0 0 0 4.23 1.74 1.74 0 0 0 1.83-1.49h-2.21v-1h3.49v1.12a3.15 3.15 0 0 1-3.15 2.51 3.29 3.29 0 1 1-.13-6.58h.12a3 3 0 0 1 3.05 2.04zm2.41-1.94v5.42h2.12v1h-3.42v-6.45zm2.94 0h1.29v6.45h-1.29zm4.79 6.52c-1.34 0-2.37-.7-2.39-1.92h1.38a.89.89 0 0 0 .91.86h.07c.61 0 1-.33 1-.79 0-1.39-3.32-.55-3.31-2.89 0-1.16.94-1.86 2.27-1.86a2 2 0 0 1 2.3 1.73v.1h-1.42a.85.85 0 0 0-.93-.76c-.51 0-.88.23-.88.75 0 1.29 3.3.57 3.3 2.85a2 2 0 0 1-2.12 1.94zm7.45-2.81h-2.72v2.74h-1.29v-6.45h1.29v2.65h2.76v-2.65h1.24v6.45h-1.29z"/></g><rect x="318.7" y="217.95" width="51.28" height="17.43" rx="3" class="P R T U"/><g class="Q"><path d="M327.14 223.37h4v1h-2.69v1.65h2.06v1h-2.06v2.72h-1.29zm7.31 0c1.55 0 2.33.9 2.33 2a1.88 1.88 0 0 1-1.47 1.86l1.54 2.61h-1.5l-1.42-2.51h-.61v2.51h-1.3v-6.45zm0 1.08h-1.08v1.89h1.08c.72 0 1-.38 1-1s-.33-.84-1.05-.84zm7.23-.03h-2.44v1.61h2.17v1h-2.17v1.71h2.44v1.05h-3.73v-6.45h3.73z"/><use xlink:href="#D" x="68.54"/><path d="M352.59 223.29a3 3 0 0 1 3 2.09h-1.48a1.64 1.64 0 0 0-1.56-.93 2.15 2.15 0 0 0 0 4.27 1.63 1.63 0 0 0 1.56-.93h1.48a3 3 0 0 1-3 2.08 3.29 3.29 0 0 1 0-6.58zm8.19 3.79h-2.76v2.74h-1.29v-6.45h1.29v2.65h2.76v-2.65h1.3v6.45h-1.3z"/></g><rect x="375.61" y="217.95" width="51.28" height="17.43" rx="3" class="P R T U"/><g class="Q"><path d="M384.3 223.37h1.29v6.45h-1.29zm2.22 0h4.73v1h-1.72v5.4h-1.29v-5.4h-1.71zm9.62 5.22h-2.56l-.43 1.23h-1.36l2.32-6.45h1.5l2.32 6.45h-1.37zm-1.28-3.73l-.93 2.7h1.86zm5.23-1.49v5.42h2.13v1h-3.42v-6.45zm2.95 0h1.29v6.45h-1.29zm6.51 5.22h-2.6l-.43 1.23h-1.35l2.31-6.45h1.51l2.31 6.45h-1.35zm-1.28-3.73l-.93 2.7h1.86z"/><use xlink:href="#D" x="137.89"/></g><g class="R"><path d="M282.75 258.43h66.38m-66.3 6.07h39.71" opacity=".8" fill="none" stroke="#b3b3b3" stroke-width="4" class="H"/><path d="M267.68 270.86c-5.63-8.16-6.67-9-6.67-12a7.44 7.44 0 0 1 11.233-6.67 7.44 7.44 0 0 1 3.637 6.67c0 3-1 3.83-6.67 12a.94.94 0 0 1-1.3.24 1 1 0 0 1-.23-.24zm.76-8.89a3.1 3.1 0 0 0 2.192-5.292 3.1 3.1 0 0 0-5.292 2.192h0a3.1 3.1 0 0 0 3.1 3.1z" class="P Q"/></g><path d="M397.95 125.93l3.23 3.22-7 7-2.88.31a.6.6 0 0 1-.67-.53.33.33 0 0 1 0-.14l.32-2.88zm5.22-.48l-1.51-1.52a1.21 1.21 0 0 0-1.71 0h0l-1.42 1.43 3.23 3.23 1.42-1.43a1.2 1.2 0 0 0 0-1.71z" fill="#4d4d4d"/><g class="P Q R"><path d="M194.95 161.68c3.92 17.05 32.12 2.51 30.62 26.05l-70.77.11c-1.51-23.55 26.7-9 30.62-26.05z"/><path d="M177.71 170.16l12.46 9.46 12.76-9.46"/></g><circle cx="176.29" cy="145.18" r="4.23" class="P S"/><g class="R P"><path d="M204.33 141.3a25.24 25.24 0 0 1 .29 3.88c0 10.61-6.41 19.21-14.33 19.21s-14.33-8.6-14.33-19.21a25.56 25.56 0 0 1 .46-4.86" stroke-linecap="round" class="Q"/><path d="M181.5 137.36a26.66 26.66 0 0 0 6.26-3.32 20.69 20.69 0 0 0 4-3.73l.17.21a25 25 0 0 0 3.8 5 24.39 24.39 0 0 0 6 4.45" fill="none"/></g><defs ><path id="B" d="M178.39 218.11l-1.34 2.72-3 .44a.66.66 0 0 0-.56.75.74.74 0 0 0 .2.38l2.17 2.11-.51 3a.66.66 0 0 0 .53.76.67.67 0 0 0 .42-.07l2.69-1.41 2.69 1.41a.66.66 0 0 0 .89-.28.64.64 0 0 0 .06-.41l-.51-3 2.17-2.11a.66.66 0 0 0 0-.94.72.72 0 0 0-.38-.19l-3-.44-1.34-2.72a.66.66 0 0 0-.88-.3.67.67 0 0 0-.3.3z"/><path id="C" d="M191.21 218.11l-1.35 2.72-3 .44a.66.66 0 0 0-.56.75.67.67 0 0 0 .2.38l2.17 2.11-.51 3a.65.65 0 0 0 .53.76.67.67 0 0 0 .42-.07l2.69-1.41 2.69 1.41a.66.66 0 0 0 .89-.28.64.64 0 0 0 .06-.41l-.51-3 2.17-2.11a.66.66 0 0 0-.36-1.13l-3-.44-1.34-2.72a.66.66 0 0 0-.88-.3.67.67 0 0 0-.3.3z"/><path id="D" d="M279.83 223.37v6.45h-1.29l-2.93-4.42v4.42h-1.29v-6.45h1.29l2.93 4.43v-4.43z"/></defs></svg>