<svg xmlns="http://www.w3.org/2000/svg" viewBox="0 0 1869.22 364.96"><defs><style>.cls-1,.cls-10,.cls-12,.cls-17,.cls-18,.cls-2,.cls-20{fill:none;}.cls-1,.cls-15,.cls-16,.cls-19,.cls-2,.cls-20,.cls-21,.cls-22{stroke:#b3b3b3;}.cls-1,.cls-15,.cls-2{stroke-miterlimit:10;}.cls-1,.cls-2{stroke-width:2px;}.cls-2{stroke-dasharray:11.93 11.93;}.cls-3{fill:#f2f2f2;}.cls-21,.cls-4{fill:#7ac943;}.cls-15,.cls-16,.cls-5,.cls-7{fill:#fff;}.cls-19,.cls-6{fill:#3fa9f5;}.cls-17,.cls-18,.cls-23,.cls-24,.cls-7,.cls-9{stroke:#ccc;}.cls-10,.cls-11,.cls-12,.cls-16,.cls-17,.cls-18,.cls-19,.cls-20,.cls-21,.cls-22,.cls-23,.cls-24,.cls-7,.cls-9{stroke-miterlimit:10;}.cls-11,.cls-8{fill:gray;}.cls-10{stroke:#c6c6c6;}.cls-10,.cls-11,.cls-18{stroke-width:3px;}.cls-11{stroke:#000;}.cls-12{stroke:#e6e6e6;}.cls-13{fill:#ee0005;}.cls-14{fill:#f99f00;opacity:0.87;}.cls-22{fill:#e6e6e6;}.cls-23{fill:#54a3f1;}.cls-24{fill:#8bc220;}</style></defs><g id="Layer_1" data-name="Layer 1"><path class="cls-1" d="M303.5,497.5q2.52-1.46,5.22-2.95" transform="translate(-25 -314.65)"/><path class="cls-2" d="M319.26,489A300.7,300.7,0,0,1,416.5,458.5c48.18-6.28,82.87,1.69,150,18,200.55,48.74,220.1,57.6,272,55,33.54-1.68,91.73-8.71,145.94-46.41,22.34-15.54,51.15-36.22,57.06-71.59,5.8-34.7-10.78-81.48-42-88-23.89-5-52.35,14.42-63,38-20.07,44.45,17.6,116.09,70,149,64.1,40.25,146.08,19.94,279-13,92.25-22.86,102.67-36.59,152-38,84.77-2.43,155.66,35.18,204.34,69.93" transform="translate(-25 -314.65)"/><path class="cls-1" d="M1646.68,534.93l4.82,3.57" transform="translate(-25 -314.65)"/><circle class="cls-3" cx="1210.89" cy="183.8" r="158.4"/><circle class="cls-3" cx="1709.7" cy="182.84" r="158.4"/><circle class="cls-3" cx="178.63" cy="180.91" r="158.4"/><rect class="cls-4" y="82.21" width="301.4" height="90.42" rx="7"/><path class="cls-5" d="M67.53,447.92V444h6.19v-6.19h4V444h6.19v3.94H77.69v6.22h-4v-6.22Z" transform="translate(-25 -314.65)"/><path class="cls-5" d="M93.54,454.14l8.75-22.26h2.38l8.53,22.26H111l-2.57-7H98.33l-2.63,7Zm5.5-8.78h8.72l-4.36-11.69Z" transform="translate(-25 -314.65)"/><path class="cls-5" d="M128.28,431.88h1.86v22.26h-1.86v-2.81h-.06a5.13,5.13,0,0,1-1,1.4,6.75,6.75,0,0,1-1.39,1,7.77,7.77,0,0,1-1.57.62,6.17,6.17,0,0,1-1.57.21,7.55,7.55,0,0,1-3.31-.65,6.13,6.13,0,0,1-2.24-1.77,7.17,7.17,0,0,1-1.28-2.68,13,13,0,0,1-.41-3.31,11.79,11.79,0,0,1,.44-3.21,8,8,0,0,1,1.31-2.71,6.49,6.49,0,0,1,2.23-1.85,6.83,6.83,0,0,1,3.17-.7,7.46,7.46,0,0,1,3.26.76,5.71,5.71,0,0,1,2.45,2.24Zm0,14.19a8.7,8.7,0,0,0-.37-2.58,6.54,6.54,0,0,0-1.06-2.13,5.29,5.29,0,0,0-1.7-1.46,4.73,4.73,0,0,0-2.27-.54,5.2,5.2,0,0,0-2.51.57,5,5,0,0,0-1.73,1.57,6.85,6.85,0,0,0-1,2.3,10.33,10.33,0,0,0-.25,2.83,7.79,7.79,0,0,0,.42,2.67,5.76,5.76,0,0,0,1.16,2,4.9,4.9,0,0,0,1.73,1.23,5.67,5.67,0,0,0,2.17.41,5,5,0,0,0,2.31-.52,4.83,4.83,0,0,0,1.7-1.44,6.57,6.57,0,0,0,1-2.16A9.81,9.81,0,0,0,128.28,446.07Z" transform="translate(-25 -314.65)"/><path class="cls-5" d="M147.17,431.88H149v22.26h-1.86v-2.81h-.06a5.13,5.13,0,0,1-1,1.4,6.55,6.55,0,0,1-1.4,1,7.46,7.46,0,0,1-1.56.62,6.17,6.17,0,0,1-1.57.21,7.55,7.55,0,0,1-3.31-.65,6,6,0,0,1-2.24-1.77,7.34,7.34,0,0,1-1.29-2.68,13.46,13.46,0,0,1-.4-3.31,11.79,11.79,0,0,1,.44-3.21,7.85,7.85,0,0,1,1.31-2.71,6.49,6.49,0,0,1,2.23-1.85,6.82,6.82,0,0,1,3.16-.7,7.42,7.42,0,0,1,3.26.76,5.73,5.73,0,0,1,2.46,2.24Zm0,14.19a8.7,8.7,0,0,0-.37-2.58,6.56,6.56,0,0,0-1.07-2.13,5.19,5.19,0,0,0-1.7-1.46,4.7,4.7,0,0,0-2.27-.54,5.16,5.16,0,0,0-2.5.57,5,5,0,0,0-1.73,1.57,6.47,6.47,0,0,0-1,2.3,10.33,10.33,0,0,0-.25,2.83,7.79,7.79,0,0,0,.42,2.67,5.6,5.6,0,0,0,1.16,2,4.9,4.9,0,0,0,1.73,1.23,5.65,5.65,0,0,0,2.16.41,5,5,0,0,0,2.32-.52,4.83,4.83,0,0,0,1.7-1.44,6.78,6.78,0,0,0,1-2.16A10.21,10.21,0,0,0,147.17,446.07Z" transform="translate(-25 -314.65)"/><path class="cls-5" d="M163.43,447.49a6.56,6.56,0,0,0,.67,2.52,5,5,0,0,0,1.39,1.69,5.57,5.57,0,0,0,2,.94,9.13,9.13,0,0,0,2.38.29,7.88,7.88,0,0,0,2.57-.37,4.75,4.75,0,0,0,1.76-1,3.85,3.85,0,0,0,1-1.47,4.74,4.74,0,0,0,.33-1.76,3.46,3.46,0,0,0-.59-2.1,4.47,4.47,0,0,0-1.53-1.32,9.62,9.62,0,0,0-2.16-.82l-2.51-.6c-.85-.2-1.69-.43-2.5-.7a7.29,7.29,0,0,1-2.16-1.08A5.29,5.29,0,0,1,162.5,440a5.64,5.64,0,0,1-.58-2.71,5.54,5.54,0,0,1,1.9-4.14,7,7,0,0,1,2.36-1.33,10,10,0,0,1,3.28-.5,9.38,9.38,0,0,1,3.29.53,6.53,6.53,0,0,1,2.34,1.44,5.88,5.88,0,0,1,1.39,2.12,7,7,0,0,1,.46,2.56h-2a5,5,0,0,0-.45-2.19,4,4,0,0,0-1.22-1.52,5.07,5.07,0,0,0-1.76-.86,7.33,7.33,0,0,0-2-.28,7.12,7.12,0,0,0-2.7.45,4.6,4.6,0,0,0-1.75,1.15,4.05,4.05,0,0,0-.9,1.58A3.91,3.91,0,0,0,164,438a3,3,0,0,0,.87,1.73,5.39,5.39,0,0,0,1.66,1.07,12.11,12.11,0,0,0,2.18.68c.8.18,1.61.36,2.43.56a23.65,23.65,0,0,1,2.4.69,7.55,7.55,0,0,1,2.05,1.08,5,5,0,0,1,1.44,1.75,5.88,5.88,0,0,1,.54,2.67,5.79,5.79,0,0,1-2.13,4.8,9.42,9.42,0,0,1-6,1.7,11,11,0,0,1-3.21-.45,7.11,7.11,0,0,1-2.57-1.36,6.23,6.23,0,0,1-1.68-2.26,7.53,7.53,0,0,1-.61-3.17Z" transform="translate(-25 -314.65)"/><path class="cls-5" d="M186.8,454.2a8.62,8.62,0,0,0-.89.22,4.79,4.79,0,0,1-1.24.15,3,3,0,0,1-2.12-.69,3.43,3.43,0,0,1-.72-2.49V439.67h-2.26v-1.54h2.26v-4.46h1.85v4.46h3v1.54h-3v11q0,.59,0,1a1.61,1.61,0,0,0,.19.71.87.87,0,0,0,.48.4,2.7,2.7,0,0,0,.91.12,5,5,0,0,0,.76-.06c.25,0,.51-.09.75-.15Z" transform="translate(-25 -314.65)"/><path class="cls-5" d="M200.62,438.13h1.86v16h-1.86v-2.23c-.25.29-.52.59-.83.9a6.56,6.56,0,0,1-1.07.85,5.87,5.87,0,0,1-3.26.91,7,7,0,0,1-2.69-.45,4.28,4.28,0,0,1-1.75-1.25,5,5,0,0,1-1-1.87,9,9,0,0,1-.29-2.33V438.13h1.85v10.51a4.69,4.69,0,0,0,1,3.17,4,4,0,0,0,3.16,1.09,4.57,4.57,0,0,0,2-.45,4.12,4.12,0,0,0,1.53-1.25,6,6,0,0,0,1-1.91,8.29,8.29,0,0,0,.34-2.45Z" transform="translate(-25 -314.65)"/><path class="cls-5" d="M219.32,431.88h1.86v22.26h-1.86v-2.81h-.06a5.13,5.13,0,0,1-1,1.4,6.55,6.55,0,0,1-1.4,1,7.46,7.46,0,0,1-1.56.62,6.17,6.17,0,0,1-1.57.21,7.55,7.55,0,0,1-3.31-.65,6.13,6.13,0,0,1-2.24-1.77,7.34,7.34,0,0,1-1.29-2.68,13.46,13.46,0,0,1-.4-3.31,11.79,11.79,0,0,1,.44-3.21,7.85,7.85,0,0,1,1.31-2.71,6.49,6.49,0,0,1,2.23-1.85,6.82,6.82,0,0,1,3.16-.7,7.5,7.5,0,0,1,3.27.76,5.76,5.76,0,0,1,2.45,2.24Zm0,14.19a8.7,8.7,0,0,0-.37-2.58,6.75,6.75,0,0,0-1.06-2.13,5.4,5.4,0,0,0-1.7-1.46,4.74,4.74,0,0,0-2.28-.54,5.16,5.16,0,0,0-2.5.57,5,5,0,0,0-1.73,1.57,6.47,6.47,0,0,0-1,2.3,10.33,10.33,0,0,0-.25,2.83,7.79,7.79,0,0,0,.42,2.67,5.6,5.6,0,0,0,1.16,2,4.9,4.9,0,0,0,1.73,1.23,5.65,5.65,0,0,0,2.16.41,5,5,0,0,0,2.32-.52,4.83,4.83,0,0,0,1.7-1.44,6.78,6.78,0,0,0,1-2.16A10.21,10.21,0,0,0,219.32,446.07Z" transform="translate(-25 -314.65)"/><path class="cls-5" d="M227,446.57a8.53,8.53,0,0,0,.34,2.45,5.92,5.92,0,0,0,1,2,4.91,4.91,0,0,0,1.69,1.36,5.18,5.18,0,0,0,2.35.51,5.12,5.12,0,0,0,3.12-1,4.56,4.56,0,0,0,1.73-2.72h2.07a9.57,9.57,0,0,1-.89,2.12A6.59,6.59,0,0,1,237,453a5.87,5.87,0,0,1-2,1.13,8,8,0,0,1-2.66.4,7.67,7.67,0,0,1-3.31-.65,6.22,6.22,0,0,1-2.29-1.77,7.56,7.56,0,0,1-1.33-2.66,12,12,0,0,1-.43-3.3,10.46,10.46,0,0,1,.51-3.3,8.49,8.49,0,0,1,1.45-2.71,6.75,6.75,0,0,1,2.31-1.82,7,7,0,0,1,3.09-.67,6.38,6.38,0,0,1,5.19,2.28q1.89,2.26,1.86,6.6ZM237.44,445a7.25,7.25,0,0,0-.33-2.21,4.9,4.9,0,0,0-1-1.79,4.49,4.49,0,0,0-1.59-1.21,5.1,5.1,0,0,0-2.19-.45,4.86,4.86,0,0,0-2.18.47,5,5,0,0,0-1.61,1.23,6.45,6.45,0,0,0-1.07,1.8A8.53,8.53,0,0,0,227,445Z" transform="translate(-25 -314.65)"/><path class="cls-5" d="M244.89,454.14H243v-16h1.86v2.22a11.71,11.71,0,0,1,2.3-1.91,5.25,5.25,0,0,1,2.86-.75,7.27,7.27,0,0,1,2.75.51,4.66,4.66,0,0,1,2.13,1.78,3.89,3.89,0,0,1,.7,1.78,16.6,16.6,0,0,1,.11,1.9v10.48h-1.86V443.69a4.8,4.8,0,0,0-1-3.25,4.06,4.06,0,0,0-3.18-1.08,4.44,4.44,0,0,0-1.58.27,4.73,4.73,0,0,0-2.25,1.68,4.4,4.4,0,0,0-.62,1.17A5.78,5.78,0,0,0,245,444c0,.47-.06,1-.06,1.54Z" transform="translate(-25 -314.65)"/><path class="cls-5" d="M265.85,454.2a8.11,8.11,0,0,0-.9.22,4.73,4.73,0,0,1-1.24.15,3,3,0,0,1-2.11-.69,3.38,3.38,0,0,1-.73-2.49V439.67h-2.26v-1.54h2.26v-4.46h1.85v4.46h3v1.54h-3v11a10.2,10.2,0,0,0,0,1,1.76,1.76,0,0,0,.18.71.87.87,0,0,0,.48.4,2.74,2.74,0,0,0,.91.12,5,5,0,0,0,.76-.06c.26,0,.51-.09.76-.15Z" transform="translate(-25 -314.65)"/><path class="cls-5" d="M269.9,449.13a4.61,4.61,0,0,0,1.56,2.92,5.26,5.26,0,0,0,3.23.85,5.72,5.72,0,0,0,1.76-.24,3.65,3.65,0,0,0,1.22-.67,3,3,0,0,0,.73-.94,2.64,2.64,0,0,0,.24-1.11,2.05,2.05,0,0,0-.75-1.75,5.88,5.88,0,0,0-1.9-.9c-.77-.21-1.59-.4-2.48-.55A12.44,12.44,0,0,1,271,446a4.91,4.91,0,0,1-1.9-1.33,3.57,3.57,0,0,1-.76-2.44,4.16,4.16,0,0,1,1.47-3.29,6.09,6.09,0,0,1,4.16-1.29,7.12,7.12,0,0,1,4.22,1.16,5.34,5.34,0,0,1,2,3.88H278.3a3.47,3.47,0,0,0-1.4-2.61,5.3,5.3,0,0,0-2.92-.76,4.19,4.19,0,0,0-2.69.76,2.45,2.45,0,0,0-.93,2,1.93,1.93,0,0,0,.76,1.66,6.24,6.24,0,0,0,1.9.93c.76.23,1.58.44,2.47.63a11.71,11.71,0,0,1,2.47.79,5.5,5.5,0,0,1,1.91,1.37,3.57,3.57,0,0,1,.75,2.41,4.07,4.07,0,0,1-.49,2,4.34,4.34,0,0,1-1.36,1.47,6.44,6.44,0,0,1-2.06.88,11.15,11.15,0,0,1-2.61.29,7,7,0,0,1-2.52-.42,5.45,5.45,0,0,1-1.87-1.15,5.56,5.56,0,0,1-1.21-1.74,6.26,6.26,0,0,1-.49-2.13Z" transform="translate(-25 -314.65)"/><rect class="cls-6" x="60.31" y="182.24" width="301.4" height="90.42" rx="7"/><path class="cls-5" d="M127.28,548V544h6.19v-6.19h4V544h6.19V548h-6.19v6.22h-4V548Z" transform="translate(-25 -314.65)"/><path class="cls-5" d="M153.29,554.17,162,531.91h2.38L173,554.17h-2.17l-2.56-7H158.08l-2.63,7Zm5.5-8.78h8.72l-4.36-11.69Z" transform="translate(-25 -314.65)"/><path class="cls-5" d="M188,531.91h1.86v22.26H188v-2.81H188a5.13,5.13,0,0,1-1,1.4,6.75,6.75,0,0,1-1.39,1,7.77,7.77,0,0,1-1.57.62,6.17,6.17,0,0,1-1.57.21,7.55,7.55,0,0,1-3.31-.65,6,6,0,0,1-2.24-1.78,7.05,7.05,0,0,1-1.28-2.67,13,13,0,0,1-.41-3.31,11.79,11.79,0,0,1,.44-3.21,8,8,0,0,1,1.31-2.71,6.49,6.49,0,0,1,2.23-1.85,6.82,6.82,0,0,1,3.16-.7,7.47,7.47,0,0,1,3.27.76,5.71,5.71,0,0,1,2.45,2.24Zm0,14.19a8.7,8.7,0,0,0-.37-2.58,6.54,6.54,0,0,0-1.06-2.13,5.29,5.29,0,0,0-1.7-1.46,4.74,4.74,0,0,0-2.28-.54,5.19,5.19,0,0,0-2.5.57,5,5,0,0,0-1.73,1.57,6.85,6.85,0,0,0-1,2.3,10.37,10.37,0,0,0-.25,2.83,7.79,7.79,0,0,0,.42,2.67,5.6,5.6,0,0,0,1.16,2,4.75,4.75,0,0,0,1.73,1.22,5.47,5.47,0,0,0,2.16.42,5,5,0,0,0,2.32-.52,4.83,4.83,0,0,0,1.7-1.44,6.57,6.57,0,0,0,1-2.16A9.81,9.81,0,0,0,188,546.1Z" transform="translate(-25 -314.65)"/><path class="cls-5" d="M206.92,531.91h1.86v22.26h-1.86v-2.81h-.06a5,5,0,0,1-1,1.4,6.26,6.26,0,0,1-1.39,1,7.46,7.46,0,0,1-1.56.62,6.17,6.17,0,0,1-1.57.21A7.52,7.52,0,0,1,198,554a6,6,0,0,1-2.24-1.78,7.22,7.22,0,0,1-1.29-2.67,13.46,13.46,0,0,1-.4-3.31,12.19,12.19,0,0,1,.43-3.21,8.05,8.05,0,0,1,1.32-2.71,6.55,6.55,0,0,1,2.22-1.85,6.89,6.89,0,0,1,3.17-.7,7.42,7.42,0,0,1,3.26.76,5.79,5.79,0,0,1,2.46,2.24Zm0,14.19a8.7,8.7,0,0,0-.37-2.58,6.56,6.56,0,0,0-1.07-2.13,5.19,5.19,0,0,0-1.7-1.46,4.7,4.7,0,0,0-2.27-.54,5.16,5.16,0,0,0-2.5.57,5,5,0,0,0-1.73,1.57,6.47,6.47,0,0,0-1,2.3,10.37,10.37,0,0,0-.25,2.83,7.79,7.79,0,0,0,.42,2.67,5.6,5.6,0,0,0,1.16,2,4.75,4.75,0,0,0,1.73,1.22,5.47,5.47,0,0,0,2.16.42,5,5,0,0,0,2.32-.52,4.83,4.83,0,0,0,1.7-1.44,6.78,6.78,0,0,0,1-2.16A10.21,10.21,0,0,0,206.92,546.1Z" transform="translate(-25 -314.65)"/><path class="cls-5" d="M220.31,531.91H236.5v1.79h-7v20.47h-2.11V533.7h-7Z" transform="translate(-25 -314.65)"/><path class="cls-5" d="M240.37,546.6a8.53,8.53,0,0,0,.34,2.45,5.92,5.92,0,0,0,1,2,4.91,4.91,0,0,0,1.69,1.36,5.18,5.18,0,0,0,2.35.51,5.12,5.12,0,0,0,3.12-1,4.56,4.56,0,0,0,1.73-2.72h2.07a9.57,9.57,0,0,1-.89,2.12,6.59,6.59,0,0,1-1.4,1.7,5.87,5.87,0,0,1-2,1.13,8,8,0,0,1-2.66.4,7.67,7.67,0,0,1-3.31-.65,6.14,6.14,0,0,1-2.29-1.78,7.43,7.43,0,0,1-1.33-2.65,12,12,0,0,1-.43-3.3,10.46,10.46,0,0,1,.51-3.3,8.39,8.39,0,0,1,1.45-2.71,6.75,6.75,0,0,1,2.31-1.82,6.82,6.82,0,0,1,3.09-.67,6.38,6.38,0,0,1,5.19,2.28q1.89,2.26,1.86,6.6Zm10.45-1.55a7.25,7.25,0,0,0-.33-2.21,4.9,4.9,0,0,0-1-1.79,4.49,4.49,0,0,0-1.59-1.21,5.1,5.1,0,0,0-2.19-.45,4.86,4.86,0,0,0-2.18.47,5,5,0,0,0-1.61,1.23,6.45,6.45,0,0,0-1.07,1.8,8.53,8.53,0,0,0-.52,2.16Z" transform="translate(-25 -314.65)"/><path class="cls-5" d="M263.77,544.83c.35,0,.77-.1,1.25-.18a4.74,4.74,0,0,0,1.19-.34,1,1,0,0,0,.57-.73,4.06,4.06,0,0,0,.11-.94,3.16,3.16,0,0,0-.91-2.34,4.29,4.29,0,0,0-3.08-.91,8.83,8.83,0,0,0-1.76.17,3.92,3.92,0,0,0-1.4.59,3.13,3.13,0,0,0-1,1.11,4.69,4.69,0,0,0-.51,1.75h-1.89a5.72,5.72,0,0,1,.65-2.43,5,5,0,0,1,1.44-1.64,5.85,5.85,0,0,1,2-.92,9.75,9.75,0,0,1,2.46-.3,9.23,9.23,0,0,1,2.27.27,5.13,5.13,0,0,1,1.85.83,3.84,3.84,0,0,1,1.24,1.53,5.5,5.5,0,0,1,.45,2.35v8.72c0,.72.13,1.18.38,1.37s.78.15,1.56-.14v1.46l-.63.18a2.65,2.65,0,0,1-.82.13,3.2,3.2,0,0,1-.83-.1,1.43,1.43,0,0,1-.74-.29,1.64,1.64,0,0,1-.45-.56,2.29,2.29,0,0,1-.24-.71,5.36,5.36,0,0,1-.06-.82,7.92,7.92,0,0,1-2.69,2,7.79,7.79,0,0,1-3.27.68,7.21,7.21,0,0,1-2-.28,4.75,4.75,0,0,1-1.71-.86A4.23,4.23,0,0,1,256,552a4.39,4.39,0,0,1-.43-2q0-4.08,5.59-4.83Zm3.12.93a8.87,8.87,0,0,1-2.38.65c-.8.1-1.61.19-2.41.25a6.7,6.7,0,0,0-3.32,1,3.06,3.06,0,0,0-.9,3.72,2.8,2.8,0,0,0,.77.9,3.3,3.3,0,0,0,1.12.52,4.64,4.64,0,0,0,1.28.17,8.21,8.21,0,0,0,2.16-.28,5.51,5.51,0,0,0,1.87-.85,4.27,4.27,0,0,0,1.32-1.45,4.19,4.19,0,0,0,.49-2.09Z" transform="translate(-25 -314.65)"/><path class="cls-5" d="M285,543.2a5.4,5.4,0,0,0-1.7-2.8,4.65,4.65,0,0,0-3.07-1,4.84,4.84,0,0,0-2.44.59,5,5,0,0,0-1.67,1.56,7.17,7.17,0,0,0-1,2.2,10.44,10.44,0,0,0,0,4.93,6.57,6.57,0,0,0,.94,2.16,4.9,4.9,0,0,0,1.67,1.53,5,5,0,0,0,2.47.57,4.77,4.77,0,0,0,3.33-1.14,5.34,5.34,0,0,0,1.59-3.15h2a9.55,9.55,0,0,1-.79,2.42A6.43,6.43,0,0,1,284.9,553a6.08,6.08,0,0,1-2,1.22,7.71,7.71,0,0,1-2.69.43,7.62,7.62,0,0,1-3.3-.65,6.14,6.14,0,0,1-2.29-1.78,7.44,7.44,0,0,1-1.33-2.67,12.15,12.15,0,0,1-.43-3.31,10.64,10.64,0,0,1,.48-3.2,8.25,8.25,0,0,1,1.4-2.7,6.81,6.81,0,0,1,2.31-1.87,6.94,6.94,0,0,1,3.16-.7,7.17,7.17,0,0,1,4.5,1.33,6.17,6.17,0,0,1,2.15,4.15Z" transform="translate(-25 -314.65)"/><path class="cls-5" d="M290.79,554.17V531.91h1.85v8.47a11.48,11.48,0,0,1,2.31-1.91,5.23,5.23,0,0,1,2.86-.75,7.35,7.35,0,0,1,2.75.51,4.76,4.76,0,0,1,2.13,1.78,4,4,0,0,1,.69,1.78,14.6,14.6,0,0,1,.11,1.9v10.48h-1.85V543.72a4.8,4.8,0,0,0-1-3.25,4.07,4.07,0,0,0-3.18-1.08,4.4,4.4,0,0,0-1.58.27,4.83,4.83,0,0,0-2.26,1.68,4.71,4.71,0,0,0-.62,1.17,6.62,6.62,0,0,0-.34,1.49c0,.47-.06,1-.06,1.54v8.63Z" transform="translate(-25 -314.65)"/><path class="cls-5" d="M309.12,546.6a8.53,8.53,0,0,0,.34,2.45,5.92,5.92,0,0,0,1,2,4.91,4.91,0,0,0,1.69,1.36,5.18,5.18,0,0,0,2.35.51,5.12,5.12,0,0,0,3.12-1,4.56,4.56,0,0,0,1.73-2.72h2.07a9.57,9.57,0,0,1-.89,2.12,6.59,6.59,0,0,1-1.4,1.7,5.87,5.87,0,0,1-2,1.13,8,8,0,0,1-2.66.4,7.67,7.67,0,0,1-3.31-.65,6.14,6.14,0,0,1-2.29-1.78,7.43,7.43,0,0,1-1.33-2.65,12,12,0,0,1-.43-3.3,10.46,10.46,0,0,1,.51-3.3,8.39,8.39,0,0,1,1.45-2.71,6.75,6.75,0,0,1,2.31-1.82,6.82,6.82,0,0,1,3.09-.67,6.38,6.38,0,0,1,5.19,2.28q1.89,2.26,1.86,6.6Zm10.45-1.55a7.25,7.25,0,0,0-.33-2.21,4.9,4.9,0,0,0-1-1.79,4.49,4.49,0,0,0-1.59-1.21,5.1,5.1,0,0,0-2.19-.45,4.86,4.86,0,0,0-2.18.47,5,5,0,0,0-1.61,1.23,6.45,6.45,0,0,0-1.07,1.8,8.53,8.53,0,0,0-.52,2.16Z" transform="translate(-25 -314.65)"/><path class="cls-5" d="M327.11,554.17h-1.85v-16h1.85v3h.06a5.42,5.42,0,0,1,2-2.67,6.1,6.1,0,0,1,3.23-.76v2a5.44,5.44,0,0,0-2.6.5,4.22,4.22,0,0,0-1.62,1.42,5.58,5.58,0,0,0-.84,2.12,14,14,0,0,0-.23,2.55Z" transform="translate(-25 -314.65)"/><path class="cls-5" d="M336.54,549.16a4.7,4.7,0,0,0,1.56,2.92,5.26,5.26,0,0,0,3.23.85,5.72,5.72,0,0,0,1.76-.24,3.55,3.55,0,0,0,1.22-.67,3,3,0,0,0,.73-.94,2.66,2.66,0,0,0,.25-1.12,2.05,2.05,0,0,0-.76-1.74,5.88,5.88,0,0,0-1.9-.9,25.21,25.21,0,0,0-2.47-.55,12.35,12.35,0,0,1-2.48-.7,5,5,0,0,1-1.9-1.33,3.62,3.62,0,0,1-.76-2.44,4.16,4.16,0,0,1,1.47-3.29,6.11,6.11,0,0,1,4.16-1.29,7.12,7.12,0,0,1,4.22,1.16,5.3,5.3,0,0,1,2,3.88H345a3.51,3.51,0,0,0-1.41-2.61,5.28,5.28,0,0,0-2.92-.76,4.19,4.19,0,0,0-2.69.76,2.45,2.45,0,0,0-.93,2,1.93,1.93,0,0,0,.76,1.66,6,6,0,0,0,1.9.92c.76.24,1.59.45,2.47.64a12,12,0,0,1,2.48.79,5.56,5.56,0,0,1,1.9,1.37,3.57,3.57,0,0,1,.76,2.41,4.07,4.07,0,0,1-.5,2,4.25,4.25,0,0,1-1.36,1.47,6.44,6.44,0,0,1-2.06.88,11.15,11.15,0,0,1-2.61.29,7,7,0,0,1-2.52-.42,5.45,5.45,0,0,1-1.87-1.15,5.53,5.53,0,0,1-1.2-1.74,6,6,0,0,1-.5-2.13Z" transform="translate(-25 -314.65)"/><rect class="cls-5" x="1095.32" y="38.25" width="233.87" height="284.74"/><rect class="cls-7" x="1093.67" y="37.92" width="235.19" height="290.65"/><path class="cls-8" d="M1275.89,377.32h1.5v9.18h-1.5Z" transform="translate(-25 -314.65)"/><path class="cls-8" d="M1286.92,377.31v9.19h-1.5l-4.54-6.86v6.86h-1.5v-9.19h1.5l4.54,6.84v-6.84Z" transform="translate(-25 -314.65)"/><path class="cls-8" d="M1295.23,377.32h1.59l-3.45,9.18h-1.75l-3.46-9.18h1.62l2.72,7.64Z" transform="translate(-25 -314.65)"/><path class="cls-8" d="M1304.75,376.7c2.69,0,3.43,2.11,3.43,4.86s-.74,4.92-3.43,4.92-3.44-2.12-3.44-4.92S1302.05,376.7,1304.75,376.7Zm0,1.37c-1.76,0-2,1.69-2,3.49s.2,3.54,2,3.54,2-1.65,2-3.54S1306.5,378.07,1304.75,378.07Z" transform="translate(-25 -314.65)"/><path class="cls-8" d="M1310.81,378.24h-1.23v-1.37h2.75v9.63h-1.52Z" transform="translate(-25 -314.65)"/><path class="cls-8" d="M1317.54,376.64c1.91,0,3,1.12,3,2.52a2.25,2.25,0,0,1-1.48,2.18v.05a2.35,2.35,0,0,1,1.65,2.47c0,1.53-1.09,2.7-3.09,2.7-1.83,0-3.24-.95-3.34-2.84h1.46a1.69,1.69,0,0,0,1.86,1.58,1.51,1.51,0,0,0,1.68-1.58c0-1.27-.82-1.71-2.39-1.71h-.35v-1.24h.36c1.36,0,2.2-.41,2.2-1.44,0-.83-.55-1.39-1.58-1.39a1.5,1.5,0,0,0-1.64,1.31h-1.46C1314.48,377.58,1315.78,376.64,1317.54,376.64Z" transform="translate(-25 -314.65)"/><path class="cls-8" d="M1327.43,379.1a1.44,1.44,0,0,0-1.6-1.21c-1.36,0-2.06.92-2.1,3.45a2.77,2.77,0,0,1,2.43-1.22,2.87,2.87,0,0,1,3,3.17,3,3,0,0,1-3.15,3.21c-2.81,0-3.53-2-3.53-5s1-4.84,3.41-4.84a2.77,2.77,0,0,1,3,2.47Zm-3.53,4.17a1.83,1.83,0,0,0,2,2,1.72,1.72,0,0,0,1.79-1.89,1.74,1.74,0,0,0-1.85-2A1.8,1.8,0,0,0,1323.9,383.27Z" transform="translate(-25 -314.65)"/><line class="cls-9" x1="1093.67" y1="96.13" x2="1281.62" y2="96.13"/><line class="cls-9" x1="1290.53" y1="95.94" x2="1328.53" y2="95.94"/><path class="cls-8" d="M1305.28,592.56c-1.62-.15-2.78-1-2.78-2.53h1.61a1.33,1.33,0,0,0,1.17,1.28v-2.9c-1.33-.33-2.78-.7-2.78-2.57a2.72,2.72,0,0,1,2.78-2.64v-1.09h.85v1.08a2.6,2.6,0,0,1,2.67,2.45h-1.61a1.34,1.34,0,0,0-1.06-1.17v2.85c1.33.32,2.77.68,2.77,2.54a2.78,2.78,0,0,1-2.77,2.68v1.09h-.85Zm0-5.46v-2.67a1.28,1.28,0,0,0-1.25,1.33C1304,586.53,1304.56,586.87,1305.28,587.1Zm.85,1.53v2.68a1.36,1.36,0,0,0,1.25-1.37C1307.38,589.19,1306.85,588.85,1306.13,588.63Z" transform="translate(-25 -314.65)"/><path class="cls-8" d="M1312.12,584.22h-1.23v-1.38h2.75v9.64h-1.52Z" transform="translate(-25 -314.65)"/><path class="cls-8" d="M1321.92,582.82v1.32h-4.42v2.63a2.55,2.55,0,0,1,2-.88,2.94,2.94,0,0,1,3.1,3.22,3.1,3.1,0,0,1-3.33,3.37,3.06,3.06,0,0,1-3.36-2.61h1.47a1.79,1.79,0,0,0,1.9,1.35c1.29,0,1.87-.88,1.87-2.07a1.86,1.86,0,0,0-3.6-.77h-1.43v-5.56Z" transform="translate(-25 -314.65)"/><path class="cls-8" d="M1327.59,582.67c2.7,0,3.44,2.11,3.44,4.86s-.74,4.92-3.44,4.92-3.43-2.11-3.43-4.92S1324.9,582.67,1327.59,582.67Zm0,1.37c-1.75,0-1.95,1.7-1.95,3.49s.2,3.55,1.95,3.55,2-1.66,2-3.55S1329.35,584,1327.59,584Z" transform="translate(-25 -314.65)"/><line class="cls-10" x1="1118.35" y1="130.67" x2="1248.33" y2="130.67"/><line class="cls-10" x1="1118.4" y1="138.69" x2="1215.77" y2="138.69"/><line class="cls-10" x1="1119.65" y1="183.21" x2="1249.63" y2="183.21"/><line class="cls-10" x1="1119.7" y1="191.24" x2="1217.07" y2="191.24"/><line class="cls-10" x1="1119.65" y1="236.5" x2="1249.63" y2="236.5"/><line class="cls-10" x1="1119.7" y1="244.52" x2="1217.07" y2="244.52"/><line class="cls-11" x1="1275.11" y1="133.11" x2="1310.03" y2="133.11"/><line class="cls-11" x1="1274.64" y1="176.06" x2="1309.56" y2="176.06"/><line class="cls-11" x1="1274.64" y1="220.98" x2="1309.56" y2="220.98"/><rect class="cls-6" x="1032.89" y="270.08" width="126.18" height="75.97" rx="3"/><rect class="cls-12" x="1032.89" y="270.08" width="126.18" height="75.97" rx="3"/><circle class="cls-13" cx="1127.91" cy="293.09" r="9.46"/><circle class="cls-14" cx="1141.35" cy="293.09" r="9.46"/><path d="M1078.7,632.85l-1.07,1.82h-1.58l1.91-2.94-1.93-2.92h1.67l1.19,1.81,1.08-1.81h1.59l-1.93,2.92,1.95,2.94h-1.67Z" transform="translate(-25 -314.65)"/><path d="M1084.41,632.85l-1.07,1.82h-1.58l1.91-2.94-1.93-2.92h1.67l1.19,1.81,1.08-1.81h1.59l-1.93,2.92,2,2.94h-1.67Z" transform="translate(-25 -314.65)"/><path d="M1090.12,632.85l-1.07,1.82h-1.59l1.92-2.94-1.94-2.92h1.67l1.2,1.81,1.08-1.81H1093l-1.92,2.92,1.94,2.94h-1.67Z" transform="translate(-25 -314.65)"/><path d="M1095.83,632.85l-1.07,1.82h-1.59l1.92-2.94-1.94-2.92h1.67l1.2,1.81,1.08-1.81h1.58l-1.92,2.92,1.94,2.94H1097Z" transform="translate(-25 -314.65)"/><path d="M1104.05,632.85l-1.07,1.82h-1.58l1.91-2.94-1.94-2.92h1.68l1.19,1.81,1.08-1.81h1.59l-1.93,2.92,2,2.94h-1.67Z" transform="translate(-25 -314.65)"/><path d="M1109.76,632.85l-1.07,1.82h-1.59l1.92-2.94-1.94-2.92h1.67l1.2,1.81,1.08-1.81h1.58l-1.92,2.92,1.94,2.94H1111Z" transform="translate(-25 -314.65)"/><path d="M1115.47,632.85l-1.07,1.82h-1.59l1.92-2.94-1.94-2.92h1.67l1.2,1.81,1.07-1.81h1.59l-1.92,2.92,1.94,2.94h-1.67Z" transform="translate(-25 -314.65)"/><path d="M1121.17,632.85l-1.06,1.82h-1.59l1.91-2.94-1.93-2.92h1.67l1.19,1.81,1.08-1.81H1124l-1.93,2.92,2,2.94h-1.67Z" transform="translate(-25 -314.65)"/><path d="M1129.4,632.85l-1.07,1.82h-1.59l1.92-2.94-1.94-2.92h1.67l1.2,1.81,1.08-1.81h1.58l-1.92,2.92,1.94,2.94h-1.67Z" transform="translate(-25 -314.65)"/><path d="M1135.1,632.85l-1.06,1.82h-1.59l1.91-2.94-1.93-2.92h1.67l1.19,1.81,1.08-1.81H1138l-1.93,2.92,2,2.94h-1.67Z" transform="translate(-25 -314.65)"/><path d="M1140.81,632.85l-1.07,1.82h-1.58l1.91-2.94-1.93-2.92h1.67l1.19,1.81,1.08-1.81h1.59l-1.93,2.92,2,2.94H1142Z" transform="translate(-25 -314.65)"/><path d="M1146.52,632.85l-1.07,1.82h-1.58l1.91-2.94-1.94-2.92h1.68l1.19,1.81,1.08-1.81h1.59l-1.93,2.92,2,2.94h-1.67Z" transform="translate(-25 -314.65)"/><path d="M1154.74,632.85l-1.06,1.82h-1.59l1.91-2.94-1.93-2.92h1.67l1.19,1.81,1.08-1.81h1.59l-1.93,2.92,1.95,2.94H1156Z" transform="translate(-25 -314.65)"/><path d="M1160.45,632.85l-1.07,1.82h-1.58l1.91-2.94-1.93-2.92h1.67l1.19,1.81,1.08-1.81h1.59l-1.93,2.92,1.95,2.94h-1.67Z" transform="translate(-25 -314.65)"/><path d="M1166.16,632.85l-1.07,1.82h-1.59l1.92-2.94-1.94-2.92h1.67l1.2,1.81,1.08-1.81H1169l-1.92,2.92,1.94,2.94h-1.67Z" transform="translate(-25 -314.65)"/><path d="M1171.87,632.85l-1.07,1.82h-1.59l1.92-2.94-1.94-2.92h1.67l1.2,1.81,1.08-1.81h1.58l-1.92,2.92,1.94,2.94h-1.67Z" transform="translate(-25 -314.65)"/><g id="Group_719" data-name="Group 719"><rect id="Rectangle_183" data-name="Rectangle 183" class="cls-15" x="1614.05" y="340.73" width="247" height="299.04" transform="translate(-92.02 121.15) rotate(-14.03)"/><rect id="Rectangle_184" data-name="Rectangle 184" class="cls-16" x="1611.08" y="348.54" width="245.62" height="299.04" transform="translate(-94.02 120.49) rotate(-14.03)"/><rect id="Rectangle_185" data-name="Rectangle 185" class="cls-15" x="1610.04" y="348.37" width="247" height="305.25" transform="translate(-94.74 120.5) rotate(-14.03)"/><line id="Line_86" data-name="Line 86" class="cls-17" x1="1662.17" y1="309.58" x2="1853.68" y2="261.74"/><line id="Line_87" data-name="Line 87" class="cls-17" x1="1615.21" y1="320.6" x2="1653.93" y2="310.93"/><line id="Line_88" data-name="Line 88" class="cls-18" x1="1708.18" y1="104.22" x2="1798.15" y2="81.75"/><line id="Line_89" data-name="Line 89" class="cls-18" x1="1709.6" y1="109.77" x2="1777" y2="92.93"/><g id="Group_668" data-name="Group 668"><g id="Layer_1-2" data-name="Layer 1"><circle id="Ellipse_36" data-name="Ellipse 36" class="cls-19" cx="1640.3" cy="114.27" r="2.57"/><line id="Line_40" data-name="Line 40" class="cls-20" x1="1646.26" y1="137.46" x2="1700.96" y2="123.79"/><line id="Line_41" data-name="Line 41" class="cls-20" x1="1632.59" y1="82.75" x2="1646.26" y2="137.46"/><path id="Path_935" data-name="Path 935" class="cls-16" d="M1671.24,452,1623,423.11l0,0a56.2,56.2,0,0,1,34.68-25.69" transform="translate(-25 -314.65)"/><path id="Path_936" data-name="Path 936" class="cls-21" d="M1726,438.44a56.39,56.39,0,0,0-68.37-41h0L1671.23,452" transform="translate(-25 -314.65)"/><path id="Path_937" data-name="Path 937" class="cls-22" d="M1662.79,507.86A56.41,56.41,0,0,0,1726,438.44L1671.23,452l-8.45,55.87" transform="translate(-25 -314.65)"/><line id="Line_42" data-name="Line 42" class="cls-20" x1="1597.91" y1="108.44" x2="1646.2" y2="137.43"/></g><g id="Layer_2-2" data-name="Layer 2"><path id="Path_938" data-name="Path 938" class="cls-19" d="M1623,423.11l48.25,29-8.41,55.79a56.41,56.41,0,0,1-39.88-84.77" transform="translate(-25 -314.65)"/></g></g><line id="Line_90" data-name="Line 90" class="cls-18" x1="1712.29" y1="118.7" x2="1802.27" y2="96.22"/><line id="Line_91" data-name="Line 91" class="cls-18" x1="1713.71" y1="124.24" x2="1781.12" y2="107.4"/><line id="Line_92" data-name="Line 92" class="cls-18" x1="1615.11" y1="240.46" x2="1817.46" y2="189.9"/><line id="Line_93" data-name="Line 93" class="cls-18" x1="1616.92" y1="246.68" x2="1768.51" y2="208.81"/><line id="Line_94" data-name="Line 94" class="cls-18" x1="1618.59" y1="259.7" x2="1820.94" y2="209.15"/><line id="Line_95" data-name="Line 95" class="cls-18" x1="1620.41" y1="265.93" x2="1771.99" y2="228.06"/><line id="Line_96" data-name="Line 96" class="cls-18" x1="1622.76" y1="279.83" x2="1825.11" y2="229.27"/><line id="Line_97" data-name="Line 97" class="cls-18" x1="1624.57" y1="286.05" x2="1776.16" y2="248.18"/></g><circle class="cls-3" cx="668.32" cy="181.3" r="158.4"/><rect class="cls-5" x="524.27" y="382.52" width="339.73" height="242.94" transform="translate(-51.37 -276.16) rotate(-3.12)"/><rect class="cls-23" x="539.24" y="439.95" width="35.64" height="35.64" transform="translate(-49.06 -283.68) rotate(-3.12)"/><rect class="cls-23" x="632.63" y="480.69" width="35.64" height="35.64" transform="translate(-51.14 -278.54) rotate(-3.12)"/><rect class="cls-23" x="718.64" y="430.18" width="35.64" height="35.64" transform="translate(-48.27 -273.94) rotate(-3.12)"/><rect class="cls-23" x="814.74" y="564.84" width="35.64" height="35.64" transform="translate(-55.45 -268.52) rotate(-3.12)"/><rect class="cls-23" x="637.72" y="574" width="35.64" height="35.64" transform="translate(-56.21 -278.13) rotate(-3.12)"/><rect class="cls-23" x="723.67" y="522.53" width="35.64" height="35.64" transform="translate(-53.28 -273.53) rotate(-3.12)"/><rect class="cls-23" x="543.77" y="531.84" width="35.64" height="35.64" transform="translate(-54.05 -283.3) rotate(-3.12)"/><rect class="cls-23" x="809.63" y="471.06" width="35.64" height="35.64" transform="translate(-50.36 -268.94) rotate(-3.12)"/><rect class="cls-24" x="518.42" y="382.17" width="339.1" height="33.72" transform="translate(-45.68 -276.65) rotate(-3.12)"/><rect class="cls-17" x="524.12" y="382.26" width="339.1" height="243.01" transform="translate(-51.36 -276.19) rotate(-3.12)"/><line class="cls-17" x1="494.59" y1="110.51" x2="783.65" y2="94.77"/><line class="cls-17" x1="833.19" y1="92.07" x2="806.74" y2="93.51"/><polyline class="cls-17" points="549.87 149.78 550.4 159.57 514.74 161.51 512.79 125.84 548.46 123.9 549.29 139.16"/><polyline class="cls-17" points="594.61 147.42 595.14 157.21 559.48 159.16 557.54 123.49 593.2 121.55 594.03 136.81"/><polyline class="cls-17" points="640.84 144.9 641.38 154.7 605.71 156.64 603.77 120.97 639.43 119.03 640.26 134.29"/><polyline class="cls-17" points="685.75 142.46 686.29 152.25 650.62 154.19 648.68 118.53 684.35 116.58 685.18 131.84"/><polyline class="cls-17" points="729.35 140.09 729.88 149.88 694.21 151.82 692.27 116.15 727.94 114.21 728.77 129.47"/><polyline class="cls-17" points="772.62 138.06 773.16 147.85 737.49 149.79 735.55 114.13 771.21 112.19 772.04 127.45"/><polyline class="cls-17" points="818.2 135.58 818.73 145.37 783.06 147.31 781.12 111.65 816.79 109.7 817.62 124.96"/><polyline class="cls-17" points="552.58 195.33 553.11 205.12 517.44 207.06 515.5 171.4 551.17 169.46 552 184.72"/><polyline class="cls-17" points="597.32 192.98 597.85 202.77 562.18 204.71 560.24 169.04 595.91 167.1 596.74 182.36"/><polyline class="cls-17" points="643.55 190.46 644.08 200.25 608.42 202.19 606.48 166.53 642.14 164.59 642.97 179.84"/><polyline class="cls-17" points="688.46 188.01 688.99 197.8 653.33 199.75 651.39 164.08 687.05 162.14 687.88 177.4"/><polyline class="cls-17" points="732.05 185.64 732.58 195.43 696.92 197.37 694.98 161.71 730.64 159.77 731.47 175.03"/><polyline class="cls-17" points="775.33 183.61 775.86 193.41 740.2 195.35 738.26 159.68 773.92 157.74 774.75 173"/><polyline class="cls-17" points="820.9 181.13 821.43 190.92 785.77 192.87 783.83 157.2 819.49 155.26 820.32 170.52"/><polyline class="cls-17" points="555.14 242.47 555.67 252.26 520.01 254.2 518.07 218.53 553.73 216.59 554.56 231.85"/><polyline class="cls-17" points="599.88 240.11 600.42 249.9 564.75 251.84 562.81 216.18 598.47 214.24 599.3 229.5"/><polyline class="cls-17" points="646.12 237.59 646.65 247.38 610.98 249.33 609.04 213.66 644.71 211.72 645.54 226.98"/><polyline class="cls-17" points="691.03 235.15 691.56 244.94 655.89 246.88 653.95 211.22 689.62 209.27 690.45 224.53"/><polyline class="cls-17" points="734.62 232.77 735.15 242.56 699.49 244.51 697.54 208.84 733.21 206.9 734.04 222.16"/><polyline class="cls-17" points="777.9 230.75 778.43 240.54 742.76 242.48 740.82 206.82 776.49 204.88 777.32 220.13"/><polyline class="cls-17" points="823.47 228.27 824 238.06 788.34 240 786.39 204.34 822.06 202.39 822.89 217.65"/><polyline class="cls-17" points="557.68 289.12 558.22 298.91 522.55 300.85 520.61 265.19 556.27 263.25 557.1 278.5"/><polyline class="cls-17" points="602.42 286.76 602.96 296.56 567.29 298.5 565.35 262.83 601.01 260.89 601.85 276.15"/><polyline class="cls-17" points="648.65 284.25 649.18 294.04 613.52 295.98 611.58 260.31 647.24 258.37 648.07 273.63"/><polyline class="cls-17" points="693.57 281.8 694.1 291.59 658.43 293.53 656.49 257.87 692.16 255.93 692.99 271.19"/><polyline class="cls-17" points="737.16 279.43 737.69 289.22 702.03 291.16 700.08 255.5 735.75 253.55 736.58 268.81"/><polyline class="cls-17" points="780.44 277.4 780.97 287.19 745.3 289.14 743.36 253.47 779.03 251.53 779.86 266.79"/><polyline class="cls-17" points="826.01 274.92 826.54 284.71 790.88 286.65 788.93 250.99 824.6 249.05 825.43 264.31"/></g></svg>