<svg xmlns="http://www.w3.org/2000/svg" viewBox="0 0 903.82 384.78" opacity=".1" xmlns:v="https://vecta.io/nano"><g fill="none" stroke="#4579bc" stroke-miterlimit="10"><g stroke-width=".4"><path d="M128.65 52.39a1005.92 1005.92 0 0 1 233.24 10.9q-38.73-22.89-81-42.67a992.83 992.83 0 0 0-172 102.39A1007.68 1007.68 0 0 1 377.1 28.78q-8.67-12.37-17.71-24.63a1058.4 1058.4 0 0 1 127.63 20.61q-34.05 13.16-66.24 28.45a1027.15 1027.15 0 0 1 161.47 7 940.51 940.51 0 0 0-157.82 49.39 962.42 962.42 0 0 0-217.76 21.15A954 954 0 0 1 324.75 7.15m475.11 236a914.1 914.1 0 0 0-311-66.76 1124.23 1124.23 0 0 1 93.39-116.1 1026.67 1026.67 0 0 1 110.45 8 1060.14 1060.14 0 0 0-107.91-40.84q29.52 36.09 54.66 73.64"/><path d="M380.47 188.15c-55.39-51.13-120.6-97.08-194.7-135A1041.7 1041.7 0 0 1 377.04 28.8a1052.3 1052.3 0 0 1 242.62 19.35 1016.11 1016.11 0 0 0-103.28 6 971.74 971.74 0 0 1 207.14 121.48 931.87 931.87 0 0 0-62.64-94.93 977.1 977.1 0 0 0-161.95 12.45c110.71 32.68 212.44 84 300.93 150a937.35 937.35 0 0 0-160.41-142.12 911.08 911.08 0 0 0-225.77 55.17q-15.71-41.76-34.56-82.93c-115.7 42.11-217 104.28-299.78 179.42"/><path d="M498.93 93.15c110.27 52.26 204.41 122.93 279.06 204.46m113.39 64.27a876.75 876.75 0 0 0-60.66-128.61q-.22 25.89-1.6 51.51A907.63 907.63 0 0 0 718.2 117.87q-6.54 9.42-13 18.9a927.89 927.89 0 0 1 173.41 178.18q-33.28-5.12-65.87-7.41-5.22-32.1-12.88-64.43"/><path d="M718.2 117.87q3.71-24 7-48.2a953.76 953.76 0 0 1 125.33 174.85A959 959 0 0 0 718.2 117.87a954.55 954.55 0 0 1 95.12 96 879.38 879.38 0 0 1 54.19 123.38"/><path d="M690.6 72.15a962.07 962.07 0 0 1 159.93 172.37M359.39 4.15a1071.46 1071.46 0 0 1 225.4 23.22q-1.22 16.44-2.54 32.86-46.27-19.9-95.23-35.47a1041.13 1041.13 0 0 1 173.86 55.92 1001.38 1001.38 0 0 0-100.93-3.66c89.26 63.77 162.4 139.38 218 220.57a918.83 918.83 0 0 0-76.75-197.35q-39.05-27.69-81.54-52.09m-173.9 22.23a1010.28 1010.28 0 0 1 114.19 6.66 904.47 904.47 0 0 0-83 44.62q-14.69-25.87-31.19-51.28z"/><path d="M375.2 95.91q34.38-14 70.6-25.53A980.73 980.73 0 0 0 311 97.51a977 977 0 0 0-202.13 25.5 1003.89 1003.89 0 0 1 240-76.58 1008.77 1008.77 0 0 0-107.2-14.63 1053.11 1053.11 0 0 1 194.53-9.49q36.54 8.28 72 19.06-21 8.29-41.28 17.41-17-13.68-34.89-26.77-3.9 38.8-7.54 77.63M67.27 56.72Q45.2 94.55 26.89 133.15a1012.39 1012.39 0 0 1 123.62-78.77q-38.13 7.25-76 17.42m225.8-68.37q-47.26 13.16-92.59 30.42-38 .7-76.41 4.26"/><path d="M108.83 123.01a988.55 988.55 0 0 0-38.18 109.66q16.55-29.68 35.81-58.72a880.25 880.25 0 0 0-79.57-40.8 1018.35 1018.35 0 0 1 158.88-80 965 965 0 0 0-76.94 69.88q-10.44-14.45-21.25-28.71 20.62-28.56 43.73-56.17 22.75.23 45.19 1.44a1039 1039 0 0 0-148 68.75 1039.08 1039.08 0 0 1 145-77.53 1054 1054 0 0 1 107.34-10.15M5.41 333.61c101.23-93.46 228.93-164.52 373.79-202.2A916.81 916.81 0 0 0 70.65 232.67m365.55-45.23c60.8-35.75 129-65.26 203.22-86.41A896.44 896.44 0 0 1 749.4 244.15a928.36 928.36 0 0 0-272.44-122.5"/></g><g stroke-width=".5"><path d="M89.71 57.72q-5-.45-10.08-.85"/><path d="M93.64 61.25q-8.46 2.34-16.9 4.83-.73 2.94-1.45 5.86 9.1-5.43 18.35-10.69-4.89-.15-9.79-.25l5.86-3.28q-6.47 1.26-12.92 2.6l2.84-3.45q-12.63 5-25.14 10.27-8 1.47-16 3.09-1.6 2.86-3.18 5.75 10.34-6.72 20.85-13.22 13.74-5.88 27.65-11.38 17.94-5.91 36.05-11.16-1.89 1.75-3.77 3.52-9 .47-18.12 1.1-7.11 3.23-14.16 6.54-7.53 1.86-15 3.83M55.7 86.49q-12.81 7.82-25.35 16l10.16-.12q.39-5 .81-9.9 7.17-3 14.38-5.94 3.78-4.31 7.62-8.58"/><path d="M39.96 111.76q-7.24 11.1-14.14 22.3 13.6-8 27.48-15.63-12 .39-24.12 1.1 5.35-3.91 10.78-7.77l-5.3-1.6q2.9-3.91 5.85-7.83-8 5.77-15.93 11.69l1.28 4.28q-4 3-8 6"/><path d="M66.76 105.63q-20.9 13.76-40.94 28.43m23.04-4.74q2.18-5.44 4.44-10.89-10.84 8.19-21.4 16.64 18.63-7.71 37.49-14.64 2.53-4.23 5.13-8.45-12.99 8.49-25.66 17.34zM87.35 94.7q16.13-7.85 32.55-15.12l10.48-.56q4.83-7 9.82-14-12.8 11.07-25.06 22.47l4.3 1.93"/><path d="M158 59.98q26.13-9.81 52.85-18.22-12.73.54-25.53 1.41-.37 5.2-.74 10.41-13.32 3-26.58 6.4-8.58 7-16.94 14.24 7-4 14-8-17.73 6.33-35.19 13.32"/><path d="M210.85 41.76q-4 3-7.9 6.12-8.75-2.43-17.63-4.73 28-6.47 56.36-11.39l-8.42 4.59q-12.54-1.45-25.19-2.59 10.86-4 21.86-7.84-9.68 7.83-19.08 15.84zm30.28-2.26l-6.54-1.7-5.63 3.34q6.89-1.86 13.82-3.63m-126.73 6.23Q140.99 37 166.17 31.5q-7.38 2.54-14.72 5.16-9.63.3-19.32.78"/><path d="M151.45 36.66q19.09-2.76 38.18-4.81 3.19-2.94 6.41-5.87-10.12 5.25-20.09 10.69l-1.89-6.17m15.57 1.35q12.69-5.28 25.57-10.25l-7.16.31 2.33 4q9.66-3.26 19.41-6.31m1.34-1.38q7.4-2 14.81-3.85l-2.73 2.88q-4.92-.82-9.86-1.61"/><path d="M243.42 16.77q7.35-.18 14.69-.25l-4.33 2.4-.72-4.84m-21.56 8.57q9.45-.9 18.9-1.62-5.62 1.56-11.21 3.2 3.79-2.37 7.62-4.71m8.32-9.93q6.93-.76 13.86-1.45-6.5 1.33-13 2.76 6.9-1.92 13.85-3.75 9.17-1.81 18.37-3.45l-1.3 1.52q-4.86-.25-9.73-.46m-1.06 3.01h0q6.48 0 12.95.08 11.64-2.57 23.34-4.87 24 .09 48 1.28-5.35-1.92-10.75-3.77l-1.26 6.28m-59.33 1.08q8.11.63 16.2 1.38-6.17 1.82-12.29 3.7 2.36 2.39 4.7 4.8-8.87.81-17.73 1.77"/><path d="M282.78 15.67q7.47 1 14.9 2.06 3.45-4.24 6.95-8.45-6.48.47-12.95 1m32.45-2.7l5.52 3.62q5.16-1.17 10.35-2.28-7.92-.77-15.87-1.34zM72.04 130.15q-4.25 4.34-8.4 8.71 5.09-1.63 10.18-3.21-5.69-.66-11.42-1.26m29.36-6.24q-2 5.91-3.94 11.82-7.06 2.81-14.08 5.72 16.76-12.82 34.21-25"/><path d="M87.82 139.97q10.33 3.6 20.49 7.42-29 9.33-57.51 20.54 18.09-14.35 37.02-27.96z"/><path d="M73.74 145.69Q57.2 167.15 42.2 189.08q9.77-9.19 19.86-18.17-5.61-1.53-11.28-3"/><path d="M40.84 179.53q10.59-4.44 21.24-8.62-11.2 16.32-21.57 32.89 9.21-5.86 18.56-11.54-3.23 8.63-6.26 17.25 7.94-6.19 16-12.23 0 18.33.42 36.58-9-8-18.26-15.77 8.73-10.5 17.84-20.81-4.84-2.53-9.76-5 1.41-10.67 3-21.35"/><path d="M34.59 246.44q16.6-17 34.31-33.26m-5.07 15.97q-19.12 19.57-36.72 40 11.69-5 23.47-9.72-6.61-7.85-13.36-15.61-.33 18.52-.13 37-13.48 12.36-26.34 25.19m-3.26 27.7q8 8 15.76 16.14-8.17 8.22-16.05 16.62 12-21.63 25.53-42.86-14.53 15.46-28.15 31.54 7.4 7.32 14.64 14.74 9 1 18 2.27"/><path d="M21.4 382.27q4.5-8.07 9.23-16.07m14.02-71.45q3.28-17.57 7.27-35.16 12.75-3 25.49-5.58-10.14 12.67-19.67 25.58 8.71-17.43 18.37-34.68 17.11-8 34.55-15.33"/><path d="M81.82 251q16.38-14.93 33.68-29.17m-7.87-97.2q21.27-2.88 42.44-4.8-20.49 6.13-40.73 13.16 16.26-9.92 33-19.24"/><path d="M126.8 122.6q12.83 5 25.34 10.4-1-6.58-2.07-13.17m11.75 13.32q5.28 5.5 10.46 11.06 5.68-6.66 11.53-13.26 7 6.45 13.76 13 4.25-6.23 8.61-12.42"/><path d="M172.28 144.21q5.37 5.41 10.64 10.88-22.8 11.1-44.8 23.33 17.46-4.6 35-8.51 5-19.5 10.65-39m-45.9 48.24q-4 12.12-7.7 24.25 20.61-17.19 42.59-33.36a901.54 901.54 0 0 0-101.92 63.11m308.13-101.39q1.69 27.73 3.19 55.46 7.74-20.77 16.19-41.42-13.9 1.08-27.73 2.57 15.45-9.91 31.54-19.31-11.52-3.53-23.22-6.78 5.85-10.9 12-21.72-9.45 2.75-18.8 5.68 14 7.31 27.56 15"/><path d="M398.35 145.8q-11.41 8.5-22.42 17.3 19.15 18.11 36.77 37-14.25-3.76-28.73-7.06 30-9.47 61.23-16.84-.74-17.92-1.64-35.86 18.72 0 37.47.79-10.49-11.58-21.5-22.93 3.42 17.13 6.5 34.28 6.09-9.69 12.4-19.28"/><path d="M412.7 200.08q8.58-10.2 17.53-20.23 12-10.51 24.61-20.7-5-9.19-10.32-18.33 10.89 5.7 21.51 11.64m44-47.54q-8.12-.74-16.24-1.35 11.22-5.11 22.68-10-3.25 5.64-6.44 11.31-5.49-5.81-11.1-11.55-6.3 10.53-12.4 21.14-13.58 1.63-27 3.67"/><path d="M482.93 83.31q5.57 10.11 10.86 20.26 3 3 6 6-37.5-1.38-74.79.15m-34.1-9.16q-7.17-7.11-14.56-14.11-26.94 4.39-53.41 10.26-9-11.87-18.49-23.55-1 8.53-1.95 17.09 8.85-15.85 18.32-31.54 20.1 1.81 40 4.43-28.26 1.66-56.39 4.92 32.3-12.58 66-23-17.71 3.87-35.17 8.33 30-3.66 60.21-5.58-12.48-1.53-25-2.75 38.74 11.09 75.74 25.01"/><path d="M322.93 96.71q-10.23-2.85-20.59-5.47 25.62.14 51.06 1.61-28.92-6.25-58.63-10.78m81.57 4.38q-11.53 3.06-22.94 6.4"/><path d="M302.6 73.77q23.37-13.87 47.91-26.62-25.12 21.47-48.17 44.09m182.35-14.61q24.74 3.3 49.26 7.83l.5-9.71q-19.89 6-39.2 12.72 8-9.18 16.16-18.25 2.52 9.33 4.91 18.67M343.66 43.2q9.87-3.45 19.87-6.71 1.51 2.35 3 4.73-8.58-2.67-17.27-5.21 3.36 4 6.69 8 20.14-10.08 41-19.37v10q-5.88-3.65-11.84-7.21 13.56-1.57 27.17-2.8m-9.85-5.24q9.18-1 18.41-1.91-11.79-.63-23.6-1 11.77 2 23.46 4.24-2.37-4.09-4.79-8.19 18.24-.21 36.49.21-8.63.91-17.21 2-1.69-2.27-3.41-4.51 10.17 2 20.27 4.28m35.51 10.69q4.3-3.85 8.67-7.68 16.69 2.79 33.26 6.12-33.57-3.88-67.29-5.61 12.75 3.44 25.36 7.17 15.61-2.6 31.43-4.71-36.22-1.31-72.25-.15m87.81 2.73q12.12-1.17 24.33-2-5.92 6.7-11.74 13.48 41.12.91 82.56 5.11-47.25-10.51-95.15-16.59zM692 58.01q15.56 8.05 30.75 16.58-6-5.34-12.22-10.61"/><path d="M600.83 37.08q-36.42-10.33-73.63-18.09 29.13 3.76 58.07 9.13-12.56-3.61-25.21-6.92 20.63 7.53 40.79 15.88l5.22-4.62q44.13 15.95 86.35 35.59-.19-5-.42-10-22.74-5.51-45.63-10-7.89-4.4-15.89-8.66a1063.2 1063.2 0 0 1 112.25 40.5q-4.5-3.31-9-6.61-3.19 2-6.36 4.09 6.32 2.25 12.6 4.58-7.31-6.25-14.78-12.41m2.14 7.82q4.83 5.55 9.54 11.16l5.7-.9q-6.92-3-13.87-5.83 10.79 7.25 21.35 14.72"/><path d="M742.57 87.62l2.1 6.43m-4.74-12.11l2.8-2.06q-10-2.74-20-5.29M708.1 79.3q-8.85 6-17.54 12.11-14.55-5.59-29.27-10.75 25.8 1 51.85 3.32l1.31 9.15q-11.46-10.56-23.35-20.85 6.75 11.34 13.12 22.76 4.43 1.74 8.84 3.52 6.61 5 13.12 10.08l-10.14-5.9q3.76 1 7.5 2.13"/><path d="M720.65 93q-14.54-10.57-29.55-20.72m22.78 20.35q-25.8-6.48-51.74-11.48 15.78 18 30.41 36.44 4.2-9 8.44-18-17.88 9.69-35.09 20 14.91 3.4 29.75 7.26 0 6.33 0 12.65l8.69-2.27"/><path d="M714.88 123.09q-6.57-11.15-13.52-22.22 8.88 8.5 17.48 17.18m-107.33-.16q-12.81-14.48-26.42-28.6 13.14 8.18 25.92 16.7-7 .3-13.93.71 7.39 3.76 14.7 7.64-9.75-6.39-19.71-12.59 18.25-1.5 36.75-2.32Q594.9 87.22 560 77.38a1016.94 1016.94 0 0 1 141.36 23.49"/><path d="M740.14 112.59q7.24 2.76 14.46 5.62-4.24-3.44-8.54-6.84 0 3.28 0 6.55l5.19-3.87M622.1 103.64q-18.31-7.53-37-14.35 15.78-2.65 31.8-4.79-42.78-9.18-86.1-14.64 25.54-5.34 51.78-9.37-36.95-.24-73.32 2.17m169.11 65.49q8.61-.81 17.28-1.45-28.25-13.83-57.51-25.94 27.42 7.59 54.41 16.74 10.78-4.27 21.76-8.32m-42.94 32.68q4.83 5 9.56 10.12l.92-4.47-9.42-2.43q14.52 9.44 28.59 19.31 1 5.19 2 10.36 2.91-1.59 5.85-3.15-6.8-3.87-13.65-7.64l2.73-2.95m133.36 73.14q-13.23-10.32-26.86-20.19 17.21 9.48 34 19.66 3.13 7.23 6.14 14.49 2.87-1.54 5.74-3.06-10.56-2.13-21.09-4-7.11-12.85-14.7-25.58m45.66 49.68q-2.31-5.35-4.69-10.69-5.4-3.17-10.83-6.26M397.41 19.27q17-4.82 34.37-9.07m319.23 236.57q21.44 27.78 40.06 56.54-16.3-16.95-33.72-33.17 28.79 17.44 56.16 37a880.33 880.33 0 0 1 66 58.77q-17.74-5.58-35.45-10.27 22.68-6.9 46.16-12.59-21.6-35.6-47.02-69.82 14 14.22 27.32 28.92a922.7 922.7 0 0 0-88.78-60.2q-8.16 26.9-16.81 53.61-.42-25.43-2.07-51.09 14 14.79 27.07 30a861.77 861.77 0 0 1 86.27 105.68"/><path d="M781.74 241.96q22.53 9.06 44.73 19.39-7.78-10.51-16-20.88 10 22.11 18.59 44.37 14.15-2.82 28.59-5.15-7.46-8.4-15.17-16.64a869 869 0 0 1 47.43 96.73M725.38 167.65l-1.43 7.76q9.78 4.35 19.44 8.92-11.67-7.55-23.61-14.76 11.49-1.51 23.13-2.74l-8.35-3.18q7.42 9.41 14.55 18.93l-11.49 2.49M630.48 39.38q-5.53 4.44-11 8.94 36.21 3.56 72.5 9.69 10.66 8.2 21 16.63"/></g></g><g fill="#4579bc"><path d="M26.53 109.4l.24-.46Q51.54 96.8 76.91 86q-1.32-7-2.63-13.95 26.94-10.72 54.44-20 1.29-7 2.64-14-27.61 10.41-54.57 22.31-4.53-2-9.08-3.88l.85-.46q4.47 1.88 8.91 3.79 27.06-11.92 54.8-22.35-1.4 7.3-2.7 14.59l-.51.17q-27.13 9.1-53.77 19.69 1.33 7 2.68 13.94-26.02 11.09-51.44 23.55z"/><path d="M87.57 94.47q-5.31-4.19-10.69-8.33 25.51-17.85 52.41-34.31 9.87 1.41 19.63 3 13.74-7.91 27.79-15.43l.49.06q-14.46 7.75-28.59 15.9-9.75-1.62-19.61-3.05-26.13 16-51 33.39 5.16 3.94 10.26 7.95 25-15.21 51.13-29.07 8.27.51 16.46 1.16l-.77.49-16-1.14q-26.29 14.06-51.51 29.38z"/><path d="M129.31 52.15l-.33-.13q22.14-11.31 45-21.62l.35.11q-22.86 10.32-45.02 21.64zm56.53 1.22l-.8.1q11.15-10.12 22.72-20 17.2-1.3 34.37-2l-.45.35q-16.78.72-33.61 2-11.31 9.64-22.23 19.55zM281.04 21l-.35-.18q20.83-7 42.12-13.14-11.49-2.1-23.07-4l.56-.24q12 1.91 23.83 4.09-21.76 6.32-43.09 13.47z"/><path d="M323.45 7.75V7.5q18.4-1.93 36.9-3.24v.24q-18.46 1.31-36.9 3.25zM25.82 134.06l-.8.2q24.93-24.83 52.05-48.24l.75-.16q-27.09 23.37-52 48.2zm16.38 55.02v-.58q31.72-21.86 65.48-41.28-.63-11.34-1.16-22.69l1.11-.56q.56 11.56 1.25 23.11l-.54.31q-34.08 19.58-66.14 41.69zm64.6-14.8l.15-.73a948.66 948.66 0 0 1 99.25-42.31v.6a945.39 945.39 0 0 0-99.4 42.44zm58.08 8.01q-13.74-1.68-27.67-2.92l.91-1q13.94 1.23 27.65 2.91z"/><path d="M7.03 333.55l-1 .11a833.67 833.67 0 0 1 63.22-99.8q-9.57-7.57-19.39-14.94 27.09-23.38 56.41-44.9.59-13.41 1.41-26.83l.54-.3q28.26-15.53 57.75-29.25-30.74 27-58.28 55.86 15.66 2.24 31 5l-.82.59q-35.16 25.65-67 54 5.54 8.91 11 17.87l-1.3 1.19q-5.37-8.88-10.82-17.73a833.38 833.38 0 0 0-62.72 99.13zM51.59 218.2q9.52 7.13 18.81 14.43 31.49-27.94 66.24-53.36-14.85-2.67-30-4.85-28.56 20.99-55.05 43.78zm57.23-71.05q-.76 12.85-1.3 25.69 26.28-27.45 55.5-53.28-27.63 12.95-54.2 27.59zm193.9-73.32l-.06-.42q28.56-6.07 57.6-10.52-5.4-8.28-11-16.48l.88-.18q5.75 8.42 11.29 16.89-29.58 4.5-58.71 10.71z"/><path d="M360.96 63.15l-.2-.38q29.12-5.49 58.75-9.31l.27.37q-29.67 3.85-58.82 9.32z"/><path d="M424.84 109.96q-25-7.44-50.8-13.57v-.16q2.06-11.4 4.21-22.79-8.64-5.11-17.45-10.08-25.19 16.46-48.76 34.11l-.79-.19q24-17.92 49.61-34.63 9.07 5.08 18 10.34 20-10.2 40.84-19.61 13.63 8.22 26.83 16.8 27 10.93 52.95 23.3-37.95 6.69-74.52 16.26zm-49.7-13.94q24.85 5.93 49.06 13.13 10.31-19.4 21.36-38.56-33.27.39-66.33 3-2.08 11.19-4.09 22.43zm71.32-25.31q-10.92 19-21.11 38.29 35.48-9.21 72.31-15.78-25.06-11.91-51.2-22.51zm-26.87-16.72q-20.16 9.14-39.58 19 32.54-2.51 65.3-2.91-12.66-8.19-25.72-16.09z"/><path d="M446.57 70.46l-.76-.28q7.71-4.5 15.57-8.88l.75.28q-7.86 4.38-15.56 8.88zm-65.15 117.36l-.93-.5q15.85-15.33 32.8-30.08-16.54-13-34-25.33l.45-.24q21.56-11.6 44.12-22.19-21.89-18.51-45.47-36l.86-.28q23.87 17.65 46 36.38l-.35.17q-22.52 10.56-44 22.15 17.46 12.33 34 25.28-17.34 14.97-33.48 30.64z"/><path d="M380.1 132.23l-.12-.65a944.83 944.83 0 0 1 95.22-9.89q-25.14-6.61-50.83-11.89l.38-.54q27.52 5.66 54.45 12.89l-1.9.1a943.39 943.39 0 0 0-97.2 9.98z"/><path d="M435.68 187.51q-10.78-15.36-22.37-30.36l.35-.21q30.36-18.67 63.14-35.27l.76.49q-32.57 16.5-62.79 35.13 11.37 14.76 22 29.8zM423.49 39.54l-.77-.16 9.58-7q-27.53-2.47-55.25-3.48 3 3.27 5.92 6.56l-.83.14q-3.15-3.54-6.35-7.06 29 1 57.78 3.63-5.08 3.66-10.08 7.37z"/><path d="M471.09 35.97h-.28q-19.12-2.13-38.35-3.56 1.88-5.16 3.77-10.31 25.88.94 51.7 3.15l-.3.19q-8.35 5.18-16.54 10.53zm-37.68-3.82q18.65 1.39 37.2 3.47 7.92-5.16 16-10.21-24.81-2.08-49.67-3-1.74 4.85-3.53 9.74z"/><path d="M508.8 41.44q-10.77-8.16-21.88-16.1-3.72-4.19-7.43-8.39h.74q3.69 4.13 7.33 8.27 30.06 3.67 59.84 9.07-19.47 3.21-38.6 7.15zm-20.81-15.9q10.65 7.6 21 15.43 18-3.7 36.4-6.77-28.57-5.11-57.4-8.66z"/><path d="M515.92 54.67l-.19-.38q32.36 1.7 64.75 5.45Q545.1 49.3 508.8 41.35l.18-.3q38.22 8.37 75.5 19.52-34.28-4.1-68.56-5.9z"/><path d="M560 77.38q-21.67-11.82-44.23-22.69-24.42 1.85-48.51 4.85l-.37-.39q24.31-3 49-4.88 22.3 10.73 43.77 22.41 10.92-8.37 22.18-16.5h-.2l.33-.11q-17.5-13.18-35.86-25.75-13.5-7.18-27.34-14l.55-.1q13.7 6.75 27.08 13.85 19.22-3.54 38.76-6.38 17.53 10 34.48 20.55l.69.16-.32.1q21.68 15.87 42.15 32.64-39.29-11.99-79.38-20.75Q571.2 68.76 560 77.38zm23.34-17.23q38.91 8.53 77.1 20.06-19.87-16.23-40.89-31.64-18.35 5.48-36.21 11.58zm-36.2-25.67q18.06 12.38 35.31 25.36 17.88-6.11 36.24-11.57-35.55-8.12-71.55-13.77zm38-6.47q-19 2.78-37.75 6.22 35.81 5.64 71.21 13.73-16.4-10.22-33.4-19.93z"/><path d="M638.69 100.95l-.5-.39q-27-21-56-40.36l.61-.09q28.74 19.2 55.51 39.95 11.17-10 22.71-19.71 20.52 9.69 40.5 20.22l-.15.3q-19.62-10.35-39.79-19.9-11.63 9.87-22.89 19.98z"/><path d="M661.66 80.89l-.74-.46q14.4-4.46 29.11-8.49-35.33-13.15-71.59-23.79 22.62-.6 45.52-.19l.27.18q14.57 9.87 28.68 20.15 15.9.24 31.92 1l.6.44q-16.29-.75-32.45-1l-.3-.21q-14.12-10.29-28.7-20.18-21.82-.39-43.42.15 35.89 10.59 70.91 23.69l-.37.1q-14.9 4.1-29.44 8.61zm42.65 56.26q-32.67-19.72-67.23-37.1 41 7.27 81.76 18l.4.57q-39.48-10.47-79.33-17.63 33.15 16.77 64.62 35.76l-.22.4zm19.29 38.74l-.72-.83 14.52-.33q-4.2-6.06-8.53-12.09l.84.15q4.56 6.36 9 12.76-7.58.11-15.11.34z"/><path d="M747.94 182.15q-5-3.39-10-6.72l.15-.49q5 3.33 10 6.71a2.14 2.14 0 0 0-.15.5zm30.46 117.18l-1.1-1.2 11.95-23.47q-19.32-14.67-39.5-28.35v-.86q20.32 13.76 39.79 28.52 5.76-15.19 11.38-30.44 15.25 20.79 29 42.11-19.75-5.61-39.49-10.2a.78.78 0 0 1 0 .14h0zm23.23-53.86q-5.31 14.51-10.74 28.95 18.63 4.37 37.31 9.62-12.67-19.48-26.57-38.57z"/><path d="M858.2 370.15l-1.1-1.48q5.18-15.72 10.1-31.52-17.78-26.14-37.75-51.38-7.77 11.9-15.5 23.81-11.6-17.5-24.24-34.65l.65-.26q12 16.25 23 32.81 7.67-11.76 15.39-23.51 21 26.41 39.67 53.9-4.95 16.19-10.22 32.28z"/><path d="M813.87 309.15l-.43-1.34q27.28 13.38 53.91 28.81 5-10.26 10-20.55-24.15-16.49-49.25-31.35 5.73-5.81 11.53-11.54l1 1.17q-5.31 5.3-10.55 10.61 24.86 14.81 48.88 31.26-5.31 11.08-10.7 22.11-26.83-15.63-54.39-29.18z"/><path d="M891.04 361.88q-11.36-12.14-23.21-23.85v-1.1q11.83 11.69 23.2 23.77zM487.73 176.51l-1-.57q7.69-7.6 15.64-15.08-4.92-4.54-10-9.06l.87-.37q5.31 4.74 10.51 9.55-8.1 7.7-16.02 15.53z"/><path d="M503.5 161.25l-.8-.65q6.63-3.64 13.38-7.18l.8.63q-6.73 3.56-13.38 7.2zm326.83 80.77l-1-.92 1.47-7.17q-8.4-9.76-17.12-19.35l.51-.14q9 9.91 17.71 20z"/><path d="M831.51 234.65l-.4-.92q10 5.35 19.82 11l.41 1q-9.85-5.69-19.83-11.08zM80.62 84.99a13.59 13.59 0 0 1-5 2.88c-1.76.53-2.36.1-1.35-1a13.35 13.35 0 0 1 5-2.86c1.74-.49 2.35-.07 1.35.98zm62.33-20.96a11 11 0 0 1-4.72 2.39c-1.75.42-2.47 0-1.61-.92a10.88 10.88 0 0 1 4.71-2.38c1.74-.41 2.47.03 1.62.91zM91.49 93.04a13.17 13.17 0 0 1-5.14 3c-1.83.54-2.48.05-1.45-1.08a12.78 12.78 0 0 1 5.12-3c1.81-.51 2.47-.03 1.47 1.08zm-62.64 39.85a16 16 0 0 1-5.65 3.87c-1.9.71-2.46.12-1.25-1.32a15.63 15.63 0 0 1 5.6-3.84c1.93-.69 2.49-.12 1.3 1.29zm83.25 13.17a12.38 12.38 0 0 1-5.83 4c-2.13.62-3-.17-1.86-1.75a12.11 12.11 0 0 1 5.81-3.92c2.11-.65 2.98.12 1.88 1.67zm98.1-15.22c-.85 1.43-3.31 2.92-5.51 3.31s-3.28-.45-2.42-1.9 3.31-2.9 5.49-3.28 3.22.45 2.44 1.87zm-99 41.8a12.5 12.5 0 0 1-6.11 4.51c-2.25.68-3.14-.27-2-2.1a12.23 12.23 0 0 1 6.09-4.47c2.23-.65 3.13.27 2.02 2.06zm-56 43.89a15 15 0 0 1-6.53 5.65c-2.31.88-3.13-.24-1.82-2.5a14.78 14.78 0 0 1 6.51-5.6c2.27-.86 3.09.23 1.84 2.45zm85.6-38.7a11.44 11.44 0 0 1-6.12 4.52c-2.32.62-3.32-.41-2.23-2.3a11.24 11.24 0 0 1 6.1-4.47c2.3-.6 3.31.4 2.25 2.25zm-66.43 54.02a14.35 14.35 0 0 1-6.64 6c-2.4.88-3.32-.39-2-2.83a14 14 0 0 1 6.62-5.91c2.35-.88 3.27.36 2.02 2.74zm10.38 18.39a14.07 14.07 0 0 1-6.74 6.39c-2.48.9-3.48-.53-2.22-3.18a13.8 13.8 0 0 1 6.73-6.32c2.46-.86 3.46.52 2.23 3.11zM10.2 331.68c-1.36 3.54-4.51 7.47-7 8.76s-3.5-.6-2.13-4.19 4.52-7.4 7.05-8.64 3.42.54 2.08 4.07zm158.54-150.66a10.47 10.47 0 0 1-6.1 4.47c-2.37.56-3.46-.54-2.44-2.46a10.32 10.32 0 0 1 6.09-4.43c2.35-.55 3.44.55 2.45 2.42zm-.48-63.26a10.23 10.23 0 0 1-5.44 3.23c-2.08.46-3-.25-2.08-1.58a10.15 10.15 0 0 1 5.46-3.26c2-.4 3 .3 2.06 1.61zm196.02-54.61c-.36.86-2.22 1.58-4.15 1.61s-3.18-.66-2.8-1.52 2.23-1.58 4.14-1.61 3.17.61 2.81 1.52zm-48.81 34c-.53 1.12-2.66 2.15-4.77 2.29s-3.37-.68-2.82-1.81 2.67-2.15 4.76-2.28 3.35.68 2.83 1.8zM383 73.33c-.33.93-2.2 1.67-4.18 1.66s-3.32-.77-3-1.7 2.2-1.67 4.17-1.66 3.33.78 3.01 1.7zm45.38 36.61c-.22 1.19-2.16 2.06-4.33 2s-3.72-1.17-3.47-2.36 2.18-2 4.32-1.93 3.71 1.11 3.48 2.29zm-10.03 47.47c-.29 1.6-2.46 2.82-4.85 2.72s-4.08-1.49-3.77-3.1 2.48-2.79 4.85-2.68 4.05 1.47 3.77 3.06zm88.98 4.12c0 1.59-2 2.6-4.3 2.27s-4.21-1.88-4.16-3.47 2-2.57 4.3-2.24 4.19 1.87 4.16 3.44zm-10.29-9.38c-.05 1.51-2 2.49-4.29 2.19s-4.14-1.76-4.06-3.26 2-2.46 4.29-2.17 4.11 1.76 4.06 3.24zm-5.3 24.65c-.08 1.74-2.12 2.91-4.54 2.6s-4.31-2-4.2-3.7 2.14-2.87 4.54-2.57 4.28 1.95 4.2 3.67zm28.89-22.41c0 1.51-1.84 2.45-4.14 2.09s-4.17-1.87-4.16-3.38 1.86-2.42 4.14-2.06 4.14 1.85 4.16 3.35zm-79.9 33.23c-.24 1.88-2.47 3.27-5 3.1s-4.32-1.85-4.05-3.73 2.49-3.23 5-3.06 4.29 1.83 4.05 3.69zm40.41-65.28c-.09 1.26-1.93 2.09-4.13 1.85s-3.88-1.45-3.78-2.71 2-2.07 4.12-1.83 3.85 1.44 3.79 2.69zm-95.64 65.28c-.41 1.91-2.78 3.45-5.3 3.43s-4.22-1.59-3.79-3.51 2.79-3.39 5.29-3.39 4.2 1.57 3.8 3.47zm-1.57-55.68c-.37 1.39-2.53 2.51-4.81 2.5s-3.82-1.16-3.43-2.55 2.54-2.49 4.8-2.48 3.81 1.15 3.44 2.53zm-4.87-35.72c-.35 1.1-2.35 2-4.46 2s-3.51-.9-3.14-2 2.36-2 4.45-2 3.5.93 3.15 2zm70.68-25.89c-.15.89-1.84 1.49-3.78 1.35s-3.39-1-3.23-1.85 1.85-1.48 3.78-1.34 3.37.97 3.23 1.84zm21.36-10.28c-.09.8-1.67 1.32-3.54 1.14s-3.31-1-3.21-1.76 1.68-1.31 3.54-1.14 3.31.96 3.21 1.76zm48.62-5.07c0 .75-1.39 1.16-3.19.91s-3.27-1.07-3.3-1.82 1.41-1.15 3.19-.9 3.26 1.06 3.3 1.81zM474.3 35.84c-.06.65-1.52 1-3.24.89s-3.06-.82-3-1.47 1.53-1 3.24-.89 3.07.78 3 1.47zm-38.24-3.45c-.15.65-1.68 1.09-3.41 1s-3-.7-2.82-1.34 1.69-1.09 3.41-1 2.96.7 2.82 1.34zm-50.1 2.89c-.28.68-1.93 1.22-3.69 1.2s-2.95-.57-2.66-1.25 1.94-1.22 3.69-1.2 2.9.58 2.66 1.25zm54.06-12.77c-.14.58-1.61 1-3.27.88s-2.89-.66-2.73-1.24 1.61-1 3.26-.88 2.92.65 2.74 1.24zm-60.5 6.2c-.28.64-1.91 1.16-3.63 1.15s-2.88-.52-2.57-1.17 1.92-1.15 3.63-1.15 2.86.53 2.57 1.17zM512.01 41.8c0 .67-1.36 1-3.09.81s-3.13-.95-3.14-1.62 1.38-1 3.09-.81 3.12.97 3.14 1.62zM490.2 25.63c0 .59-1.38.92-3 .74s-3-.79-2.91-1.38 1.39-.92 3-.74 2.98.8 2.91 1.38zm59.19 9.34c.11.62-1.13.9-2.78.62s-3-1-3.14-1.6 1.15-.9 2.78-.63 3.04.99 3.14 1.61zm36.33 26.18c.19.77-1.07 1.09-2.81.73s-3.31-1.27-3.5-2 1.08-1.08 2.82-.72 3.29 1.22 3.49 1.99zm36.69-12.13c.27.67-.83.89-2.44.51s-3.13-1.24-3.39-1.91.85-.89 2.45-.5 3.11 1.23 3.38 1.9zm71.23 23.95c.43.77-.53 1-2.14.48a7.33 7.33 0 0 1-3.66-2.31c-.41-.77.55-1 2.15-.48a7.25 7.25 0 0 1 3.65 2.31zm34.24-2.49c.48.74-.36.91-1.88.38a8.36 8.36 0 0 1-3.58-2.28c-.47-.73.38-.89 1.88-.37a8.15 8.15 0 0 1 3.58 2.27zm-63.49 11.08c.38.85-.71 1.14-2.43.64s-3.41-1.59-3.77-2.43.73-1.12 2.44-.63 3.39 1.58 3.76 2.42zm40.15 20.15c.47 1-.55 1.26-2.29.67s-3.53-1.83-4-2.78.58-1.24 2.3-.66 3.52 1.81 3.99 2.77zm-37.82-52.77c.35.65-.6.82-2.13.39s-3-1.31-3.38-2 .62-.81 2.14-.38 3.03 1.34 3.37 1.99zm29.21 20.44c.43.75-.52 1-2.1.45a7.26 7.26 0 0 1-3.61-2.26c-.41-.74.53-.94 2.1-.44a7.23 7.23 0 0 1 3.61 2.25zM521.96 20.33c0 .55-1.2.81-2.79.59s-2.89-.83-2.92-1.38 1.21-.81 2.78-.59 2.88.83 2.93 1.38zm66.33 8.15c.18.57-.92.77-2.47.46s-2.94-1-3.11-1.59.93-.77 2.46-.46 2.93 1.02 3.12 1.59zM482.75 17.24c0 .54-1.37.85-3 .69s-2.86-.73-2.81-1.27 1.39-.85 3-.7 2.85.73 2.81 1.28zM426.3 39.62c-.18.69-1.77 1.18-3.55 1.1s-3.05-.71-2.85-1.4 1.78-1.18 3.55-1.1 3.04.71 2.85 1.4zm76.29 54.23c0 1-1.67 1.65-3.7 1.39s-3.65-1.3-3.62-2.33 1.69-1.63 3.7-1.38 3.63 1.3 3.62 2.32zm60.61-16.19c.14.89-1.26 1.32-3.13 1s-3.5-1.35-3.63-2.22 1.27-1.3 3.13-1 3.48 1.35 3.63 2.22zm79.4 24.49c.34 1-.9 1.41-2.77.89s-3.66-1.73-4-2.73.92-1.39 2.78-.88 3.65 1.72 3.99 2.72zm79.7 17.41c.52 1.07-.5 1.42-2.29.77s-3.66-2-4.17-3.09.53-1.4 2.3-.76a8.32 8.32 0 0 1 4.16 3.08zm-14.34 18.35c.51 1.22-.63 1.66-2.54 1s-3.86-2.21-4.35-3.42.65-1.64 2.55-1 3.84 2.2 4.34 3.42zM727 177.15c.57 1.53-.63 2.12-2.67 1.32s-4.13-2.67-4.68-4.18.65-2.07 2.67-1.29 4.12 2.63 4.68 4.15zm25.73 6.7c.62 1.55-.49 2.13-2.49 1.28a9.65 9.65 0 0 1-4.74-4.31c-.6-1.53.52-2.09 2.51-1.26a9.65 9.65 0 0 1 4.72 4.29zm-19.89-19.7c.58 1.41-.55 1.92-2.52 1.15s-4-2.53-4.58-3.92.57-1.89 2.53-1.14a8.92 8.92 0 0 1 4.57 3.91zm7.9 11.85c.6 1.5-.54 2.06-2.54 1.25a9.25 9.25 0 0 1-4.67-4.16c-.58-1.47.56-2 2.55-1.23a9.23 9.23 0 0 1 4.66 4.14zm93.06 68.37c.81 2-.16 2.7-2.16 1.59a13.13 13.13 0 0 1-5.06-5.54c-.78-1.94.19-2.63 2.18-1.55a12.94 12.94 0 0 1 5.04 5.5zm-29.48 1.7c.74 2-.35 2.83-2.44 1.75a12 12 0 0 1-5.1-5.63c-.72-2 .37-2.77 2.45-1.71a11.9 11.9 0 0 1 5.09 5.59zm-10.41 30.53c.7 2.38-.53 3.37-2.73 2.21a12 12 0 0 1-5.23-6.35c-.68-2.32.55-3.28 2.74-2.15a11.88 11.88 0 0 1 5.22 6.29z"/><path d="M817.59 310.54c.72 2.68-.51 3.82-2.73 2.53a13.39 13.39 0 0 1-5.31-7.15c-.7-2.62.52-3.72 2.74-2.46a13.11 13.11 0 0 1 5.3 7.08zm-35.47-9.57c.64 2.65-.72 3.83-3 2.62a12 12 0 0 1-5.28-6.95c-.62-2.59.73-3.73 3-2.55a11.78 11.78 0 0 1 5.28 6.88zm-28.53-53.9c.62 2.14-.69 3.06-2.91 2a10.34 10.34 0 0 1-5.12-5.68c-.6-2.09.71-3 2.92-2a10.29 10.29 0 0 1 5.11 5.68zm101.05.14c.85 2 0 2.65-2 1.52a13.93 13.93 0 0 1-5-5.57c-.83-1.92.06-2.59 2-1.48a13.61 13.61 0 0 1 5 5.53zM843.2 276.4c.81 2.27-.2 3.14-2.27 1.92a13.84 13.84 0 0 1-5.2-6.27c-.8-2.22.22-3.06 2.28-1.87a13.55 13.55 0 0 1 5.19 6.22zm-10.27 10.66c.78 2.4-.31 3.36-2.43 2.12a13.57 13.57 0 0 1-5.25-6.55c-.77-2.35.33-3.27 2.44-2.06a13.38 13.38 0 0 1 5.24 6.49zm38.53 52.32c.81 2.87-.26 4-2.39 2.59a16 16 0 0 1-5.32-7.75c-.8-2.8.27-3.92 2.39-2.51a15.58 15.58 0 0 1 5.32 7.67zm-9.99 31.96c.72 3.25-.51 4.65-2.72 3.11s-4.58-5.39-5.3-8.6.5-4.52 2.71-3 4.59 5.3 5.31 8.49zm33.35-7.28c.83 3.08-.21 4.32-2.32 2.78a17.64 17.64 0 0 1-5.3-8.3c-.82-3 .21-4.21 2.32-2.7a17.06 17.06 0 0 1 5.3 8.22zm-12.04-45.74c.87 2.62-.09 3.62-2.14 2.24a16.09 16.09 0 0 1-5.28-7.18c-.86-2.56.11-3.53 2.15-2.18a15.8 15.8 0 0 1 5.27 7.12zm-65.37-102.01c.77 1.75-.18 2.36-2.13 1.35a12.1 12.1 0 0 1-4.91-4.95c-.75-1.71.21-2.3 2.15-1.32a12 12 0 0 1 4.89 4.92zm17.45 19.84c.81 1.9-.13 2.57-2.1 1.49a13.06 13.06 0 0 1-5-5.36c-.79-1.86.16-2.51 2.12-1.45a12.93 12.93 0 0 1 4.98 5.32zM423 53.84c-.2.79-1.87 1.35-3.74 1.27s-3.19-.79-3-1.57 1.9-1.34 3.74-1.26 3.2.79 3 1.56zM306.2 73.52c-.52 1-2.54 1.85-4.51 2s-3.14-.52-2.6-1.48 2.55-1.84 4.51-2 3.08.54 2.6 1.48zm46.61-26.99c-.37.76-2.16 1.41-4 1.45s-3-.53-2.61-1.29 2.16-1.41 4-1.45 3 .54 2.61 1.29zM107.2 125.89c-2.28 1.19-4.2 1.41-4.29.5s1.67-2.6 3.94-3.76 4.17-1.38 4.27-.49-1.63 2.57-3.92 3.75zm-65 65.26c-2.54 1.69-4.57 2-4.54.75s2.09-3.68 4.61-5.34 4.54-2 4.53-.73-2.12 3.58-4.6 5.32zm-11.08-83.58a15.89 15.89 0 0 1-5.26 3.36c-1.78.65-2.3.17-1.16-1.06a15.68 15.68 0 0 1 5.25-3.34c1.77-.63 2.25-.16 1.17 1.04zm46.8-36.77a13.62 13.62 0 0 1-4.79 2.63c-1.68.51-2.24.14-1.27-.83a13.58 13.58 0 0 1 4.78-2.62c1.66-.49 2.24-.13 1.28.82zm54.22-19.43a11.44 11.44 0 0 1-4.52 2.22c-1.66.4-2.32.05-1.48-.78a11.51 11.51 0 0 1 4.52-2.22c1.65-.39 2.32-.04 1.48.78zm44.81-21.42a9.86 9.86 0 0 1-4.18 1.81c-1.6.31-2.31 0-1.59-.7a9.75 9.75 0 0 1 4.17-1.8c1.59-.3 2.3.01 1.6.69zm2.81 9.11a9.82 9.82 0 0 1-4.32 1.92c-1.66.32-2.41 0-1.67-.78a9.71 9.71 0 0 1 4.31-1.92c1.65-.31 2.4.04 1.68.78zm65.18-7.84a7.74 7.74 0 0 1-4.11 1.64c-1.68.21-2.56-.17-2-.87a7.77 7.77 0 0 1 4.11-1.63c1.71-.21 2.59.18 2 .86zm58.05-27.81c-.42.52-2 1-3.55 1.13s-2.45-.22-2-.75a6.31 6.31 0 0 1 3.55-1.13c1.51-.1 2.42.23 2 .75zM152.79 54.3a10.72 10.72 0 0 1-4.58 2.22c-1.71.38-2.43 0-1.61-.86a10.57 10.57 0 0 1 4.6-2.21c1.67-.37 2.39.01 1.59.85zm5.63 10.85a10.45 10.45 0 0 1-4.74 2.37c-1.78.39-2.54 0-1.7-1a10.37 10.37 0 0 1 4.72-2.36c1.77-.34 2.5.09 1.72.99zm30.16-12.34a9.3 9.3 0 0 1-4.52 2.1c-1.76.33-2.56-.09-1.81-.93a9.43 9.43 0 0 1 4.52-2.09c1.74-.32 2.55.09 1.81.92zm22.27-19.52a8.74 8.74 0 0 1-4.21 1.77c-1.66.26-2.46-.1-1.79-.81a8.65 8.65 0 0 1 4.19-1.76c1.65-.26 2.46.1 1.81.8zm73.13-12.82c-.49.62-2.22 1.23-3.87 1.38s-2.57-.24-2.07-.86 2.23-1.23 3.86-1.38 2.56.25 2.08.86zm78.4-16.16c-.3.51-1.81.94-3.37 1s-2.59-.37-2.28-.88 1.82-.94 3.37-1 2.57.38 2.28.88zm-35.95 3.03c-.38.54-2 1-3.55 1.11s-2.54-.3-2.15-.84 2-1 3.54-1.1 2.53.3 2.16.83zM79.7 59.47a13.5 13.5 0 0 1-4.61 2.45c-1.61.48-2.16.15-1.22-.74a13.27 13.27 0 0 1 4.6-2.43c1.6-.47 2.15-.14 1.23.72zm54.97-22.32a11.25 11.25 0 0 1-4.3 2c-1.58.38-2.21.08-1.4-.66a11.08 11.08 0 0 1 4.28-2c1.57-.34 2.21-.1 1.42.66zM70.76 55.62a13.62 13.62 0 0 1-4.46 2.43c-1.62.52-2.24.27-1.39-.56a13.48 13.48 0 0 1 4.45-2.42c1.61-.51 2.24-.26 1.4.55zM121 101.75q-4.67 1.22-9.33 2.48l-3.55.72-2.15.6 1.36-1.63a4 4 0 0 0-3.4-1l-1.23.34-3.86 1-1.57.44-1.92 1.15-4.15 1.14c-.09 0-.88 0-.43-.65a7.16 7.16 0 0 1 2.24-1.64h0l5.24-2.85q6.56-1.84 13.12-3.6l4.9-.19 1.51 1.09 4.74-.83-.23 1.83zm-12.18 2.1l.4-.11 3.54-.71 7.32-1.94.27-.33.09-1.08-4.41.77-1.64-1.19-4.4.22q-6 1.63-12.07 3.35l-4.55 2.49-.63.37h0l2.81-.81 1.91-1.14 2.37-.67 4.41-1.16-.53.61 1.16-.79a4.59 4.59 0 0 1 4.56 1.14l.1.1zm11.16-9.16l-4.87 1.28 1.78-2.77 2.44-1.38.2-.67 1.46-1.69q3.81-1.12 7.63-2.21l-1.4 2.62-3 1.09-1.22.84zm-2.35-.24l1.71-.45 2.33-2.21 2.09-1.45 2-.7.49-.91-4.25 1.24-.52.6-.17.94-2.76 1.56c-.35.46-.63.92-.92 1.38zm9.73-1.03l-4.43 1.13 2.56-2.89 4.27-1.07-2.4 2.83zm-1.61-.45l.69-.18.56-.66-.65.16z"/><path d="M126.52 95.27l-5.16 1.32 1.86-2.21 5.14-1.3zm.14 2.36l-4.77.89-.78-.54 2.78-1.83 5-1.21zm-3-.4l2.22-.42.27-.31-2.22.54-.28.18zm-14.54 11.3l-9.33 2.61 2.84-3.44q4.63-1.31 9.28-2.56l-2.79 3.39zm-6.44.86l5.54-1.54.82-1-5.53 1.54c-.31.32-.55.66-.83 1zm19.45-4.35l-1.08-.08-8.09 2.15 2.07-2.52 5.5-1.46 2.4-2.2q5.27-1.44 10.47-2.78l3.67.27-2 2.11-6.67 2.45-3.13 1-3.14 1.06zm-6.3.37l6.63-1.75.94.07 2.44-.84 3.06-1q2.56-1 5.15-1.89l.45-.47-2.44-.19q-4.28 1.14-8.54 2.31l-2.45 2.25-5.13 1.36zm28.18-5.32l-3.81.89-4.35.36 1.73-2.69 6.77-1.54-1 1.27 2.49-.59-1.83 2.3zm-2.52-.33l1.54-.38-1.64.39zm-3.18.26l2.34-.19.93-1.17-2.82.65zm16.74 34.6l-.49.06c-.1 0-2.39.3-3.37-.5l-.38-.31q3.69-2.43 7.41-4.82l.54.11c.08 0 2 .47.59 2.59l-.19.29zm-1.23-1.54a4.91 4.91 0 0 0 1.58.15l2-1.27c.31-.62.12-1-.12-1.16zm6.87 1.55a3.2 3.2 0 0 1-2.84-.5l-.36-.29.89-.63c.31-.21 3-2.09 5-2.4 1.1-.17 1.67.17 1.69 1v.22l-.31.29a10.14 10.14 0 0 1-3.42 2.1 5.47 5.47 0 0 1-.65.21zm-.25-1.55a1.78 1.78 0 0 0 1.38.07 4 4 0 0 0 1-.56.43.43 0 0 0-.54-.34 7.07 7.07 0 0 0-1.84.83zM35.93 76.54l-.49-.34 2.23-1.81.65-.22a8 8 0 0 1 1.48-.3l.41-.06-1.33 1.26-1.69.74z"/><path d="M41.09 74.24l-2.8.9 1.16-1.24 2.52-1.28h1.18l-1.55 1.17zM80.2 63.21l-5.77 1.7q1.25-1.2 2.49-2.37l3.7-1.09zm-3.26.34l1.66-.48.11-.46-1.12.33z"/><path d="M76.74 66.08l-4.26 1.27.9-1.55 2.94-1.58 2.6-.23zm-2.15 0l1.48-.44.63-.61-1.1.1-.67.36zm73.02 44.7l-6.18 1.47.77-1.1-.63-.48 1.76-2.31 1.79-1 .92-1.21 2.39-1.31.91-1 1.53-.88.83-1.06c0-.18-.09-.35-.13-.53h-2.39l1.77-2.26 6.59-1.49-.26 1.22-.81 1.51.66.45-2 2.28-2.39.75-1 1.34-1.61.92-1.2.4-.76 1-1.3.75-.49 1 2.87-.67-1.64 2.21zm-3.67-1.06l.35.26.86-1.67 1.53-.91-1.75 1zm6.91-5.85l-.94 1.08-1.38.76 1.67-.56 1.19-1.56zm.92-3.77h1.88l.25 1-1.43 1.86-.23.13 1.89-.6.71-.82-.56-.38 1-1.78.09-.47-3.34.76z"/><path d="M157.88 105.51l-5.45 1.23 2.55-3.36 5.41-1.21zm-2.6-.4l1.54-.35.74-1-1.53.35zm-5.86-4.62l-2.68.62-.94-.66 1.22-1.89 3-.69 1.19-1.06 4.71-1.06-2.44 2.66-1.9.52zm-1-.71l.74-.17.11-.08-.62-.42-.43.1-.19.29zm3.35-2.18l-.7.63.13-.08 1.34-.37.39-.43z"/><path d="M158.52 97.51l-5.21 1.16 2.42-3.09 5.18-1.14-2.39 3.07zm-2.42-.4l1.39-.31.65-.83-1.38.3zm-5.84.76l-2.58.59-1.73-.14 2.05-2.57 4.81-1.1-2.55 3.22zm-1.24-.64l.23-.05.78-1-1 .24-.6.75zm75.73-55.19l1.12-1.32q6.09-2.53 12.22-5l3.41-.44-1.11 1.31-1.15.47.34.15 1.76-.11h1.72l.71 1.12-1.75 1.4-3.32.43-13.95 1.99zm2.54-1.25l-.23.26q7.09-1 14.2-2l.64-.51-.45-.72h-1.06l-2.16.14-1.35-.61 2.09-.86.27-.32-1.05.14-1.19.49q-4.87 1.98-9.71 3.99z"/><path d="M28.93 379.63q-5.1 2.53-10.17 5.15l1.44-4.88-6.14 3.17q1.61-5.54 3.31-11.05-3.09 1.55-6.17 3.13l.58-1.9q-2.67 1.38-5.34 2.79l-1.27-3 .39-4-2.66 1.39-2.58-5.28q1.5-4.52 3.07-9.05l-1.74-3.45 1.87-5.24L0 340.47q2.76-3.48 5.56-6.93 1.45-3.76 2.94-7.53l-.81-1.54q1.26-3.19 2.51-6.32-1.4-2.66-2.81-5.3L8.6 310l-.88-1.6q1.77-4.14 3.6-8.26l-1-1.91q2.85-6.39 5.83-12.77 1.84-2 3.7-3.91 2.61-5.53 5.32-11.06l-1.09-1.79q2.05-4.15 4.16-8.29l.92-4.71q5.64-10.92 11.64-21.76l-.66-.93 3.7-6.59 3.83-3.37 3.63-7.53.53-3.54-1.13-1.67s.61-5.25-10.56-5.47l-.22-.11c0-.08-1-1.95 1.45-8-.89-.37-3.81-2-.23-7.48h0s4.23-9-1.16-8.65h-.53l2.15-3.11c-.36-.14-.78-.51-.24-1.53a10.62 10.62 0 0 1 2.25-2.6h0l5.82-5.12-1-1.17q1.71-2.35 3.43-4.68a184.59 184.59 0 0 1 21.16-16.8q2.75-3.66 5.53-7.32l-.47-.44 3.15-4.09c-.56-.11-2.09-.18-4.67 1.42l-1.89 2.45-4.58 1.45-3.17.26-5.22 1.21-2.88-2.81 2.09-2.64-1.31-1.25 1.77-2.21-.8-.75-6 2-4 .14-2.68-2.59-2.81 1-3.44 2.32-5.8 2c-3.86 0-16.12-.1-13.57-3.1l1.78-2.08 3-2 1.74-2.24c.14-1.33.08-4.43-1.75-4.31h-.39l1.82-2.06-.41-2.8 4.43-5.82-.72-.65a3 3 0 0 0-.48.24 4 4 0 0 0-.8.69l-1.54 1.68c-.26.8-1.27 3.83-2.49 5.19q-2.07 2.31-4.12 4.63l.64.77-1.28 3.27-5 1.86-1.5-1.58 2.3-2.6-1.14-1.15 4.28-4.78 1.14-.76.19-2.13q2.2-2.43 4.44-4.85h0s.85-1.38-2.16-1.58h-.21q3.3-4.6 6.68-9.19l1.88-2 3.6-3.24 5.92-3.58 3.23-2.6q4-2.41 8.12-4.78 2.74-1.86 5.51-3.69l4.43-3.08 4.49-1.39 2.89-1.61 2.31-1.2c.16-.18.32-.35.47-.53l-1.27.38-2.66 1.83-3.79 1.16-1.41-.95 2.81-2.39 2.8-.85 5.56-5.41 4.25-2.29.31-1.69 2.29-1.21-.82-.49-3.76.77-1.52-.91-4.88 1.43-4 .57-3.96 1.51-4.32 2q-3.3 1-6.58 2.07l-7.87 3.64.32.22-2 1.87-3 1.18-1.62.93-5.25 1.8 1.32-1.26-.18.06q-7.4 3.49-14.74 7.07-3.3 1.3-6.59 2.64l2.1-2 .67-.31 16-7.48.32-.3c-.87.2-2.28.56-3 .79l-.58.2 1.37-2 4.2-2 3.62-3.38q7.09-2.77 14.23-5.44l2.07-1.13a31.76 31.76 0 0 0-4.54 1l-.82.26 2.83-2.43.63-.25c2.41-.94 9.84-3.75 11.57-3.86l3.28-1.52-.48-.28 1.43-1.29 7.79-2.81q5.34-2.14 10.72-4.23 2.91-.86 5.82-1.68l4.86-1.7 7.21-2.17 5.4-.64 5.34-1.35 5.85-1 5-.68 6.24-1.3q4.94-1.56 9.88-3.08l3.89-.86 3.75-1.2 4.9-.59q3.19-.6 6.39-1.17l4.47.16 1 .45 7.5-1.46.67.29 3.48-1.49 8.33-1.51 4.21-.14 6.59-1.64.17.07 1.08-1.07.42-.15c1.93-.68 5.95-1.79 7.43-1.18l.33.13-1.43.58.23.09 2-.81.6-.6-.85-.35q3.59-1.2 7.2-2.37l3.93-.59-1.89 1.93c0 .09.24.43 2.57.09l.78-.11-1.22 1.25.57-.08 6.08-2.35 7.83-.74-1.15 1.26-6.78 2.63-8 1.17-1.09.43a9.5 9.5 0 0 1 4 .22l.15.06-2 2.07-3.17.47-1.11-.36-1.92.3-1.54.5-3.4.72 1.71-1.77 1.61-.65c.05-.17 0-.42-.91-.28l-1.19.19-1.17 1.2-4.34 1.1-1 .43-4.1.71-3.51 1.48-4.46 1.11-.87.89-2.5.44c-5 1.68-9.79 3.52-10.22 3.91h.1l-.05.06s-1 1.8 1.53 1.88a50.6 50.6 0 0 1 6.91.17l5.85-1-.5.42a37.66 37.66 0 0 1-5.69 4l1.13.54.89-.16 3.51-1.55 2.89-2c.37-.39 2.1-1.68 10.09-3.68a18.86 18.86 0 0 0 4.41-2l2.08-2.22.44-.15s2.4-.88 7.33-3.3l.16-.06 3.61-1.46 7.05-1c.31 0 5.66-.56 5.39.84l-.05.08-1.7 1.89.95.4 8.34-2.75 3.92-.49-1.5 1.72c0 .4.09.81.14 1.21l-1 1.19.49 1.59 4.57-.13-.47 1.85-6.38 2.56-4.29.56-3.09.93-1 .15-3.58.94-1.79.25-3.81.63-7.66 1.14-1.91.52c-.17.2-.34.39-.52.58l5.48-.84-3.13 2.19-4.29 1.85c-.09.2-.06.46 1 .3q4.09-.64 8.2-1.26l-1.34 1.55-.31.15a40.19 40.19 0 0 1-9.15 2.4 38.43 38.43 0 0 0-6 2.18c-.12.13-.24.26-.35.4l-5.37.9 1.28-1.46 4.33-1.64-.13-.06c-7.21 2.11-15.37 4.78-16.73 5.46l-1.72 1.76-8.52 2.68q-4.4 2-8.74 4l-3.95.81-3.53 2.19-1.83 2-1.63-.92-.25.12-3.48 3.88q-4.23 2.14-8.44 4.35l-3.33.76-5.88 3.13-4.54 1.58-3.09 1.66q-2.47 1.74-4.92 3.5l-1.17 2.78q-2 2.29-4 4.61l-2.28 1.87a14.16 14.16 0 0 1-4 1.72c-1.24.19-1.55-.35-1-1.66l.1-.14 4.54-5.19-1.4-1-5.3 1.2-2.37-.08-2.83.77q-3.3 1.88-6.58 3.77l-5.01 1.45-3.82-.29q-4.17 2-8.3 4l-6.71 3.19-4.66 3.48-4.9 4.6-4.26 3.18-4.47 5.14-1.27 2.32 2.13 1.68a20.21 20.21 0 0 0 6.27-2.08q4.51-2.9 9-5.76l4.08-3.31 8.91-2.73 1.22 1q-2 1.8-4.07 3.61l-5.95 4.71-4.3 2.74-.75 1.59-1 1.2 1.67-.33 3.29-2.12 6.62-1.74 1.27 1.08-3.57 3.69q-2.82 3.48-5.6 7v2.56l3.66-.5q5.1-1.59 10.22-3.14h2.17l3-1.55 4.77-4.27.45-.22a49.25 49.25 0 0 1 6.38-2.62q3.43-2.16 6.89-4.29l5-1.35-2.44 3.12-3 1.87-1.92 2.38.65.54.57-.36 1.77-2.86 4.45-2.76 6.15-1.64 1.59 1.24q6.42-1.31 12.84-2.52l2.93-.62 1.87-1.11 4.79-1.16-1.44 1.93q3.9 2.94 7.77 5.9 4.84-1.12 9.69-2.21l4.82.8-.76 4.75 2.13 1.64-3.52 3.47 3.43-.76.51 2.36q3.78-1.09 7.57-2.16l3.39 1.24-.37 2.43q6.52-1.35 13.05-2.6l6.34-.15 3.44 2.66h6.48l-.15 4.17-3.65 6.35-4.94 3.34-3.87 2.41-2.3 2.41q-3.66 2.36-7.27 4.74l-3.07 3q-3.21 5.69-6.33 11.4l-2.8 2-1.89 4.6-3.09 2.21-1.57 4.28q-4.18 3.82-8.31 7.68-5.91 2.3-11.78 4.66l-5.48 2.61q-2.86 1.74-5.7 3.5-2.94 2.31-5.87 4.65-2.78 5.34-5.48 10.69-3.67 3-7.28 6.1l-3.77 7.88q-9.45 9.87-18.48 19.94-6.42 2.74-12.81 5.6l-1.38-1.95-.1.08a5.76 5.76 0 0 0-1.1 1.6l1.16 4.77q-2.22 4.83-4.37 9.69-2.21 2.19-4.38 4.39-5.67 2.14-11.31 4.37a19.14 19.14 0 0 0-3.15 4.13 1.29 1.29 0 0 0-.1 1.23l.18.28q-1.56 3.57-3.06 7.15l-.5.56a17.44 17.44 0 0 1-4.72 3.75c-1.23.5-2.21.49-2.8-.22a4.14 4.14 0 0 0-.84.52 4 4 0 0 0 .69 2.5l.06.42q-.41 2.85-.8 5.69l-2.29 5.54-2.71 4.36q-3 4.22-5.89 8.44l2.15 3.75q-1.5 5.73-2.92 11.46-4 6-7.79 12.08L24 354.15l1.49 2.84-1.32 4.05q2 1.31 4 2.63 2.82.31 5.62.66 2.83 1.53 5.65 3.08l1.12 5q-4.89 2.32-9.76 4.72zm-6.4-.26q3.24-1.65 6.51-3.26l1.79-2.5 5.64-2.74q-2.46-1.28-5-2.53l-5.66-.7-5-3.26q.74-2.31 1.48-4.61l-1.49-2.87q1.17-3.53 2.37-7.05 3.74-5.9 7.58-11.76l2.36-9.27-2.5-4.53q3.74-5.43 7.58-10.84 1.16-1.89 2.33-3.76.85-2.18 1.74-4.33.28-2.35.6-4.71a4.89 4.89 0 0 1 .41-5.66 9.09 9.09 0 0 1 4.34-3.37l.43-.14.15.25a1.08 1.08 0 0 0 1.51.39h0a8.24 8.24 0 0 0 2.08-1.55l2-4.78a4 4 0 0 1 .46-2.75c1.39-3.07 5-6.6 5.35-7l.51-.5q5.61-2.2 11.23-4.33l2.22-2.21q1.72-3.87 3.5-7.74l-1.15-4.81c.07-.13.13-.27.2-.41a12.87 12.87 0 0 1 3.15-4.33 5.75 5.75 0 0 1 2.58-1.45l.32-.05 1.3 1.82q5.18-2.28 10.36-4.5 8.17-9.06 16.68-17.95 1.93-4.08 3.92-8.15 3.63-3.07 7.31-6.12l5.5-10.68q3.65-2.89 7.34-5.77l6.25-3.81 5.73-2.71q5.4-2.18 10.83-4.28 3.33-3.09 6.69-6.17l1.68-4.52 3.14-2.24 1.9-4.61 2.95-2.05q3.12-5.62 6.33-11.21l3.8-3.65q3.46-2.28 7-4.53l2.31-2.41 4.27-2.71 4.09-2.77 3.29-5.68c0-1.08.05-2.16.08-3.24h-6l-3.43-2.68-5.73.15q-7.12 1.38-14.23 2.88l.46-2.92-2.53-.93q-4.11 1.17-8.22 2.38l-.52-2.48-5 1.11 4.62-4.56-1.81-1.55.74-4.48-4-.66q-5 1.14-10 2.31-4.16-3.21-8.36-6.41l.9-1.2-2 .49-2 1.16-3.84.82q-6.78 1.29-13.56 2.68l-1.4-1.23-4.55 1.23-2.59 1.6-1.84 2.86-3.7 2.33-1.58-1.33 2.82-3.5 3-1.85 1-1.32-2.21.61q-3.47 2.15-6.9 4.3l-.4.12a38.63 38.63 0 0 0-5.4 2.16l-4.73 4.23-4.9 2.58h-2.7q-5 1.55-10.08 3.14l-4.42.6v-3.18q3-3.75 6-7.48l3-3.1-.73-.64-5.16 1.36-3.41 2.28-3.88.76 1.8-2.17.9-2q2.67-1.73 5.36-3.42l5.33-4.24c1-.92 2.05-1.83 3.08-2.74l-.64-.51-6.94 2.13-3.5 2.81q-4.95 3.11-9.87 6.27a23.2 23.2 0 0 1-8.06 2.69h-.18l-2.34-1.85 1.61-2.87q2.4-2.79 4.83-5.56 2.26-1.71 4.56-3.4l4.85-4.56q2.68-2 5.38-4l7.36-3.5 9.33-4.5 4.13.31 3.88-1.11 6.56-3.75 4-1.08 2.54.08 5.47-1.25 1.89 1.27-4.85 5.53c-.51 1.19 0 1.22.28 1.18a6.54 6.54 0 0 0 1.7-.75l1.63-1.38q1.88-2.17 3.77-4.33l1.19-2.91 6-4.21 3.75-2 4.53-1.57 6.15-3.23 3.32-.77 6.91-3.56 3.49-3.88 2.79-1.39.7.39.09-.1 4.83-3 4.31-.89q4.27-1.95 8.57-3.86 3.67-1.17 7.37-2.31l1.14-1.28c.28-.26.92-1.16 19-6.5l.59-.17 1.44.71-5.53 2.09-.22.25 2.2-.38a46.42 46.42 0 0 1 7.3-2.68l.34-.08a39 39 0 0 0 7.54-1.87l.42-.48-6.53 1c-2.18.34-2.41-.35-1.91-.93l.14-.15 4.61-2 1.34-.94-4.88.77c.13-.16.27-.32.41-.47a1.72 1.72 0 0 1-.91-.08c-.18-.08-.14-.24.11-.42s.82-.62 5.4-1.79h.26l7.73-1.16 3.8-.61 1.67-.24 3.57-.94.78-.1c1-.32 2.05-.63 3.08-.93l4-.53 4.83-1.93.3-1.14-4.4.12-.53-2 1-1.2c0-.41-.09-.81-.13-1.22l1-1.14-1.82.23q-4.62 1.51-9.23 3.06l-1.85-.8 1.92-2.11c.08-1-4.32-.55-4.37-.54l-6.33.91-2.89 1.16c-4 2-6.46 3-7.41 3.34l-1.76 1.88c-1 1.07-5.37 2.58-5.86 2.75l-.27.08c-7.38 1.69-8.38 2.69-8.38 2.69v.07l-.11.06-3.26 2.29-4.63 2.07-2.26.41-2-1 .84-.37a29.35 29.35 0 0 0 5.1-3.47l-4.65.85-.13-.06a40.71 40.71 0 0 0-6.72-.17c-2.87-.08-2.21-1.75-2-2.15-.08-.09 0-.24.24-.43 1.37-1.11 9.36-3.86 11.76-4.64l.21-.07 1.3-.23.74-.75 5.3-1.33 3.69-1.54 4.09-.72.82-.34 3.53-.86 1.31-1.35 2.75-.43c1.54-.24 2 0 2 .37l4.95-2 8-1.16 5.52-2.14.45-.48-5.84.57-6 2.34-2.78.41 1.24-1.27c-3.09.35-2.87-.41-2.86-.45l.05-.08 1.35-1.33-1.94.29-4.72 1.55.32.13-1.11 1.11-4.21 1.7-1.53-.64 1.34-.54a14.54 14.54 0 0 0-4.69.89l-.5.5 3.52-.58-1 1-4.16 1.39-1.48-.62q-3.09.77-6.18 1.56l-4.48.14-7.34 1.35-4.42 1.9-1-.45-7.51 1.48-1.23-.54-4.15-.13-6.11 1.15-4.64.56-3.67 1.17-3.93.87q-4.95 1.52-9.86 3.09-3.33.67-6.64 1.38l-5 .71-5.69 1-5.45 1.39-5.34.63-6.76 2-5 1.75-5.79 1.68q-5.25 2-10.47 4.15-3.28 1.17-6.57 2.37l-.31.28.87.5-6.91 3.21-.16-.1c-.29-.18-5.34 1.54-10.11 3.39l-.95.83a40.09 40.09 0 0 1 5.1-1l.81-.09-5.32 2.97q-6.7 2.52-13.38 5.12l-3.44 3.21-3.81 1.73-.5.72c1.25-.37 3-.77 3.23-.83l.5-.11-1.23 1.16c-.37.4-1.23 1.06-17.31 8.39l-.15.14 4.58-1.83q7.4-3.6 14.83-7.09l1.91-.64-1.31 1.24 3-1 1.45-.83 2.13-.83.73-.69-.74-.51q5.52-2.58 11.06-5.09l6.34-2 4.18-1.92 4.54-1.75 4.27-.6 5.16-1.53 1.57.94 3.76-.76 1.45.85-2.77 1.47-.3 1.69-4.8 2.58q-3.08 3-6.11 5.95l-3 .92-1.19 1 1 .66 2.07-.63 2.65-1.83 3.8-1.14-1.62 1.84-3.18 1.65-3.55 2-4.14 1.28-3.49 2.43-5.93 4q-3.89 2.26-7.75 4.57l-3.23 2.6-5.79 3.5-3 2.77-1.7 1.78-6.22 8.58c3.3.29 2.1 2 2 2.19l-4.19 4.58-.2 2.5-1.9 1.25-3.32 3.7 1.15 1.15-2.28 2.59 1.14 1.16 1.51-.56.68-1.74-.77-.78 4.61-5.18a17.6 17.6 0 0 0 2.24-4.84l.15-.23 1.67-1.83a10.69 10.69 0 0 1 2.28-1.83 9.77 9.77 0 0 1 2.35-1.09l.25-.06 1 .93q-2.36 2.93-4.57 5.83l.36 2.85-1.45 1.64c2.2.23 1.82 4.13 1.77 4.6l-.11.23-2.31 3-3.09 2.1-1.29 1.5c-1.19 1.41 5.92 2.22 13.46 2.23l4.44-1.58 3.43-2.31 4.36-1.51 2.86 2.73 3.5-.17 6.31-2.11 1.28 1.18-1.77 2.19 1.32 1.25-2.07 2.58 2.48 2.38 4.79-1.09 3.18-.28 2.14-.69 1.26-1.62.45-.3c4.35-2.9 7.14-2.93 8-2.55l.21.09-3.23 4.2.47.43q-3.24 4.24-6.42 8.52l-.46.31a187.76 187.76 0 0 0-20.67 16.3l-2.48 3.46 1.4 1.56-1.52 1.14c0 .55-1.49 1.68-4 3.59a13.08 13.08 0 0 0-3.19 3c-.36.7.36.75.37.75h.44l-2 3c5.49.17 1.16 9.24 1 9.64-3.46 5.27.4 6.44.43 6.45l.24.07-.15.35c-2.11 5.05-1.69 7.08-1.54 7.53 10.72.27 11 5 10.9 5.91l1.15 1.67-.65 4.06q-2.12 4.33-4.18 8.68l-4 3.52-2.67 4.62.66.92q-6.19 11.17-12 22.41l-.91 4.69q-1.87 3.7-3.72 7.41l1.09 1.77q-3.27 6.66-6.4 13.33-1.86 2-3.7 3.91-2.38 5.13-4.7 10.27l1.06 1.91q-1.81 4.08-3.58 8.18l.88 1.59-1.21 2.83 2.83 5.27q-1.29 3.12-2.55 6.26l.82 1.53q-2.05 5.16-4 10.32-2 2.46-4 4.95l3 6q-.94 2.59-1.87 5.19l1.74 3.43q-1.56 4.48-3.07 9L5.2 366l3.39-1.76q-.3 2.93-.58 5.85l.71 1.44q3.42-1.77 6.84-3.51l-.59 1.87q3-1.56 6.11-3.09-1.69 5.44-3.32 10.88l6.14-3.11q-.7 2.4-1.37 4.8zM216.2 26.47l1-.15 1.1-1.16c-1.54-.52-4.69.11-4.72.12l-1.57.32a1.09 1.09 0 0 1-.08.15l-.11.15-1.76.71-.7.73 1.25-.27 1.51-.51 3-.46zm-18.26-1l.6.25 1.94-.67zm-46.7 37.36h-.18c-.56.1-1.25.13-1.37-.32v-.12l.3-.22a21.85 21.85 0 0 1 7.77-3l.35-.07 1.17.63-4.93 1.91a14.67 14.67 0 0 1-3.08 1.21zm.41-.91a.48.48 0 0 0 .35 0 8.06 8.06 0 0 0 1.7-.69l.35-.16 2.55-1h0a17.61 17.61 0 0 0-4.92 1.87zm-12.86 3.37h-.21c-.73.07-2.39.19-2.11-.39.07-.14.3-.42 1.08-.84 1.1-.75 8.57-5.64 14.47-7.44 0 0 1.85-.69 4-1.3l-3.86.82-.71-.38-3.64.81-3.82 1.62-.23.06c-.22.05-1.29.3-1.5.05s-.05-.34.67-.85l.34-.2c.36-.19 9.05-4.5 15.87-5.43 1.33-.13 3.18.13 1 2l-.17.15-1.49.71c.36-.09.75-.15 1.1-.21l5.81-1.16q1 .48 1.92 1l-3.33 1.59-3.07.89-3.45 2-2.54.55-1.36-.74 2.52-1.23.36-.39-2.63.57-2.36.73-2.53 1.19-2.9 1.74-1.31 1c-1.28.88-4.21 2.71-5.89 3.1zm19-9.75a49.53 49.53 0 0 0-6 1.79c-5.52 1.69-13.1 6.78-13.16 6.84l-.32.18a3.63 3.63 0 0 0 1.34 0 30.2 30.2 0 0 0 3.72-2.09l1.45-1.09 3.38-2 3.11-1.47 3.14-.95 4.41-.94-1.47 1.57-1.49.72.47.25.9-.19 3.22-1.85 3.29-1 1.09-.52-1-.51-1.08.22-4.17.83c-.2.11-.5.16-.8.23zm-13.7 2h0 .2l3.82-1.62 4.84-1.07.71.38 4.54-.95.57-.28c1.51-1.41-.49-1.27-.73-1.25-5.45.75-12.6 4.11-13.92 4.76zm22.46-.12l-.29.06c-.53.07-1.17.09-1.27-.29v-.08l.13-.12a11.71 11.71 0 0 1 5.41-2.27 2.89 2.89 0 0 1 .91-.12c.43 0 .58.22.44.6l-.07.2-.49.24a25 25 0 0 1-4.74 1.75zm.35-.86a.41.41 0 0 0 .33 0 15.6 15.6 0 0 0 2.8-1 .07.07 0 0 0 0-.07h-.15a8.26 8.26 0 0 0-2.95 1.04z"/><path d="M173.79 29.95l-.87-.38-2.85.57-4.27-.59q4.68-1 9.36-1.9a1.42 1.42 0 0 0 .22-.13v-.12q-3.11.59-6.21 1.2l1-.91 1.22-.38-1.52.09-5.4 2-4.73 1 .46-1.25 2.9-1.25 10.32-3.43q3.63-.69 7.26-1.35l4.16-.31 1.35.56 2.06-.34 3.12-.88 2.48-.43.08.45 1.89-.77 5.19-.87-1.81 1.62-1.56.63 1.56.37-1.39 1.17-4.95 1.42-4.62 1-5.33.64-1.91.56-2.85.66-1.42.27zm.45-1.17l.61.26 2-.77 1.83-.34 2.64-.61 2.06-.62 5.52-.66 4.3-.89 3.61-1 .49-.41-2-.49 2.71-1.1.77-.67-2.93.49-3.43 1.41c0-.27-.09-.54-.14-.81l-1.38.24-3 .87-3 .49-1.44-.59-3.73.28-6.62 1.24q-4.92 1.62-9.82 3.27l-1.52.66-.19.55 3.14-.63 5.69-2.15 5.48-.32-3.3 1 4.2-.8h.13c.37.16.19.42 0 .6a6.2 6.2 0 0 1-1.51.81l-.27.1-5.08 1 1.22.17zm32.32-7.33l-3.17-1.13 5.95-.94 3.4-1.21 1.38-.15a5.18 5.18 0 0 1 1.42-.44l3.66-.55-2.42 1.51-2.83 1.17-3.29 1zm.06-1.13l1.13.4 3.21-.6 2.66-.8 2.24-.93.71-.46-1.51.23-.22.11-.43.25-1.84.21-3.31 1.17zm13.58-1.62l-3.12.3 1.22-1.23 4.55-1.1 5.69-.79-1.29 1.32-5 .71zm-1-.45l1.16-.11 1.92-.74 4.08-.57.15-.16-4.05.58-3 .72zm26.59 5.71l-6.84.86-5-1.63-1.4.19-3.19.78-2.88.4-1.37-.58 2.29-.89q3.1-.56 6.22-1.08l2.3-.31 3.91-1.49 5.52-.68h1.49l.31-.12q-2.43-1-4.89-2l-1.57.2h-.15a1.12 1.12 0 0 0-.72.08l-.31.12-4.53.58-.82-.32-2.51.33-1.88.72-5.05.68c-.21 0-2-.07-1.71-.7.12-.23.55-.61 2-1.16l.16-.06 6.22-1.95 2-.27.74-.28q6.45-.85 12.92-1.62l3 .68 4.07-.75 2.14.84 3.72.22-.12 1.33 2.59 1.07-1.31 1.52-2.84 1a15.87 15.87 0 0 1-3.11.57h-.33l-1.81-.74a13.39 13.39 0 0 0-1.8.41l.13.07c1.09.44.69.84.27 1.07l-1.38 1.57-4.17.5zm-5.67.15l4.28-.53.32-.79 4.51-.54 1-1.17.14-.05c0-.06 0-.22-.52-.43s-.25-.47 0-.65a14.64 14.64 0 0 1 3.86-1l.39-.06 1.87.76a15.29 15.29 0 0 0 1.57-.25l2.17-.8.89-1-2.56-1c0-.41.09-.82.13-1.23l-3.46-.23-1.81-.71-3.95.73-3.09-.71q-5.89.72-11.78 1.49l-.75.28-2.15.29-5.68 1.78c-.57.23-.9.41-1 .54s.63.36 1.1.38l4-.54 1.87-.72 3.78-.5.82.32 3.27-.42a5.28 5.28 0 0 1 2.35-.29l1.65-.21q3 1.17 5.92 2.37l-2.7 1h-2.2l-4.55.56-3.92 1.51-2.87.37-5.57 1-.22.09.38.17 2.08-.29 3.19-.78 2.13-.28zm3.54-10.05l-5.09.63-2.77.13-4.27.3 1.52-1.56 2.39-.31 5.05-.94.93.36q5.94-.63 11.88-1.19l1.4.53-2.95 1.06zm-4.3 0q6.13-.8 12.28-1.51l.9-.32-.41-.16q-6 .57-11.91 1.21l-.82-.32-4.38.8-1 .14-.49.5 3.12-.22zm5.32-3.25l-3.49.11 1.35-1.4 6.56-1 5.14-.59-1.51 1.61-2.57.29zm-1.57-.51l2.15-.06 5.34-1 1.13-.14.5-.52-3.56.41-5.1.8z"/><path d="M258.53 11.15l-3.39.37-2.12-.2-7.75 1c-.45 0-1.71.15-1.74-.15s.41-.44 1.26-.75l.26-.09 6.5-1-.17-.61 4-.51 2.27-1.25 4.77-.5h3.05l3.18-.32.21-.23-2.39.07-3.05.3-6.88.15q4.47-.8 8.94-1.56l9.89-1 2.77-.59 5.62-.49c.09 0 2.64-.13 3.53-.2l5.26-.5 6-.73-.92 1.11-5.69.94-5.1 1q-5.55.75-11.1 1.57l-4.25.86-4.21 1.1-4.29 1zm-2.5-.22l2.61-.29 4.14-1.07 4.26-1 4.26-1.1 4.51-.92q5.56-.83 11.15-1.58l4.89-1 4.62-.76.13-.16-4.28.53c-.26 0-4.48.44-5.44.52l-3.61.21-5.39.47-2.78.6-10 1-2.13.37h1.21l3-.3 3.57-.1-1.07 1.2-5 .49h-3.06l-3.42.36-2.24 1.25-2.82.35.17.58q-4 .57-8.07 1.19h0 .6q4-.51 8.07-1z"/><path d="M288.74 21.15l-4.45.35-4.13-.28-2-1.36 1.07-1.33.86-1.37 1.32-1.62q3.51-1 7-2l3.2-.76.93-1.17-2.1-.32V10l-1.65-1.19-1.16-.43a4.31 4.31 0 0 0-1.53-.23q-6.11.51-12.21 1.1l.94-1.76 8.68-1.16 4.55-.67 6.8-1.33q2.68-.49 5.37-1l3-.2 2.67-.43 4.61-.15h4.31l5.85-.31 3.89-.48 4.77-.3 4.52-.39 4.81-.42h4.31l3-.08 3.81-.52 5.65.15h5l4.63.37 2.64.52 3.48-.29 4.36.11-2.61 1.24h-6.24l-2.67.41-2.21.62-.73 1.24-6.25 1.8-7.61.77-.66.2.21.09 2.79.48.38 1-3.45.58-1.67.5.27.75-3.89.16-5.24.45c-.3 0-2.44.33-3.22.36l-4.63.19-4.12.64-5.17 1-2.39.63-3.5.53-2.89.41-2.91.37-2.51.56-3.14 1.06-3.59 1a6.81 6.81 0 0 1-1.71 1l-.6.27a8.19 8.19 0 0 1-2.72.92c-.38 0-2.21.5-3.66.89l-.23.07zm-3.55-.27l3.78-.31a37 37 0 0 1 4.35-1c.12 0 .81-.37 1.14-.52a8.89 8.89 0 0 1 .92-.4 7.81 7.81 0 0 0 1.21-.79l.15-.12 4-1.13 3.35-1.13 3-.65 3-.37 2.81-.41 3.32-.5 2.21-.59 5.32-1 4.61-.7 4.75-.19c.36 0 1.76-.19 2.85-.33l5.47-.47 1.83-.06-.13-.36 2.86-.85 2.22-.37-.14-.38-2.55-.45-1.14-.45 2.35-.7 7.58-.77 5.37-1.54.74-1.24 3.07-.85 3.12-.48h5.63l.75-.37-2-.05-3.85.33-3.05-.61-4.24-.33h-4.89L349.63.6l-3.85.51-3.23.09h-4.19l-4.66.42-4.61.39-4.71.3-4 .49-6.07.32h-4.38l-4.27.15-2.72.43-3 .2-4.93.89-6.92 1.36-4.75.71-7.22 1-.42.79 3.77-.35 7.09-.6a6.75 6.75 0 0 1 2.51.24l1.22.47 1.8 1.31v1.13l2.3.36-1.44 1.81-4 1-6.17 1.79-1.06 1.31-.85 1.37-.92 1.15 1.62 1.11z"/><path d="M343.91 9.64l-3.32.1-1.6-.63 3.73-1.3 2 .59zm-2.34-.49h1.13l.29-.45-.53-.16-1.35.47zm4.76 6.41h-2.2l-2.83-.37-.34-.14-3.43.25 3.19-1.92 6.26-.79q3-.18 5.91-.33l3-.06 3.06.27h.11c.13 0 1.19.47.69.94a3.49 3.49 0 0 1-1.77.59l-3.39.54-3.34.34h-2.07zm-1.43-.51h1.36l2.85-.56 2.38-.06 2.89-.29 3.25-.52a1.89 1.89 0 0 0 .63-.17c.12-.12-.16-.31-.39-.42l-2.51-.21h-2.71l-5.68.31-5.33.68-1.27.77 1.53-.11.68.28zm-69.56 64.46l-5.83.59 1.46-2.37 7.35-.73-2.98 2.51zm-3.29-.59l2.48-.25.54-.45-2.77.28z"/><path d="M278.2 80.43l-3.93.22 1-1.73 4-.39c-.31.62-.69 1.27-1.07 1.9z"/><path d="M282.38 80.04l-3.93.21 1-1.73 4-.37zm-1.8 2.81l-7.56.74 1.34-2.25 1.94-.23.29-.49 5.6-.53zm-5-.46l3.64-.35.46-.79-1.74.21-.29.49-1.92.19zm214.99 98.04l-4.53-4 .59-10.49 6.54-3.53.09-2.28c-.92-.69-2.9-2.39-2.81-4.37a12 12 0 0 1 1.35-4.5l.23-.43 5.34.31 5.89-1.49 6.79-3.35 1.6-3.67 3.87 3c1.29 1 1.39 3.48 1.39 4.52l.72 3.87-2.26 3q-1.81 3.69-3.61 7.38l-5.22 5.76q-.76 3.28-1.51 6.56l-.07 3.1-7 .91-7.39-.3zm-2.13-4.41l3.07 2.71 6.06.27 5.07-.68.06-2q.86-3.54 1.72-7.06 2.63-2.91 5.28-5.8 1.77-3.61 3.57-7.23l2.06-2.75-.63-3.54c0-1.58-.36-3.17-.74-3.51l-1.14-.89-.78 1.81q-3.78 1.83-7.53 3.69l-6.7 1.64-4.09-.25a10.41 10.41 0 0 0-1 3.65c-.08 1.73 2.36 3.32 2.39 3.34l.46.29-.14 3.68-6.53 3.53-.46 9.1zm8.04-30.24l-5.28-.9-3.16-.39.07-1.5-1.32-.16.18-3.35 5.62.69v1l4.89.81-1 3.8zm-6.15-2.41l1 .12 3.27.55.28-1.07-4.5-.74zm-1.25-1.66l1.21.15v-.59l-1.21-.16zm46.82-7.92l-.21-3.94 5.67 1.22.17 2.75zm2-2.23c0 .31 0 .61.05.91h1.42v-.6zm8.49 42.24l-7.3-1.37.29-4 6.8 1.27zm-4.9-2.53l2.54.48c0-.3 0-.59-.05-.89l-2.42-.45-.07.86zm54.43-47.32l-3.81-.88-3-2.16c-.59-.42-1.92-1.47-1.55-2 .14-.22.58-.43 1.83-.15a5.61 5.61 0 0 0 2.87.09l.3-.11 2.45.71.91 4.5zm-3.2-1.85l1 .23-.43-2.24a9.22 9.22 0 0 1-3.49-.19 5.63 5.63 0 0 0 .63.52zm28.12 4.36a13 13 0 0 1-3.89-1.64 3.53 3.53 0 0 1-1.57-1.93l-.78-3.44 1.18-2.46.76.24a22.36 22.36 0 0 1 5.26 2.37l1.79 1.31 1.25 4.78-2.7 1.05-.32-.06-.98-.22zm-4.27-6.23l.77 3.16a1.57 1.57 0 0 0 .7.89 9.62 9.62 0 0 0 2.92 1.11l1.79-.69-1-3.83-1.14-.84a15.64 15.64 0 0 0-3.27-1.49c-.24.61-.51 1.12-.77 1.69zm-248.53-14.21h-6.11l1-2.81 6.28-.67zm-3.62-1.12h1.91l.31-.92-2 .21-.22.71z"/><path d="M371.2 103.28h-4.32l-.56-3h5.86l-.98 3zm-2.38-1.13h.66l.25-.75h-1c-.01.27.04.52.09.75zm24.83-60.17l-1.83-1.19.73-1.91h4.47l-.82 2.27zm0-1.4l.54.35.34-.11.48-1.29h-1z"/><path d="M395.4 38.62c-.53 0-1.13-.06-1.82-.14h-.44l-.09-.17c-.1-.19-.54-1.13.79-1.55a15 15 0 0 1 3.84-.34h.85l-.54 1.5c0 .16-.16.37-.65.53a6.05 6.05 0 0 1-1.94.17zm-.72-.74a6.38 6.38 0 0 0 1.6 0l.3-.88a9.22 9.22 0 0 0-1.71.16c-.2.11-.28.42-.19.72zm47.1 12l-6.91-.47-4.42-1.16 2-.82h.42l6.93.16h.4l3.77 1.55zm-6.18-1.13l5.6.4h.1l-1.77-.73a265.8 265.8 0 0 1-6-.13zm-26.92-1.38l-4.35-.57.49-1.48 4.46.14zm-2.39-1.09l.9.12.09-.28h-.93zm-29.79-3.73l-4.77-.3.57-1.28h2l.49-1.12h5.48l-.81 1.94h-2.67zm-2.34-.88l.94.06v-.06zm1.86-.57h2l.24-.55h-2zm7.9-.13h-4.09l.63-1.5h4.07zm-2.06-.72h.6l.05-.11h-.6zm-17.33-11.71a2.64 2.64 0 0 1-.72-.08c-.28-.09-.5-.28 0-.66l.15-.12 4.24-.88-.87-.23-1.21-.53 1.37-1.3 2.92-.36.32-.61.48-.41-1.31-.1-1.52-.67c0-.39-.07-.78-.11-1.18l.54-1.07 2-.72 2.7.06 1.81.33 1.45.57-.59.95-.78.16 1.53.28 1.19.52.16 1 .84.63 1.59.56 2.38.29.35.76-.25.58-1.88.33c-.18 0-.41.09-.53.12s-.4.31-1.51.66l-.29.09h-2.2l-1.76.2-2.86.3-2 .17h-2l-2.19.25a8.47 8.47 0 0 1-1.44.11zm3.48-2.72l.59.27 2.69.73-3.67.75.69-.07h2l1.66-.15 4.91-.52h1.63a6.29 6.29 0 0 0 .65-.26c.08-.22.89-.41 1.55-.53l.93-.17.08-.16-.17-.32-2-.27-1.93-.7-1-.81-.14-.84-.82-.36-3.82-.61 2.9-.61.24-.38-.9-.36-1.37-.23h-1.45l-.89.33-.42.84c0 .31.07.62.1.92l1 .42 2.47.18-1.15 1-.45.93-3.16.39zm-12.32 1.45h-.15a8 8 0 0 1-2.44-.24c-.16-.08-.21-.19-.13-.3h0c.22-.3 1.24-1.38 1.28-1.43l.18-.12.48-.22.52-1 4.93-1.57h3.65l3.34.11-.61 1.2-.94 1-1 .31-.73 1.43h-4.34l-1.16.38zm-1-.66h1.07l2.18-.29 1.44-.46h3.34l.54-1 1.13-.36.72-.73.3-.61-1.88-.06h-2.88l-3.74 1.19-.47.86-.69.32-1.03 1.14zm60.28-1.46c-1 0-3.54-.34-4.06-.4l-5.47-.31.5-1.36 5-.73 4.53.17 4-1.12-.57-1 4.48-1.29-1.87-.86-1-1.22 4.45-1.17a22.87 22.87 0 0 0 3.54-.53c.07-.31 2.33-1.22 3.67-1.72l.47-.18.6.16a14.62 14.62 0 0 1 1.7.59c.89.39.75.91.68 1.2 0 .1-.1.37-3.53 1l-.19.68.48 1.51 1.34.6 4.89.16c.34 0 .76.07 1.2.12a14.55 14.55 0 0 0 1.49.13 15.14 15.14 0 0 1 4.15.2h.23l2 .89-3.45.5h-3.51l-6-.36a.75.75 0 0 1 .18.07l2.85 1.28-2.59.59-3.27-.72-1.37-.08c-.7.27-1.13.57-1 .64.49.22.53.43.48.56s-.54.4-.82.49l-.54.48-3 .61-5-.23-3.74.13a3.43 3.43 0 0 1-1.93.52zm-7.69-1.21l4.13.24 3.75.38a.59.59 0 0 0 .43-.16l.14-.17h.48l4.68-.17 4.41.21 2-.42.52-.46h.21c.1 0 .32-.09.34-.15s0 0-.12-.1c-1.28-.58.9-1.36 1.35-1.51l.27-.09 2.63.17 2.52.55.33-.07-1.72-.78a19.07 19.07 0 0 0-2.73-.07h-1l.33-1.18q5.25.29 10.5.61h3.09l1.32-.2-.34-.16a19.86 19.86 0 0 0-2.55-.21 9.33 9.33 0 0 1-2.81-.07l-.95-.1c-.76 0-4-.14-5.14-.17h-.38l-2.12-.94-.53-1.77.28-1 .35-.07a22.77 22.77 0 0 0 3.14-.69.6.6 0 0 0-.35-.75l-.86-.32a15.78 15.78 0 0 0-2.83 1.3c-.09.31-1.58.61-4.44.91l-3.26.87.65.81 2.61 1.15-4.94 1.42.59 1-5.29 1.37-4.81-.18-3.71.53z"/><path d="M389.2 205.15l-5.22-1.13-3.85-4.41q.67-3.24 1.36-6.46l-1.65-5.1q-3.9-3.6-7.85-7.15.94-5.81 1.91-11.59l-.39-7.39-1.58-6.38q-2.1-1.71-4.21-3.41 1.39-5.06 2.83-10.1 2-2.89 4-5.77l4.43-4.54 1.21-4.37-1.2-3.71-2.2-2.6-.36-3.15-1.07-2.88-6.73-4.58q.79-2.3 1.6-4.59 2.06-1.77 4.14-3.52l.28-2.21-1-.84h-5.93q2.35-1.08 4.74-2.15l-3.72-.93-4.92.85-2.78-1.77v-.11c0-.07-.59-1.72-5.34-1.64l-4.68.1q-4.11.83-8.22 1.7l-7.89 1.33-6.37.28-5.93.8-5.08.28-6.49-.16-4.41-.84q-3.29-2.08-6.58-4.14l.41-2.59-2.8-1.72-2.72-2.3-2.13-1.29 2-3-.75-.44 1.58-2.85q2.63-1.68 5.28-3.34l1.5-3.09-1.29-2 1.62-2.41q4.83-2.81 9.71-5.54l7.49-4.22 5.67-1.8 5.12-2 2.83-1.23 1.09-2.06q5.06-1.92 10.12-3.78l4.9-1.33 4.77-.08 3.52.42 6.72-1 5.72-1 9.85-.33 4.73.21 5.45.07 3.27-1.09 5.12.11-1.23 3.52.45 1.53 2.58 1.23 4.36.12 5 .56 1.74 2 4.76.22 3.15.76 2.45-.82.5-1.87 9 .49 6.2 1.36 5.6 1.09 5.41.73 5.66.43 4.81.67 3.14.26c1.2-.43 3.57-1.44 3.66-2.2l.21-1.49 1.24-1.76-.18-1a30.64 30.64 0 0 0-4.27 0c.06.29.59.63.8.74l.35.19a1.54 1.54 0 0 0-.17.19 4.2 4.2 0 0 1-2.66 1.07 8.42 8.42 0 0 1-3.07-.32l-.66-.19 1.49-1.7v-.15l-2.88-.38-1.58-.83-2.17.67-5.19-.82-2.13.66-2.6-1.34 1.33-.41-1.06-.69.24-1.15-2.52-1.27-.19-.83.12-.61.5-.16-.9-.45-1.77-.12-2 .62-2.63-.15-.81.32 1.51.75-.23 2.52-4.1 1.3L425.2 44l2.89-.91-.24-.12-4.71-.19-1.67-.83.84-2.62s-.15-1.53-3.44-1.68l-4.51-.18-3.49-2h-1.59l-2.56-1.22a.88.88 0 0 0-.43.29c-.14.21.1.47.71.76l3.61 1.73 4.75 1.49 5 1.35-.41 1.44-2.75-.16-.24.59-1.88 1.39-2.88 1.02-.34 1.1-4.64-.16-4-1.41.41-1.2 4.43.14 2 .21.75-.25.41-1.3c-.07-.13-.56-.85-3.62-1.72-1.09 0-5.08-.33-7.06-2l-4.26-2-4.63.53c-3 0-5.91-.09-8.87-.12l-2.64.87-.39.93-2.15.69-4 .78-2.28 1.31-3.12.95-.53 1.18-3 1-4.22.41-4.66.6-4.23.08-4 .38-2.71-1.33-3.26.1 1.6-3 2.67-1.56q1.07-2 2.14-4l5.77-.12 5.09.09 3.9.49h3l2.89-1 .63-2.31a6.68 6.68 0 0 0-4.24-1.21c-1.19 0-1.87-.13-2-.4-.31-.52 1.72-1.24 2.35-1.44l.29-.09q2.53 0 5.07 0l3.86-1h1.59l5-1.56q1.73 0 3.45 0l4.36-1.49 4.06-1.22 4.81.1 1.18-.35 1-2.63 4.35-1.25 1.21 1.57.72.31 1.67-.25.19-.53-3.66-1.62-1.7.49-6.37-.16-2.42-1 .84-1.89 2.31-1.55 4.67.12q4.33-.9 8.68-1.77 5.52-1.49 11.07-2.91 5-.59 10-1.11l6.07.35 8.84.69h.3l6.27 1.54 7.11.7 7.29 1.74 2.21 1-2.28.55-10.63-.9-3.22-.59v.11l2.31.6 4.54 2 1.54.13-1.13-1.26 3.9.32 1.3.59 1.63-.4.09-.64 4.48.48 1.62-.39-.89-1.19 4.9.46 2.22 1 5.2-.56 6.67.59 2.53.28 3.61.11 4.84.58h2.7l7.4 1 3 .71 2.16.46-3.27-1.17-.38-.12c0-.65-.07-1.3-.1-1.95l4.38.23 4.34.67 2.44 1.76h.08c0-.28 0-.57-.08-.85l7 .76 4.93-.18 5.79.75 1.19-1.34 6.56 1.08 3.9.36 4.33.87a23.46 23.46 0 0 1 4.8-.09l5.19.77h.23l4.54 1.63 6.75 1.31 6.38 1.61.43 1.32-4-.18a.18.18 0 0 0 .11.15 4.6 4.6 0 0 0 1.31.39l4.33.43 3.23.67 3.26.86a19.8 19.8 0 0 1 4.71 1.09 36 36 0 0 0 3.89 1.08l8.36 1.88q3.09.67 6.18 1.38 5.79 2.19 11.55 4.45a19.48 19.48 0 0 1 2.88.36l4 1.08.2.06 2.7 1 1.89.44.8-.82 3.72.48q5.61 1.65 11.22 3.36l6.22 2.62 3.25 1.28 9.06 2.66 3.69 1.64 4.32.94.34.37a8.21 8.21 0 0 0 3.12 1.39l6.37 2.11 7.8 2.42q5.48 1.77 10.94 3.61 4.38 1.69 8.75 3.43l7.93 3.37 5.69 2.37 6.49 2.9q2.51 1.26 5 2.53l5.26 2.2 5.55 2.72 4.07 3.4-1.09-.39c-.8-.3-7.79-2.82-11.16-4.92l-3.2-1.21-1.43-.94v1l-.67-.22.26.17 4.81 2.41 3.71 1.86c.46.26 2 1.16 2 1.6s-1 .14-3.57-.85l-2.36-.9-1.69.48-1.64.38-2.53-.94-2.65-1.78-1.27.28-3.31-1.15h-1.24l1.81 1.2 2.76 1.64 4.22 2.67 1.49 1.47 3.84 2.63.86 1.66-1.25.31 3.69 3.67-1 .26-4.75-1.82q-5.17-3.61-10.43-7.18l-4.52-3.34-3.91-2.61-.57-1.78 1.44-.32-.83-1.88-.47-.75-2.08-1.51-1.3-.84c-.18.09-.31.22-.2.4a1 1 0 0 0 .3.27l1.69 1.1-5.58-1.95-1.89-1.21-4.26-1.46-.65.14 2 3.23-3.2-1.4-1.87-.62-2-1.28-4.21-1.4-1.23.26-3.77-1.22-2.34-1.17-1.22.26-1.84-.59-2.57.55.95 1.36-.24 1.24 3 1.31 4.1 1.52.9-.21 5.11 2.07 3.26 2.12 5.4 1.82 3.2 2.8 4.57 2.58 4.2 2.52 3 2.33-1.24.32 5.17 3.55 1 1.81-3.9-1.42-3.03-2.11-3.68-3-3.59-2.42-1.67-1.87-4-2.81-.48.11 3.44 2.33 1.85 1.86 1.19 2.09 2.85 4.24-.17 2.09-2.38.64-3.1-1.09-2.14-1.47-.84.23c.28.51.56 1 .83 1.55l.69 1.79-1.24.34.45.85 5.27 3.05c1.75 1.05 3.27 2.33 4.9 3.5l3 3.12.42 1.58-2.65-.39-4.05-1.15-3-2.16-3.55-3.49-4.99-3.52-2.18-.74-.82-1.62-2.56-1.75-.8-.27-1.2.38-2.58-.86-2.26-.67-2.69-1.83c-.12-.34-.25-.68-.38-1l-.54-.17-3.15.85 1.29.86 4.43 2.43 5.56 1.57 3.39 2.35-2.32.66-1.92.23 1 1.13 4.18 2.35.19.2c1.32 1.46 3 3.26 3.47 3.6s2.63 1.47 4.48 2.43l.61.31c.47 1 .93 1.89 1.4 2.83l2.06 1.42 1.58 3.28v1.72l-1.41 3.2-1.49.51-.45 2.12q-4-1.46-8-2.86l-3.62-.27-2 .62-2.61-.22-1.33.47-4-2.09-1.47-1.49-1.44-.48-3.98 1.26-.47 1.2 3.65 2.71q2.63 1.41 5.24 2.83l2.6 2.78 4.24 5.15 1.8 2.88 2.28 4.13c0 .52-.07 1-.1 1.56l-3.86-.43-3.38 1.36-3.68-1.27-2.07-2.68-3.25-1.68q-1.85-1.3-3.71-2.58l-2.4-2.75-4.31-2.73-2.41-1.94.49 1.31-2 .77 1.88 3.18.69 1.86 4.29 3.62 1.09 1.52 4.6 3.66q2.24 1.56 4.45 3.14l3 3.43 2.69 3.9 2.12 3.59 1 2.74-4.81-1.51q-5-4.23-10.1-8.39l-2.55-4.51-.53-1.48-2.72-3-5.86-4.62-3.21-1-1-3 .92-2.37-1.3-3.64-2.88-2.17-4.51-6.23-.43-1.19-1-.75-.67 1.56-4.21-1.26q-2.35-1.32-4.73-2.62c-.32-1-.65-1.9-1-2.84l-1.7-1.88-8.43-5.93-2-2.09-1.74-1.19-2-.84-.89.28-6.45-.81.49 1.58-3.6 1.18-2.08 1.08q-5.28 1.76-10.52 3.58l.8 1.34.35 2.31-.16.08c-.76.4-1.44.93-1.44 1.13.12.48 1 3.08 1 3.1l.59 2.39-2.78.71-2.61 1-5.84-1.41-.92-4.14q-2.21-1.56-4.42-3.11-2.79-4.25-5.65-8.46-3.42-2.91-6.88-5.79l-2.69-4.61.76-2.7a.33.33 0 0 0-.11-.44 2.62 2.62 0 0 0-.88-.36l-.73 1.51-3.35-.7-3.5-.84-5.11-3 2.6-.81-1.12-.54-2.08-.3-3.3-2.07-5.76-3.46-1.57.48-3.16-.57c-2-.37-4.22-1-4.73-1.09l-9.73-1.68-4.61-1.1-3.37-1.31-.64-.38a1.64 1.64 0 0 1 .48.88l1.68 1 3.51 2 2.15 1.3 3.2 1 1.35 2.42-2.11 1.06q-4.25 1.38-8.47 2.81l.54 1.74-3.42-.55h-4.83l-2.28.79-2.14 1.08-2.67.89-9 .42-7 .7-5.6-.6-4.27-.82c0-.65 0-1.29.07-1.93l-1-1.63-2.1-2.48-4-2.41-1.53-3-3.07-1.42-2.41-1.49-2-3.22-2.88-2.27-3.15-1.82-2.5-2.75-2.66-2.73.15-1.3-1.3-.12.73 1.2-2.4.78 3 1.33 1.14 2.14 2.18 2 3.21 2.53 2.43 5 2.44 1.44 3.73 2.76 1 2.22 2.22 1.88 3.72 1.72 3.16 2 1.82 2.39 3.33 2.09 2.43 1.76h3.64l6.66.29h4.81l2.53-.92 2.18 1.6 1.34 4.28v1.28l-3.63 1.37-2.08 3.22-4.06 1.58-1.44 2.8-2.65 1-5.47.82-3.52 1.83-5.28 1.67-5 2.14-1.88 1.92-3.54 1.54-3.41 2.95-.27 3.7q.51 3.36 1 6.72l3.34 2.16-.24 3.84c-.07 1.1.21 4.91.21 5l-.24 3.89-2.34 4q-4.37 1-8.7 2.11l-4.26.42-3.6 1.29-3.18 3.22-2.89 1.56c0 .53-.11 1.07-.17 1.6l3 2.47-.59 5-3.07 4.58-7 1.3-3.1 1.82-.16 3.48-1.4 3.48-2.34 1.41q-2.42 1.29-4.81 2.6l-.35 2.66c0 .4-.22 1.24-10.52 7.9l-.43.19q-6.75 1.71-13.45 3.52-6.92-.3-13.84-.5-3 .57-6 1.17zm-3.49-2.93l3.14.68 3-2 7.2-1.35q6.87.19 13.72.5 6.21-1.71 12.46-3.32c4.11-2.68 8.73-5.81 9.44-6.61l.46-3.35 5.64-3 1.71-1 1.12-2.73.2-4 4.54-2.56 6.22-1.16q1.28-1.93 2.57-3.87l.42-3.86-3-2.48.32-2.89 3.49-1.88q1.56-1.62 3.15-3.24l4.55-1.57 4.31-.43q3.78-.94 7.56-1.84l1.92-3.23.25-3.61c0-.1-.28-3.84-.2-5l.22-3.22-3.21-2.08q-.52-3.66-1.06-7.32l.31-4.1 3.88-3.34 3.5-1.53 1.89-1.91 5.25-2.22 5.27-1.67 3.76-1.9 5.51-.82 1.9-.76c.48-.93 1-1.86 1.45-2.79l4.1-1.6 2.1-3.2 3.4-1.28v-.77l-1.22-3.92-.43-.31-1.41.51h-5.4l-6.67-.3-4.77.06-3.19-2.31-3.6-2.32-1.82-2.38-2.76-1.79-4-1.87-2.51-2.13-.94-2.2-3.36-2.43-2.72-1.6-2.47-5.18-3-2.35-2.39-2.24-1-1.93-4.15-1.82 3.14-1-1.09-1.8 5.63.5-.21 1.89 2.49 2.56 2.46 2.68 3 1.7 3.16 2.5 2.07 3.18 1.92 1.13 3.48 1.6 1.57 3.06 3.93 2.41 2.22 2.61 1.19 1.93v1.18l2.41.47 5.2.55 6.54-.68 8.84-.42 2.12-.75 2.14-1.07 2.69-.93q2.84 0 5.67.06l1.42.23-.34-1.12q4.49-1.51 9-3l1.54-.77-.8-1.46-2.63-.81-2.47-1.49-5.75-3.36v-.17a1 1 0 0 0-.55-.83 2.32 2.32 0 0 0-.76-.18l-2.15.67-3.71.87-2.73.87-2.24-1.33-2.69-1.58c-.68-.4-.76-.81-.63-1.14l-2-.4-2.91-.39-.31-1.6-.72-1.82q-2.71-1.56-5.44-3.09l1.29-.4 1.26-.88 3.39.44 4.12 2.35v.8l3.22 1.34 2.07 1.2 3.32 1 3.4.89.38.09 1.58-.49 4 .62c0 .36.06.72.08 1.08l1.76 1 2.86 1.09 4 1 9.77 1.67h.11s2.36.65 4.4 1l2.35.43 2.26-.7 3.27 2 3.85 2.28 2.65 1.66 1.85.27 4 1.92-2 .4-1.1.35 3 1.77 2.8.67 1.91.4.74-1.52.68.14a7.55 7.55 0 0 1 3.14 1.24c.86.69.57 1.22.54 1.28l-.68 2.47 2.52 4.29q3.43 2.85 6.84 5.74 2.8 4.13 5.55 8.26l4.66 3.28.79 3.48 3.06.75 2.17-.82 2.28-.55-.44-1.83c0-.08-.86-2.62-1-3.14s.85-1.21 1.55-1.59l-.27-1.83-1.06-1.79q5.52-1.91 11.1-3.76l2.12-1.06 3.16-1-.59-1.9 7.28.89 1.26-.4 3.54 1.49 2.46 1.72 2 2.09q4.25 3 8.45 6l2.06 2.34.81 2.33 3.19 1.77 2.46.73 1-2.19 4.07 2.95.57 1.57q2.09 2.83 4.14 5.67l3.12 2.36 1.54 4.44-.91 2.37.52 1.5 2.08.67q3.46 2.72 6.89 5.45l3.14 3.41.6 1.69 2.25 4q4.42 3.61 8.78 7.28l2.12.66-.47-1.31-2-3.39q-1.28-1.87-2.56-3.73l-2.55-2.95q-2.05-1.47-4.12-2.91l-5.16-4.1-1.22-1.72-4.44-3.67-.79-2.21-2.2-3.71 2.15-.81-1.32-3.56 6.26 4.73 4.56 2.88 2.46 2.8 3.11 2.16 3.75 2 1.82 2.35 1.53.53 3.35-1.25 3.25.36.06-.87-2.11-3.83-1.68-2.73-4.1-5-2.09-2.23q-2.52-1.38-5.05-2.75-2.43-1.97-4.91-3.77l.83-1.88 4.35-1.48 3.29 1.09 1.75 1.77 2.11 1.09 1-.3 2.61.21 1.92-.6 4.25.36q3.52 1.23 7 2.48l.48-1.77 1.5-.51 1.29-3v-1.6l-1.28-2.6-2.06-1.43-1.28-2.6c-1.46-.77-3.86-2-4.6-2.55a42.09 42.09 0 0 1-3.85-3.9l-4.21-2.35-2-2.27 2.58-.31 1.42-.4-1.18-.82-5.32-1.5-5.3-2.92-2.82-1.91 4.39-1.18 3 1 .58 1.54 1.32.9 1.57.46 2 .65 1.27-.34 2.16.72 3.78 2.6.55 1.08 1.2.41q3 2.13 6.06 4.27 1.78 1.74 3.56 3.49l1.8 1.29 3.14.89 1.64.23-.24-.88-2.59-2.7-4.37-3.09q-3-1.71-5.92-3.41l-.91-1.73 1.28-.36c-.18-.48-.36-1-.55-1.44l-1-1.87 2-.53 3 2.06 1.75.61 1.85-.49.16-1.81q-1.37-2-2.74-4.07l-1.15-2.05-1.59-1.54-4.45-3 2.06-.48 1.81 1.19 4.13 3 1.54 1.71 3.39 2.3 3.69 2.95 2.24 1.54 1.64.59c-.12-.19-.23-.38-.34-.58q-3-2.07-6-4.12l1.38-.35-1.8-1.4-3.74-2.23-5-2.8-2.85-2.49-5.06-1.72-3.43-2.23-3.76-1.52-.87.2-5-1.88-4.82-2.08.34-1.68-1.09-1.56 3.29-.7 1.84.58 1.47-.31 3.1 1.54 2.75.9 1.22-.26 5.48 1.8 2 1.28 1.52.52 1.23.54-1.52-2.57 1.27-.27 5.52 1.88 1.88 1.21 2 .68-.07-.11c-.4-.68.56-.85.67-.87l.38-.05 2.8 1.81 2.61 1.88c.21.35.43.7.65 1l1 2.19-1.45.33.39 1.21 3.26 2.18q2.26 1.66 4.52 3.34 4.89 3.31 9.73 6.68l3.45 1.31.23-.06-3.68-3.65 1.44-.36-.52-1-3.51-2.41-1.44-1.42q-1.86-1.18-3.73-2.36l-2.84-1.69-3.61-2.39h2.67l3.17 1.16 1.7-.38 3.47 2.33 1.28.47 1.33-.31 2-.55 3 1.13c1.42.54 2.05.74 2.33.81a5.43 5.43 0 0 0-.51-.32l-3.49-1.74-5.35-2.71-3.38-2.24 2.77.92.06-1.51 3.07 2 3.17 1.19.29.2a62 62 0 0 0 9 4l-1.92-1.4q-2.37-1.19-4.75-2.34l-5.52-2.3-5-2.53c-2.11-1-4.22-1.9-6.34-2.84l-5.68-2.36-7.93-3.38-8.61-3.39q-5.42-1.81-10.84-3.57l-7.9-2.46c-.14-.05-3.21-1.14-6.32-2.1a15.43 15.43 0 0 1-4.39-2l-3.55-.77-4-1.79q-4.47-1.33-9-2.62l-3.45-1.36-6.18-2.61-10.55-3.15-2.89-.37a36.11 36.11 0 0 0-.86.89l-3.05-.72-2.91-1.06c-.53-.15-3-.84-3.82-1a20.32 20.32 0 0 0-2.53-.28h-.29q-6-2.33-11.93-4.6L613 34.15l-8.44-1.9a34.76 34.76 0 0 1-5-1.47 24 24 0 0 0-3.36-.63h-.13l-3.44-.92-3-.62-4.35-.42a8.54 8.54 0 0 1-2.76-.92c-.7-.45-.39-.74-.35-.77l.09-.08 3.73.17c0-.17-.1-.33-.16-.5l-5-1.26-7-1.36-4.45-1.6-5.15-.77a26.83 26.83 0 0 0-4.15.17h-.21l-4.68-.94-3.99-.42-5.55-.92-1.16 1.32-6.64-.87-4.92.18q-2.88-.33-5.76-.63l.06.6-1.85.39-3.18-2.17-3.31-.51-3-.16c0 .41.05.82.08 1.23 4 1.36 4.69 1.79 4.45 2s-.86.16-1.4.08l-3.45-.73-2.91-.69-6.93-.89h-2.71l-4.89-.59-3.62-.1-2.62-.3-6.24-.56-5.93.65-2.63-1.19-2.16-.21.59.79-2.82.67-3.5-.36v.31l-3.27.8-2.01-.9-1-.08 1.14 1.27-4.5-.37q-2.45-1.11-4.89-2.19l-2.84-.72c.07-.38.15-.76.23-1.14l5.07.92q4.81.38 9.63.8l.64-.15-1.06-.47-6.81-1.61-7.17-.7-6.28-1.54-8.62-.68-5.72-.32q-4.79.51-9.54 1.06-5.4 1.44-10.82 2.92l-9.25 1.89-4.07-.1-1.63 1.12-.63 1.53 1.61.7 5 .12 2.45-.69 5.07 2.23-.4 1.11-3.73.56-1.7-.79-.62-.81-1.87.54-1 2.64-2.28.67-4.82-.1-3.47 1-4.91 1.68h-3.51l-5 1.57h-1.86l-3.87 1h-4.94a4.62 4.62 0 0 0-1.35.65h.66c3.87 0 5.55 1.52 5.62 1.59v.14l-.71 2.69-4.14 1.38h-4.12l-3.94-.5-4.74-.07-4 .08-1.85 3.51-2.66 1.56-1.11 2.12 2.21-.07 2.61 1.27 3.24-.3 4.25-.09 4.33-.56 3.74-.36 2-.69.53-1.18 3.64-1.24 2.33-1.37 4.38-.86 1.23-.4.4-.93 3.81-1.24 9.4.12 5.24-.62 5.11 2.45c1.83 1.62 5.76 1.7 5.91 1.71h.25l.21.06c4.24 1.17 4.5 2.18 4.51 2.29l-.5 1.69-2.07.67-2.7-.29-2.47-.08-.05.14 2.89 1 2.3.08.21-.67 3.31-1.07 1.49-1.15.33-1.1 2.7.11c0-.11.06-.23.1-.35l-4.28-1.09-5-1.58-3.66-1.75c-.94-.45-1.28-.9-1-1.32.38-.58 1.76-.86 1.92-.89l.62-.12 3 1.44 1.68.06 3.49 2 3.69.15c3.84.17 4.94 1.63 5 2.38l-.74 2.38.74.37 4.69.19 1.82.92-2.87.9 2.66 1.34 2.12-.67.19-1.93-2.07-1 2.46-1 2.75.16 2-.62 3.19.21 2.49 1.24-1.28.39-.05.27c0 .18.09.36.13.55l2.64 1.33-.23 1.2 1.58 1-1.17.36.31.16 1.5-.46 5.18.81 2.77-.85 2.34 1.21 3.81.52c0 .3-.11.61-.16.92l-1 1.15a4 4 0 0 0 .9 0 3.09 3.09 0 0 0 1.43-.53c-.39-.26-.94-.71-.88-1.15 0-.21.12-.86 6.83-.45l.83.05.34 1.82-1.23 1.94-.16 1.38c-.15 1.27-4 2.61-4.49 2.76l-.28.1-4.05-.35-4.82-.67-5.69-.43-5.68-.77-5.78-1.11-6.12-1.34-6.77-.36-.37 1.44-4 1.35-4.06-1q-2.67-.12-5.34-.21l-1.81-2.11-4-.45-4.91-.13-3.36-1.59-.5-1.89 1-2.85-2.64-.06-3.28 1.1-6.27-.08-4.67-.22-9.55.33q-2.69.47-5.36 1l-7.41 1.1-3.94-.47-3.84.08-4.24 1.14q-4.68 1.72-9.32 3.49l-1.06 2-3.45 1.5-5.31 2.08-5.63 1.79q-3.54 2-7.06 4-4.69 2.64-9.34 5.33l-1.27 1.92 1.28 2-1.73 3.56-5.29 3.36-1.19 2.18.78.46-2 3 1.74 1 2.72 2.3 3.07 1.87-.38 2.58q3.09 1.92 6.15 3.86l3.87.7 6 .14 4.74-.26 5.92-.8 6.38-.28 7.36-1.25 8.66-1.76 4.86-.1c5.47-.09 6.7 1.7 6.94 2.21l1.8 1.13 4.43-.75 6.89 1.73-3.08 1.38h2l1.72 1.51-.35 2.82-4.32 3.69-1.2 3.73q3.29 2.25 6.54 4.53l1.14 3.08.38 3.1 2.17 2.5 1.28 4.11q-.72 2.45-1.42 4.89l-4.46 4.58-3.86 5.58-2.51 9.18 4 3.21 1.71 6.81.43 7.6q-.9 5.5-1.76 11 3.85 3.51 7.65 7.07L384 193q-.63 3-1.24 5.91l2.91 3.35zM512.2 68.72l1.34.19 4.53.92-.64.43c-.16.11-.41.41-.13.58l2.69 1.58.91.54 1.51-.48 3.71-.87 2.42-.75h.2a6.72 6.72 0 0 1 2.17.39l-.52-.31v-.6l-1.42-.22-.39.12c.2.12.3.26.2.41-.25.38-1 .18-3-.34l-3.51-.92-3.98-1.24-2.09-1.26-3.83-1.58v-.91l-3.05-1.74-1.57-.21-1.09.69q2.29 1.29 4.57 2.6l.85 2.12zm7-48.73h0zm-5.66 34.84l-.37-.2c-.45-.23-4.4-1.62-7.94-2.8l-.23-.1-3.79-2 .53-.19s1.14-.4 1.14-1v-1.39l-.87-1.44-3.27-.78-2.54-1.61-.74-.75-2.18-1.13 5.07-1.34 6-.52.33.08a40.91 40.91 0 0 1 4.76 1.39c.65.33 1.46 1.14 1.47 1.59q0 .32-.42.42a16.45 16.45 0 0 1-3.92-.18l-.66.39v.81l1.59.83 2.74 1.16 3.84.51 2.71 1.92.06 1.29-1.92-.26h-.75v.71l4.67 2.52-.19 1.39-2.43.69zm-7.41-3.5c2.06.68 6.3 2.14 7.79 2.74h1.47l1.67-.47.12-.8-4.6-2.49c0-.49 0-1-.05-1.47l2.29-.05.37.05v-.38l-1.88-1.33-3.5-.47-3.3-1.39-2.25-1.12v-1.27l1.36-.79.49.07a26.25 26.25 0 0 0 3.26.27 2.88 2.88 0 0 0-1.06-1.07c-.31-.15-2.12-.65-3.74-1.06l-5.3.46-3.58 1 1.29.7.75.77 2 1.25 3.66.88 1.19 2v1.42c0 .56-.61 1-1.07 1.21zm-27.5-6.48l-4.75-.49-5.89-1.15-4.63-1.36-5.4-.46-2.09.62-4.19.13-4.72-.64c-.2 0-2-.55-2.27-1.25-.16-.34.06-.66.63-.94.72-.65 5.46-4.7 10.83-4.27h.37l2.66 1.44.84 1.26 3.9.33 1.45-.41-2.79-1.38 8.87-.94 1.42 2.24-2 .56 1.08 1 4.7 1.12 4.5 1.5 3 1.54-1.95 1.16zm-4.43-1.13l4 .4 2.7-.29 1.07-.64-2.04-1.04-4.11-1.36-5.19-1.23-1.89-1.69 2.2-.61-.65-1-5 .52 2.39 1.19-3.24.91-5.84-.5-1.1-1.66-1.89-1c-3.55-.08-7.54 2.82-8.83 4l-.12.07c-.32.15-.44.3-.37.45s.95.6 1.36.73l4 .52 3.38-.11 2.28-.66q3.25.26 6.51.54l4.89 1.43zm55.32-19.69l-2.05-1.15 1.35-.29-1-1.07c0-.3-.06-.6-.1-.9l2.33.37 2 .61 2.42 1.47-1.44.3-.08.58h-2.25zm0-.81l.26.15h1.7l.06-.46.94-.2-1.36-.82-1.49-.45h-.3v.32l1.21 1.3zm181.43 158l-.25-.09-8.7-5.76q-3.7-4.17-7.49-8.32l-1.07-3.21q-11.21-9.57-22.8-18.86l-1.83-5.57q7.14 3.75 14.21 7.61l3.43 4.35q3.22 2.64 6.42 5.31l6.36 3.9 2.83 3.89 3.49 1.27.77 2.19 4.15 3.62q2.26 3.89 4.48 7.76c.08.17.75 1.7-.22 2.31-.68.43-1.96.29-3.78-.4zm-7.9-6.47q3.82 2.49 7.61 5c1.1.39 1.84.47 2.21.25.55-.33.17-1.24.16-1.25l-4.13-7.18q-2.18-1.9-4.36-3.8l-.48-1.37-2.86-1.02-3.17-4.37q-3-1.87-6-3.74-3.5-2.94-7-5.88l-3.06-3.88q-5.22-2.87-10.48-5.65l1.06 3.22q11.61 9.3 22.82 18.88l1.14 3.4q3.24 3.68 6.54 7.39z"/><path d="M749.8 204.15l-5.84-2.56-5.24-3.68-7.56-4.09-6.32-3c-5.74-2.54-9.17-4.37-10.13-5.51h0c-.52-.61-2.09-2.46-1.4-3s2.95.63 3.87 1.15q4.21 1.62 8.42 3.29l2.47 2.27 1.53-.8q3.12 1.24 6.24 2.52 3 2.83 6 5.69l6 2.54q1.02 2.51 1.96 5.18zm-5.76-3.87l3.16 1.27-.69-1.91-4.85-2-6-5.72-4.58-1.87-2.23 1.1q-1.75-1.65-3.54-3.28-4-1.62-8.08-3.19a7.53 7.53 0 0 0-2-.9 6.93 6.93 0 0 0 .93 1.27 67.08 67.08 0 0 0 8.34 4.18l6.43 3.07q4 2.14 8 4.34l5.11 3.59zm1.53-10.28l-.33-.17-4.52-2.79q-4.93-2-9.88-4-4.18-3.86-8.44-7.67-2.26-3.21-4.54-6.41l-1.34-3.58 1.95-.9 5.35 2-1.12-2.89 3.34-.56 2.58-1.18 4.21 1.65.68-3.19 6.11 2.43q2.48 2.12 4.94 4.26l1.67 4-1.73.82.59 1.42 5.11 4.91 1.32 3.22-2.4 1.22 1 2.45-2.53 1.3c.46 1 1.37 3.18.44 3.88-.49.33-1.33.26-2.46-.22zm-14.46-8.17l9.51 3.9 4.5 2.76c.48.19.8.2 1 .06.63-.47-.27-2.55-.63-3.24l-.22-.4 2.62-1.34-1-2.43 2.41-1.21-.85-2.07-5.09-4.91-1-2.52 1.74-.81-1.17-2.79-3.5-3-4.09-1.68-.67 3.22-4.71-1.86-2.25 1-2.8.48 1.4 3.61-6.5-2.5-1.11.52 1.08 2.88q2.1 2.91 4.17 5.84 3.6 3.27 7.16 6.49zm-30.09-54.44l-6.28-2.36-1.71-4.11 7.63 1.95 1.74 4zm-4.88-2.77l3.69 1.38.55-.2-1-2.28-4.18-1.06zm32.42 5.8l-2.91-1.09-2.94-2.25-1-2.08-.46-2.45 2.34-.8 3 2.23 1 2 1.78 2.38c.2.22 1.49 1.75 1 2.22-.25.16-.69.26-1.81-.16zm-2.7-1.92l2.17.81c.43.16.49.11.5.09s-.33-.88-.75-1.36l-2-2.65-.77-1.61-.7-.52-1.2.41.39 2.08.74 1.53zm12.15-8.98l-.57-.22-2.14-2.23-2.46-1.82-1.64-2.1v-1.67l4.41 2.56 2.63 2a13.19 13.19 0 0 1 1.81 2.16l.58 1.09c.24.28.41.59.27.77s-1.17.09-2.89-.54zm-3.9-4.21l2.44 1.84 1.48 1.54c1 .36 1.15.28 1.15.28l-.14-.14v-.08l-.63-1.19a10.47 10.47 0 0 0-1.33-1.57l-2.11-1.56-2-1.14v.59l1.14 1.43z"/><path d="M741.07 118.2l-.85-.32-.73-1.38-1.68-1.57-.19-.36-1.5-.47-3.15-1.18-1.46-2.07 2.56-.78 4 1.73 2.07.79 1.7-.52 2.8-.47-.51-1.76-2.25-1.63-1.47-2.6 2.86 1.11 3.87 2.07 2.39 2.63 1.88 1.92 1.9 2.33 1.8 1.72 1.61 2.85-1.22.41-.3-.11-2.5-1-2.54-1-1.46-.39-1 .32 1.06 2.46-3.33-2.52-2.09-2-1.81-.69 1.29.95.06.23a4.75 4.75 0 0 0 .7 1.48l.52.4-.1.2c0 .17-.04.33-2.93-.78zm-1.71-2.88l1.68 1.57.32.61.55.19a5.64 5.64 0 0 1-.67-1.41l-2.27-1.68 1-.32 3.85 1.48 2.26 2.16-.25-.56 1.53-.49 2.09.66 2.66 1 2.07.79.62-.2-1.23-2.19-1.72-1.65-1.88-2.31-1.77-1.82-2-2.15-2.88-1.54-.78-.3.72 1.28 2.42 1.75.74 2.51-3.09.52-2 .61-2.88-1.09-3.25-1.42-1.76.54.44.62 1.63.61 3.15 1 .7 1.23zm-2.76-11.25l-2-2.3-.79-1.4 1-.29-3.35-2.35-1-1.71 3.78 1.3 3.12 2.18 4.07 2.21 3.37 1.44 3 2.14-.44 1-1.86.53-3.37-1.61-1.55-1.06-.51.19.87 1.26zm-.44-1.76l1.12 1.26 1.39.49-.46-.67 1.56-.58 2.69 1.92 1.94.92 1.37-.39.19-.51-1.42-1-3.11-1.38-4.66-2.55-2.6-1.82-1.59-.55.29.51q2.13 1.48 4.25 3l-1.51.41.59.94zm129.32 277.52q-2-1.46-4.11-2.9l-3.83-6.3q-5-3.44-10.05-6.8-2.64-4.2-5.33-8.37-.94-4.23-1.93-8.47l-.37-4.67-3-3.54-1.34 1.37q-.86-3.56-1.76-7.11l-.79-.5-1.78 1.81q-2.31-3.8-4.66-7.57l-1.53-4.44q-3.69-3.71-7.43-7.38-1.87-2.57-3.78-5.13l-2.82-.3-5.62-1.54-4.44-.59-5.37-3-2.94 1.84q-7.06-3.09-14.16-6.09l-4.11-.05-3.48-.4-5.22-1.5-5.34-2.67q-2.4-3.11-4.83-6.2l-.93-2.82c-.11-.47-.4-1.7 3.85-4.12l-1-4.81q-2-8.09-4.12-16.16l-1.61-8.48q-1.57-4-3.18-7.94l2.42-1.68q3.36-1.05 6.74-2.07l6 1.13q3.22.88 6.44 1.8l4.67.75.46-3.28.75-4.12 4.21 2 6.82-4.5 5.38.78 2.88 3.12 5.73 4.57c.32.09.81.14.58-.49a16.07 16.07 0 0 1-.73-4.51v-.35l4.25.78 4.05-.73q2.31 1.21 4.61 2.44 4.08 2.91 8.11 5.86l4.08 4.54-1.92 2.84v2l3.29 4.61 5.17 4.75q2.43 2.83 4.84 5.7l2 1.39 1.81-1.51 2-2-2.77-7.36q-.43-2.64-.9-5.28l1.74-1.78q2.26 2.46 4.5 4.94l2.48 4.49q3.48 4 6.89 8 2.32 4.51 4.58 9a1.55 1.55 0 0 1 0 .21 13 13 0 0 0 1 3.19 14.1 14.1 0 0 1 2.21 5.86l4.44 5.67q3 4.75 5.93 9.55l4 7.46q2.31 3.58 4.58 7.19 3.88 5.32 7.69 10.69.84 5.28 1.61 10.54l3.06 10.25q-1.12 5.67-2.31 11.32l-1.66 1.85q-2.79.27-5.56.57l-2.88 3.38.91 3.68-1.07 1.28-3.14 4.7-2.24 1.93-5-3.52-3.61.7zm-3.9-5.47l2.32 1.62 1.94-2.14 4.11-.78 4.73 3.37 1.95-1.44 3.79-5.43-.91-3.66 3.5-3.95 5.55-.56 1.39-1.61 2.12-10.47q-1.44-4.95-2.94-9.9l-1.42-9.35q-3.35-4.73-6.75-9.42-2.5-4-5.06-7.95-2-3.72-4-7.43-2.82-4.61-5.7-9.19l-5.13-6.5-.09-.55a18.93 18.93 0 0 0-1.22-4.24 12.84 12.84 0 0 1-2.06-5.09q-1.93-3.89-3.93-7.77-3.4-4-6.85-7.94l-2.46-4.46-1.91-2.11-.84.86.82 4.78q1.51 3.93 3 7.88l-2.34 2.3-2.25 1.9-3.78-2.6-5.35-6.34q-2.64-2.43-5.31-4.84-2.26-3.22-4.58-6.43l.06-3 1.42-2.08-1.83-2.05q-3.71-2.7-7.42-5.38l-3.61-1.89-3.93.68-3.56-.65a13.83 13.83 0 0 0 .61 3.58c.76 2.1-.89 1.88-1.87 1.46l-.26-.1q-3.46-2.84-7-5.63l-1.82-2-4.13-.61q-3.45 2.36-6.85 4.72l-3.72-1.82-.58 3.22-.54 4-5.57-.91-6.49-1.81-5.79-1.09q-3.14 1-6.25 2l-1.78 1.26q1.46 3.56 2.86 7.12.84 4.32 1.65 8.64 2.16 8.1 4.15 16.17.6 3 1.18 5.92l-.29.16c-1.64.92-3.46 2.28-3.72 2.93l.49 1.48 3.33 4.25 4.27 2.13 4.75 1.34 3.26.37 4.5.12q6.82 2.89 13.63 5.91l3-1.86q3 1.63 6 3.28l4 .46 5.6 1.53 3.87.41 4.9 6.63q4.06 3.93 8.07 7.9l1.84 5.32 2 3.27 1-1 3.86 2.38 1 4q2.88 3.4 5.73 6.84l.52 6.38 1.57 6.76 3.64 5.71q5 3.35 10 6.77 2.01 3.09 3.91 6.22zm-66.12-186.8q-3.18-2-6.37-4l-.75-2.81 5 2.33q1.06 2.21 2.12 4.48zm-4.74-4.09l2 1.24-.51-1.08-1.61-.76c.01.2.07.4.12.6zm113.1 112.09l-3.12-2.49-3.68-4.37-4.43-2.93q-1.12-2.78-2.27-5.54l4.17 2.73.11-4.33q3.36 5.25 6.63 10.55 1.32 3.18 2.59 6.38zm-3.18-4.08l.25.2-1.43-3.53-2.86-4.54v2.29l-3.46-2.28.49 1.2 3.22 2.13q1.89 2.27 3.79 4.53zm-29.85-17.53l-.32-.24q-3.46-3-6.95-5.93l-3.42-2.07-4.45-4.9q-4.22-4.85-8.49-9.65l-2.08-2-1.47.27 1.24 3.05q-4.87-2.81-9.79-5.54l-5.19-4.67q-4-2.6-8-5.14l-2.34-5.73 2.77 1.48-.79-1.93a14.24 14.24 0 0 0-2-2.38l-3.72-3.88-5.59-4.23-5.53-3.43-4.19-2.08-.22-4.21-3.19-2.22q-2.25-2.58-4.52-5.15l1.39-.79 5.1 2.12 4.86 4.53q1.69 2.35 3.36 4.71l1.3.66 4.66-1.1 4.21 2.16q2.94 2.5 5.87 5 3 2.37 6 4.75l6 4.24q2.75 2.31 5.47 4.64 2.85 2.69 5.67 5.4 2.82 2.71 5.44 5.54l2.21 5.17q1.49 2.58 3 5.16l4.3 4.92q3.23 3.47 6.41 7 2 2.4 3.91 4.83c.08.14.8 1.38.58 1.89-.09.24-.47.39-1.5-.25zm-10.82-9.88l3.2 2q3.46 2.92 6.91 5.88h.08l-3.09-3.8q-3.17-3.46-6.36-6.91l-5-5.68-3.5-6.14q-.91-2.19-1.86-4.36-2.19-2.26-4.41-4.51-2.71-2.61-5.46-5.21l-5.23-4.44-5.87-4.14q-3.15-2.52-6.31-5l-5.46-4.7-3.05-1.57-4.66 1.11-3.28-1.66-3.94-5.55-3.48-3.3-3.68-1.53-.37.21 2.59 3 4.54 3.15.21 3.69 1.66.83 6 3.74 6.25 4.84 3.83 4a17.8 17.8 0 0 1 3.18 4l1.57 3.79-2.78-1.49.92 2.26q3.44 2.18 6.84 4.4l4.83 4.34 7.35 4.13-.86-2.1 2.78-.5 3.78 3.57q4.3 4.82 8.52 9.67l3.61 3.98zm4.08-6.92l-4.13-2.46-5-6.4 4.72 1.7 1.6-1.23 1.79-.46-2.42-2.69-5.43-4.59 1.73-1.28 3.9 2.69q2.41 2.66 4.82 5.32 1.7 2 3.36 4l.76 3.55-2.58 2zm-4-3.83l2.66 1.58 2.67.16 2.18-1.76-.49-2.31-2.33-2.8-4.1-4.53-2.27-1.57-.26.2 3 2.56q2.42 2.67 4.82 5.35l-2.88.73-1.73 1.37-2.85-1zm27.85 25.97l-4-2.56-2.51-6-1.7-1.07q-2.52-3-5.07-5.94l-1.4-3.3-2.95-6.11q4.3 4.88 8.54 9.8l3 1.89q1.77 2.06 3.52 4.13 1.83 4.37 3.62 8.73zm-3-3.47l1.42.91.32-.14q-1.4-3.42-2.84-6.84l-1.89-2.23-3-1.89-4.19-4.86.34.7 1.09 2.55 3.45 4 2.8 1.76q1.28 3.04 2.53 6.04z"/><path d="M894.94 282.58q-2.21-1.46-4.42-2.9l-1.17-2.28-1.74-2.1-1.64-3.9 4.3 2.49q1.7 2.77 3.37 5.55l1.3 3.14zm-3.71-4l1 .62-.33-.79-1.92-3.14-1.28-.74.47 1.1 1.56 1.89c.13.35.31.71.47 1.06zm-132.57-69.22l-4.7-2.08q-1.5-2.92-3-5.85 5.49 2.61 11 5.3zm-3.6-3l2.06.91 1.12-.9-4.24-2.06z"/><path d="M766.49 215.77q-3.72-3.53-7.48-7 3.75 1.67 7.48 3.36l4.47 4.49zm-1.39-2.83l1.11 1 .72.13-.63-.63z"/><path d="M772.61 215.15l-6.95-3.19-1.45-3.89 5 1.83 5.64 3.89zm-5.58-4l4.09 1.88.34-.21-1.83-1.26-2.84-1zm16.25 12.49q-3.47-1.94-6.94-3.82l-1.52-4.09h5q3.38 1.13 6.73 2.29l3.8 3.89-4.74-.6-1.5-.72-1.72 1.08zm-5.52-4.49l2.52 1.38-.24-.53 2.55-1.6 2.12 1 1.93.2h0l-5.62-1.91h-3.76zm-12.28-15.84l-8.88-3.93-1-4.9-2.29-2.15.25-4.07 1.92-.18-1.71-4.35.09-2.95 3 .77q3 1.13 6 2.28l4.88 2.14 3.46.18.94 3.71-1.31.71a.49.49 0 0 1 0 .45c-.13.14-.45.22-1.28-.15-1.08-.49-4.66-2.42-5.07-2.63l-.33-.18-1.64-1.52-2.76-.17-.63.33 1.17 1.08 3.65 1.6 5.07 2.64-3.52 1.9q1.75 1.65 3.49 3.32l1.71 4.25-1.21.69-3.81-1.71-1.37-3.48-2.23-1.67-1.41.78 1 1 3.82 6.21zm-7.16-4.54l4 1.75-2.12-3.37-2.38-2.26 3.07-1.66 4.94 3.69 1.12 2.82 1 .46.44-.25-1.16-2.91-4.56-4.32 2.57-1.39-.84-.44-4.34-1.89-3.74-3.46 1.84-.89 3.92.25 2.33 2.15 4.19 2.18-.06-.09 1.48-.8-.15-.6-1.07-.06-5.28-2.33-5.73-2.2-1.92-.48v2.23l2 4.87-2.18.21c0 1-.11 1.94-.16 2.91l2.07 2zm10.58-9.12zm15.92 8.82q-4.12-2.06-8.26-4.07l2.58-1.42-2.93-5.46.54.07a12.32 12.32 0 0 1 3.21.83c1.93.88 3.14 3.36 3.46 4.1l.09.2-.42 1.14.89 2zm-4.43-3.44l2 1-.36-1.08-1-2.36.42-1.13a8.25 8.25 0 0 0-1-1.56 9.42 9.42 0 0 0-1.81-.47l2.72 5.06zm8.22 13.99l-3.63-3.58-1.3-3.12 6 2.92 5.37 4.06-1.76 1.79zm-2-3.34l2 2 3 1.32.57-.58-2.5-1.9-3.45-1.64c.19.27.3.53.41.8zm-45.08-45.11l-5.71-2.61-.36-.48c-.08-.1-1.82-2.41-.53-3a22.93 22.93 0 0 1 3.37-.89l.49-.09 2.71 2.27.87 2.14zm-4.76-3.25l3 1.38.62-1.89-.53-1.21-.48-.4a17.78 17.78 0 0 0-2.75.75c-.43.2-.13.9.14 1.37zm9.61-1.48l-5.64-3.48-1.71-3.36-3.54-3.85q-1.47-2.23-3-4.46v-4.43l6.47 3.86 2.18 3.77.24 2.62 3 2.42 4.53 2.2 2.77 3.18 1.08 2.33-4-1.67-3.05-1.93-1-.42zm-4.25-3.63l1.35.83-1.27-2.44 3.57 1.47 3 1.93 1.51.61-.42-.89-1.67-1.95-4.14-2-4.48-3.67-.26-3-1.63-2.82-3.27-2v3.18l2.71 4.06 3.64 4zm24.44 24.62l-4-1.73q-2.4-2.61-4.85-5.21l-4.52-1.92-1.08-3.7 4.68 2 4.2-1.71.87.76c5.16 4.59 5.47 5.3 5.58 5.53l1.59 3.51.76 2.15zm-3.54-2.68l2.32 1 2.3-.25-.51-1.44-1.56-3.44c-.24-.33-2-2-3.78-3.6l-3.6 1.5-3.79-1.6.35 1.16 3.44 1.47 4.83 5.2z"/><path d="M755.57 166.02l-4.35-3.76-.61-1.35-2.78-2.37-2-1.82-.48-2.25 3 1.21.85-.53 2.75 1.13.09 2.09-.41.18.26.81 1.15 1a7.2 7.2 0 0 1 2.43 2.24 6.82 6.82 0 0 1 .16 2.68l-.06.74zm-2.74-3.54l.91.78a4.81 4.81 0 0 0-.12-1.46 5.1 5.1 0 0 0-.83-.61l-.23-.13-2.38-2-.57-1.8-2.09-.85.18.79 1.13 1.07 3.37 2.88.63 1.33z"/><path d="M756.54 163.49l-1.73-3.79-3.79-3.21 6.57 2.08 4.12 3.52-1.82.58c0 .54.1 1.07.16 1.61zm-1.29-4.54l1.15 1 1.17 2.54.48.11-.13-1.33 1.1-.34-1.42-1.21z"/></g></svg>